%FSLAX35Y35*%
%MOIN*%
%IN16 = Copper top L2   ( x.Top )*%
%ADD10C,0.00591*%
%ADD11C,0.00768*%
%ADD12C,0.01024*%
%ADD13C,0.01181*%
%ADD14C,0.01575*%
%ADD15C,0.02000*%
%ADD16C,0.02362*%
%ADD17C,0.02400*%
%ADD18C,0.02496*%
%ADD19C,0.03150*%
%ADD20C,0.03200*%
%ADD21C,0.03937*%
%ADD22C,0.04000*%
%ADD23C,0.05000*%
%ADD24C,0.06000*%
%ADD25C,0.06693*%
%ADD26C,0.07000*%
%ADD27C,0.07874*%
%ADD28C,0.08000*%
%ADD29C,0.10000*%
%ADD30C,0.19685*%
%ADD31C,0.23622*%
%ADD32R,0.02717X0.05787*%
%ADD33R,0.03543X0.06299*%
%ADD34R,0.04724X0.07874*%
%ADD35R,0.05000X0.05000*%
%ADD36R,0.05000X0.09843*%
%ADD37R,0.06299X0.03543*%
%ADD38R,0.06299X0.03937*%
%ADD39R,0.07874X0.04724*%
%ADD40R,0.08000X0.08000*%
%ADD41R,0.11811X0.27559*%
%ADD42R,0.12000X0.12000*%
%ADD43O,0.05000X0.09843*%
G54D15*
X925250Y552000D02*
X909750Y552000D01*
X906750Y549000D01*
X906750Y523000D02*
X906750Y549000D01*
X906750Y523000D02*
X903250Y519500D01*
X860750Y519500D02*
X903250Y519500D01*
X860750Y519500D02*
X857750Y522500D01*
X857750Y529500D01*
X925250Y562000D02*
X907250Y562000D01*
X903250Y558000D01*
X903250Y540000D02*
X903250Y558000D01*
X901750Y538500D02*
X903250Y540000D01*
X901750Y538500D02*
X879250Y538500D01*
X877750Y537000D01*
X877750Y529500D01*
G54D20*
X871500Y47500D02*
X871500Y163750D01*
X939625Y90000D02*
X939625Y74375D01*
X933375Y68125D01*
X912750Y68125D01*
X912750Y47500D01*
X949000Y90000D02*
X949000Y68125D01*
X940250Y59375D01*
X922750Y59375D01*
X922750Y48750D01*
X850875Y48125D02*
X850875Y59375D01*
X839625Y59375D01*
X839625Y137500D01*
X846500Y144375D01*
X846500Y166250D01*
X861500Y48125D02*
X861500Y68750D01*
X847750Y68750D01*
X847750Y135625D01*
X851500Y139375D01*
X893375Y238125D02*
X873375Y238125D01*
X837750Y577000D02*
X837750Y594500D01*
X936250Y573500D02*
X935250Y574500D01*
X936250Y573500D02*
X935250Y572000D01*
X935250Y574500D02*
X935250Y572000D01*
G54D22*
X885250Y206875D02*
X895875Y206875D01*
X900875Y211875D01*
X900875Y291250D01*
X895250Y296875D01*
X872750Y296875D01*
X640250Y199375D02*
X646500Y193125D01*
X722125Y193125D01*
X727125Y198125D01*
X727125Y225000D01*
X640250Y199375D02*
X619625Y199375D01*
X620250Y198750D01*
X672750Y218125D02*
X689625Y235000D01*
X734625Y235000D01*
X742125Y242500D01*
X742125Y258750D01*
X729000Y258750D01*
X672750Y218125D02*
X620875Y218125D01*
X620250Y218750D01*
X730250Y279375D02*
X700875Y279375D01*
X680875Y259375D01*
X620875Y259375D01*
X620250Y258750D01*
X727125Y315000D02*
X655250Y315000D01*
X639000Y298750D01*
X620250Y298750D01*
X638375Y318750D02*
X645875Y326250D01*
X727125Y326250D01*
X638375Y318750D02*
X620250Y318750D01*
X639625Y338125D02*
X649000Y347500D01*
X727125Y347500D01*
X639625Y338125D02*
X620875Y338125D01*
X620250Y338750D01*
X248125Y181875D02*
X185000Y181875D01*
X699000Y696875D02*
X699000Y704375D01*
X899000Y704375D01*
X899000Y695625D01*
X976500Y474375D02*
X984625Y474375D01*
X976500Y573750D02*
X987750Y573750D01*
X976500Y573750D02*
X976500Y474375D01*
X896500Y390625D02*
X896500Y402500D01*
X696500Y402500D01*
X696500Y390625D01*
X796500Y391250D02*
X796500Y401875D01*
X675875Y673750D02*
X661500Y673750D01*
X661500Y473750D01*
X669625Y473750D01*
X672750Y573750D02*
X664625Y573750D01*
X974625Y170000D02*
X967125Y170000D01*
X967125Y343750D01*
X982750Y359375D01*
X982750Y367500D01*
X977750Y270000D02*
X969000Y270000D01*
X831500Y173125D02*
X955250Y173125D01*
X958375Y170000D01*
X967125Y170000D01*
X821500Y173125D02*
X694625Y173125D01*
X683375Y184375D01*
X655250Y184375D01*
X811500Y188750D02*
X829625Y188750D01*
X839625Y198750D01*
X903375Y198750D01*
X909000Y204375D01*
X909000Y359375D01*
X888375Y380000D01*
X888375Y401875D01*
X683375Y278750D02*
X696500Y291875D01*
X727125Y291875D01*
X683375Y278750D02*
X621500Y278750D01*
X621500Y358750D02*
X727750Y358750D01*
X639625Y239375D02*
X648375Y248125D01*
X727750Y248125D01*
X621500Y238750D02*
X639000Y238750D01*
X639625Y239375D01*
X661500Y473125D02*
X661500Y400625D01*
X692750Y369375D01*
X743375Y369375D01*
X751500Y361250D01*
X751500Y188750D01*
X758375Y181875D01*
X815875Y181875D01*
X839625Y42500D02*
X817125Y42500D01*
X809625Y50000D01*
X809625Y163750D01*
X796500Y189375D02*
X814000Y206875D01*
X884625Y206875D01*
X837750Y182500D02*
X946500Y182500D01*
X959000Y195000D01*
X959000Y360000D01*
X982750Y383750D01*
X982750Y393750D01*
X976500Y400000D01*
X976500Y473750D01*
X842750Y188750D02*
X924000Y188750D01*
X947750Y212500D01*
X947750Y405000D01*
X966500Y423750D01*
X966500Y666250D01*
X984000Y683750D01*
X984000Y698750D01*
X979000Y703750D01*
X899000Y703750D02*
X979000Y703750D01*
X976500Y572500D02*
X976500Y660000D01*
X989000Y672500D01*
X992750Y672500D01*
X203750Y473750D02*
X195625Y473750D01*
X195625Y673750D01*
X210000Y673750D01*
X203750Y473750D02*
X195625Y473750D01*
X195625Y673750D01*
X210000Y673750D01*
X527500Y674375D02*
X527500Y666875D01*
X513125Y652500D01*
X513125Y576875D01*
X513125Y476875D02*
X521875Y476875D01*
X521586Y476600D01*
X524375Y576875D02*
X513125Y576875D01*
X513125Y476875D01*
X508750Y60000D02*
X549375Y60000D01*
X567500Y78125D01*
X567500Y199375D01*
X594375Y199375D01*
X595000Y198750D01*
X175000Y60000D02*
X508750Y60000D01*
X549375Y60000D01*
X575000Y238750D02*
X595000Y238750D01*
X575000Y238750D02*
X575000Y239375D01*
X580625Y259375D02*
X556250Y283750D01*
X502500Y283750D01*
X581250Y258750D02*
X595000Y258750D01*
X581250Y258750D02*
X580625Y259375D01*
X544375Y291250D02*
X560625Y291250D01*
X573125Y278750D01*
X595000Y278750D01*
X568750Y298750D02*
X551875Y315625D01*
X507500Y315625D01*
X568750Y298750D02*
X595000Y298750D01*
X562500Y318750D02*
X595000Y318750D01*
X563750Y338750D02*
X595000Y338750D01*
X562500Y358750D02*
X549375Y371875D01*
X549375Y412500D01*
X535625Y426250D01*
X248125Y426250D01*
X238750Y435625D01*
X238750Y670625D01*
X562500Y358750D02*
X595000Y358750D01*
X238750Y670625D02*
X220625Y688750D01*
X176250Y688750D01*
X233125Y698750D02*
X233125Y706250D01*
X433125Y706250D01*
X433125Y698750D01*
X333125Y698750D02*
X333125Y705625D01*
X230625Y393125D02*
X230625Y402500D01*
X440625Y402500D01*
X440625Y393125D01*
X330625Y393750D02*
X330625Y402500D01*
X222500Y86250D02*
X222500Y97500D01*
X322500Y97500D01*
X422500Y97500D02*
X422500Y86250D01*
X322500Y86250D02*
X322500Y97500D01*
X422500Y97500D01*
X205000Y573750D02*
X196250Y573750D01*
X198125Y370000D02*
X183750Y370000D01*
X183750Y170000D01*
X192500Y170000D01*
X195000Y270000D02*
X184375Y270000D01*
X515625Y372500D02*
X500625Y372500D01*
X500625Y172500D01*
X511875Y172500D01*
X513125Y273125D02*
X501250Y273125D01*
X567500Y218750D02*
X593750Y218750D01*
X567500Y218750D02*
X567500Y218125D01*
X535625Y379375D02*
X501250Y413750D01*
X236875Y413750D01*
X228750Y421875D01*
X228750Y480625D01*
X223125Y486250D01*
X196875Y486250D01*
X566250Y486250D02*
X515000Y486250D01*
X543750Y348125D02*
X555625Y348125D01*
X565000Y338125D01*
X561221Y318750D02*
X535625Y343233D01*
X535625Y380000D01*
X37500Y175625D02*
X23750Y175625D01*
X23750Y275000D01*
X23750Y375000D02*
X43750Y375000D01*
X40000Y275000D02*
X23750Y275000D01*
X23750Y375000D01*
X25000Y188125D02*
X84375Y188125D01*
X103750Y168750D01*
X110625Y168750D01*
X47500Y479375D02*
X36875Y479375D01*
X36875Y678750D01*
X53125Y678750D01*
X36875Y678750D02*
X46875Y688750D01*
X151250Y688750D01*
X50000Y579375D02*
X38125Y579375D01*
X120000Y255625D02*
X138750Y255625D01*
X138750Y528750D01*
X126875Y528750D01*
X37500Y488750D02*
X137500Y488750D01*
X38613Y60000D02*
X23750Y74598D01*
X23750Y175000D01*
X38613Y60000D02*
X148750Y60000D01*
G54D23*
X885250Y206875D03*
X940250Y90625D03*
X872750Y238125D03*
X727750Y258750D03*
X248125Y181875D03*
X507125Y315500D03*
X841500Y188750D03*
X836500Y181875D03*
X831500Y173125D03*
X821500Y173125D03*
X816500Y181875D03*
X811500Y188750D03*
X727750Y247500D03*
X729625Y278750D03*
X727750Y291250D03*
X727750Y315000D03*
X727750Y326250D03*
X727750Y347500D03*
X727750Y358750D03*
X727750Y225000D03*
X654000Y184375D03*
X948375Y90625D03*
X846500Y166250D03*
X851500Y139375D03*
X871500Y164375D03*
X893375Y238125D03*
X809625Y163750D03*
X796500Y188750D03*
X575000Y239375D03*
X544375Y291250D03*
X567500Y218125D03*
X566875Y485625D03*
X566875Y485625D03*
X544375Y348125D03*
X797750Y529500D02*
X762250Y529500D01*
X760750Y528000D01*
X877750Y503500D02*
X877750Y511000D01*
X875250Y513500D01*
X834250Y513500D01*
X828250Y519500D02*
X834250Y513500D01*
X800750Y519500D02*
X828250Y519500D01*
X797750Y522500D02*
X797750Y529500D01*
X800750Y519500D02*
X797750Y522500D01*
X797750Y559500D02*
X797750Y569500D01*
X805250Y577000D01*
X837750Y577000D01*
X935250Y574500D02*
X935250Y582000D01*
X837750Y577000D02*
X898750Y577000D01*
X912750Y591000D01*
X932750Y591000D01*
X935250Y588500D01*
X935250Y582000D01*
G54D24*
X881500Y47500D02*
X881500Y37500D01*
X871500Y37500D01*
X861500Y37500D01*
X881500Y47500D02*
X881500Y37500D01*
X871500Y37500D01*
X861500Y37500D01*
X851500Y37500D02*
X841500Y37500D01*
X841500Y47500D01*
X851500Y37500D02*
X841500Y37500D01*
X841500Y47500D01*
G54D26*
X878250Y503500D03*
X868250Y503500D03*
X858250Y503500D03*
X761250Y528000D03*
X761250Y538000D03*
X318250Y552500D03*
X328250Y502500D03*
X426250Y552500D03*
X436250Y502500D03*
X418250Y224000D03*
X408250Y274000D03*
X310250Y224000D03*
X300250Y274000D03*
X418250Y224000D03*
X408250Y274000D03*
X310250Y224000D03*
X300250Y274000D03*
G54D27*
X872750Y316875D03*
X872750Y296875D03*
G54D28*
X841500Y37500D03*
X841500Y47500D03*
X851500Y37500D03*
X851500Y47500D03*
X861500Y37500D03*
X861500Y47500D03*
X871500Y37500D03*
X871500Y47500D03*
X881500Y37500D03*
X881500Y47500D03*
X912750Y47500D03*
X922750Y47500D03*
X355750Y575000D03*
X345750Y575000D03*
X355750Y585000D03*
X345750Y585000D03*
X355750Y595000D03*
X345750Y595000D03*
X355750Y605000D03*
X345750Y605000D03*
X355750Y615000D03*
X345750Y615000D03*
X355750Y492500D03*
X345750Y492500D03*
X355750Y502500D03*
X345750Y502500D03*
X355750Y512500D03*
X345750Y512500D03*
X355750Y522500D03*
X345750Y522500D03*
X355750Y532500D03*
X345750Y532500D03*
X463750Y575000D03*
X453750Y575000D03*
X463750Y585000D03*
X453750Y585000D03*
X463750Y595000D03*
X453750Y595000D03*
X463750Y605000D03*
X453750Y605000D03*
X463750Y615000D03*
X453750Y615000D03*
X463750Y492500D03*
X453750Y492500D03*
X463750Y502500D03*
X453750Y502500D03*
X463750Y512500D03*
X453750Y512500D03*
X463750Y522500D03*
X453750Y522500D03*
X463750Y532500D03*
X453750Y532500D03*
X935750Y512000D03*
X925750Y512000D03*
X935750Y522000D03*
X925750Y522000D03*
X935750Y532000D03*
X925750Y532000D03*
X935750Y542000D03*
X925750Y542000D03*
X935750Y552000D03*
X925750Y552000D03*
X935750Y562000D03*
X925750Y562000D03*
X935750Y572000D03*
X925750Y572000D03*
X935750Y582000D03*
X925750Y582000D03*
X808250Y594500D03*
X818250Y594500D03*
X828250Y594500D03*
X838250Y594500D03*
X445750Y214000D03*
X435750Y214000D03*
X445750Y224000D03*
X435750Y224000D03*
X445750Y234000D03*
X435750Y234000D03*
X445750Y244000D03*
X435750Y244000D03*
X445750Y254000D03*
X435750Y254000D03*
X445750Y296500D03*
X435750Y296500D03*
X445750Y306500D03*
X435750Y306500D03*
X445750Y316500D03*
X435750Y316500D03*
X445750Y326500D03*
X435750Y326500D03*
X445750Y336500D03*
X435750Y336500D03*
X337750Y214000D03*
X327750Y214000D03*
X337750Y224000D03*
X327750Y224000D03*
X337750Y234000D03*
X327750Y234000D03*
X337750Y244000D03*
X327750Y244000D03*
X337750Y254000D03*
X327750Y254000D03*
X337750Y296500D03*
X327750Y296500D03*
X337750Y306500D03*
X327750Y306500D03*
X337750Y316500D03*
X327750Y316500D03*
X337750Y326500D03*
X327750Y326500D03*
X337750Y336500D03*
X327750Y336500D03*
X445750Y214000D03*
X435750Y214000D03*
X445750Y224000D03*
X435750Y224000D03*
X445750Y234000D03*
X435750Y234000D03*
X445750Y244000D03*
X435750Y244000D03*
X445750Y254000D03*
X435750Y254000D03*
X445750Y296500D03*
X435750Y296500D03*
X445750Y306500D03*
X435750Y306500D03*
X445750Y316500D03*
X435750Y316500D03*
X445750Y326500D03*
X435750Y326500D03*
X445750Y336500D03*
X435750Y336500D03*
X337750Y214000D03*
X327750Y214000D03*
X337750Y224000D03*
X327750Y224000D03*
X337750Y234000D03*
X327750Y234000D03*
X337750Y244000D03*
X327750Y244000D03*
X337750Y254000D03*
X327750Y254000D03*
X337750Y296500D03*
X327750Y296500D03*
X337750Y306500D03*
X327750Y306500D03*
X337750Y316500D03*
X327750Y316500D03*
X337750Y326500D03*
X327750Y326500D03*
X337750Y336500D03*
X327750Y336500D03*
X355750Y532500D02*
X368250Y532500D01*
X368250Y615000D01*
X355750Y615000D01*
X345750Y595000D02*
X318250Y595000D01*
X318250Y552500D01*
X328250Y502500D02*
X328250Y585000D01*
X345750Y585000D01*
X463750Y532500D02*
X476250Y532500D01*
X476250Y615000D01*
X463750Y615000D01*
X453750Y595000D02*
X426250Y595000D01*
X426250Y552500D01*
X436250Y502500D02*
X436250Y585000D01*
X453750Y585000D01*
X418250Y224000D02*
X418250Y306500D01*
X435750Y306500D01*
X445750Y254000D02*
X458250Y254000D01*
X458250Y336500D01*
X445750Y336500D01*
X435750Y316500D02*
X408250Y316500D01*
X408250Y274000D01*
X310250Y224000D02*
X310250Y306500D01*
X327750Y306500D01*
X337750Y254000D02*
X350250Y254000D01*
X350250Y336500D01*
X337750Y336500D01*
X327750Y316500D02*
X300250Y316500D01*
X300250Y274000D01*
X418250Y224000D02*
X418250Y306500D01*
X435750Y306500D01*
X445750Y254000D02*
X458250Y254000D01*
X458250Y336500D01*
X445750Y336500D01*
X435750Y316500D02*
X408250Y316500D01*
X408250Y274000D01*
X310250Y224000D02*
X310250Y306500D01*
X327750Y306500D01*
X337750Y254000D02*
X350250Y254000D01*
X350250Y336500D01*
X337750Y336500D01*
X327750Y316500D02*
X300250Y316500D01*
X300250Y274000D01*
G54D29*
X749250Y514000D03*
X749250Y494000D03*
G54D30*
X936750Y493500D03*
X893750Y591500D03*
X744750Y590500D03*
G54D31*
X647750Y30000D03*
X1026500Y28750D03*
X1026500Y732500D03*
X647750Y733750D03*
X563750Y732500D03*
X550000Y27500D03*
X200000Y730000D03*
X198750Y27500D03*
X26250Y27500D03*
X126250Y27500D03*
X22500Y728750D03*
X127500Y730000D03*
G54D34*
X669836Y103750D03*
X659836Y103750D03*
X670836Y137050D03*
X660836Y137050D03*
X671836Y170350D03*
X661836Y170350D03*
X672836Y203650D03*
X662836Y203650D03*
X673836Y236950D03*
X663836Y236950D03*
X674836Y270250D03*
X664836Y270250D03*
X675836Y303550D03*
X665836Y303550D03*
X676836Y336850D03*
X666836Y336850D03*
X677836Y370150D03*
X667836Y370150D03*
X687836Y673900D03*
X677836Y673900D03*
X686836Y640600D03*
X676836Y640600D03*
X685836Y607300D03*
X675836Y607300D03*
X684836Y574000D03*
X674836Y574000D03*
X683836Y540700D03*
X673836Y540700D03*
X682836Y507400D03*
X672836Y507400D03*
X681836Y474100D03*
X671836Y474100D03*
X680836Y440800D03*
X670836Y440800D03*
X679836Y407500D03*
X669836Y407500D03*
X984836Y103750D03*
X974836Y103750D03*
X985836Y137050D03*
X975836Y137050D03*
X986836Y170350D03*
X976836Y170350D03*
X987836Y203650D03*
X977836Y203650D03*
X988836Y236950D03*
X978836Y236950D03*
X989836Y270250D03*
X979836Y270250D03*
X990836Y303550D03*
X980836Y303550D03*
X991836Y336850D03*
X981836Y336850D03*
X992836Y370150D03*
X982836Y370150D03*
X1002836Y673900D03*
X992836Y673900D03*
X1001836Y640600D03*
X991836Y640600D03*
X1000836Y607300D03*
X990836Y607300D03*
X999836Y574000D03*
X989836Y574000D03*
X998836Y540700D03*
X988836Y540700D03*
X997836Y507400D03*
X987836Y507400D03*
X996836Y474100D03*
X986836Y474100D03*
X995836Y440800D03*
X985836Y440800D03*
X994836Y407500D03*
X984836Y407500D03*
X698586Y81250D03*
X688586Y81250D03*
X731886Y81250D03*
X721886Y81250D03*
X765186Y81250D03*
X755186Y81250D03*
X798486Y81250D03*
X788486Y81250D03*
X831786Y81250D03*
X821786Y81250D03*
X865086Y81250D03*
X855086Y81250D03*
X898386Y81250D03*
X888386Y81250D03*
X931686Y81250D03*
X921686Y81250D03*
X964986Y81250D03*
X954986Y81250D03*
X706711Y388125D03*
X696711Y388125D03*
X740011Y388125D03*
X730011Y388125D03*
X773311Y388125D03*
X763311Y388125D03*
X806611Y388125D03*
X796611Y388125D03*
X839911Y388125D03*
X829911Y388125D03*
X873211Y388125D03*
X863211Y388125D03*
X906511Y388125D03*
X896511Y388125D03*
X939811Y388125D03*
X929811Y388125D03*
X973111Y388125D03*
X963111Y388125D03*
X975611Y693750D03*
X965611Y693750D03*
X942311Y693750D03*
X932311Y693750D03*
X909011Y693750D03*
X899011Y693750D03*
X875711Y693750D03*
X865711Y693750D03*
X842411Y693750D03*
X832411Y693750D03*
X809111Y693750D03*
X799111Y693750D03*
X775811Y693750D03*
X765811Y693750D03*
X742511Y693750D03*
X732511Y693750D03*
X709211Y693750D03*
X699211Y693750D03*
X243336Y696250D03*
X233336Y696250D03*
X276636Y696250D03*
X266636Y696250D03*
X309936Y696250D03*
X299936Y696250D03*
X343236Y696250D03*
X333236Y696250D03*
X376536Y696250D03*
X366536Y696250D03*
X409836Y696250D03*
X399836Y696250D03*
X443136Y696250D03*
X433136Y696250D03*
X476436Y696250D03*
X466436Y696250D03*
X509736Y696250D03*
X499736Y696250D03*
X202086Y103750D03*
X192086Y103750D03*
X203086Y137050D03*
X193086Y137050D03*
X204086Y170350D03*
X194086Y170350D03*
X205086Y203650D03*
X195086Y203650D03*
X206086Y236950D03*
X196086Y236950D03*
X207086Y270250D03*
X197086Y270250D03*
X208086Y303550D03*
X198086Y303550D03*
X209086Y336850D03*
X199086Y336850D03*
X210086Y370150D03*
X200086Y370150D03*
X220086Y673900D03*
X210086Y673900D03*
X219086Y640600D03*
X209086Y640600D03*
X218086Y607300D03*
X208086Y607300D03*
X217086Y574000D03*
X207086Y574000D03*
X216086Y540700D03*
X206086Y540700D03*
X215086Y507400D03*
X205086Y507400D03*
X214086Y474100D03*
X204086Y474100D03*
X213086Y440800D03*
X203086Y440800D03*
X212086Y407500D03*
X202086Y407500D03*
X519586Y106250D03*
X509586Y106250D03*
X520586Y139550D03*
X510586Y139550D03*
X521586Y172850D03*
X511586Y172850D03*
X522586Y206150D03*
X512586Y206150D03*
X523586Y239450D03*
X513586Y239450D03*
X524586Y272750D03*
X514586Y272750D03*
X525586Y306050D03*
X515586Y306050D03*
X526586Y339350D03*
X516586Y339350D03*
X527586Y372650D03*
X517586Y372650D03*
X537586Y676400D03*
X527586Y676400D03*
X536586Y643100D03*
X526586Y643100D03*
X535586Y609800D03*
X525586Y609800D03*
X534586Y576500D03*
X524586Y576500D03*
X533586Y543200D03*
X523586Y543200D03*
X532586Y509900D03*
X522586Y509900D03*
X531586Y476600D03*
X521586Y476600D03*
X530586Y443300D03*
X520586Y443300D03*
X529586Y410000D03*
X519586Y410000D03*
X507236Y390625D03*
X497236Y390625D03*
X473936Y390625D03*
X463936Y390625D03*
X440636Y390625D03*
X430636Y390625D03*
X407336Y390625D03*
X397336Y390625D03*
X374036Y390625D03*
X364036Y390625D03*
X340736Y390625D03*
X330736Y390625D03*
X307436Y390625D03*
X297436Y390625D03*
X274136Y390625D03*
X264136Y390625D03*
X240836Y390625D03*
X230836Y390625D03*
X499111Y83750D03*
X489111Y83750D03*
X465811Y83750D03*
X455811Y83750D03*
X432511Y83750D03*
X422511Y83750D03*
X399211Y83750D03*
X389211Y83750D03*
X365911Y83750D03*
X355911Y83750D03*
X332611Y83750D03*
X322611Y83750D03*
X299311Y83750D03*
X289311Y83750D03*
X266011Y83750D03*
X256011Y83750D03*
X232711Y83750D03*
X222711Y83750D03*
X47086Y108750D03*
X37086Y108750D03*
X48086Y142050D03*
X38086Y142050D03*
X49086Y175350D03*
X39086Y175350D03*
X50086Y208650D03*
X40086Y208650D03*
X51086Y241950D03*
X41086Y241950D03*
X52086Y275250D03*
X42086Y275250D03*
X53086Y308550D03*
X43086Y308550D03*
X54086Y341850D03*
X44086Y341850D03*
X55086Y375150D03*
X45086Y375150D03*
X65086Y678900D03*
X55086Y678900D03*
X64086Y645600D03*
X54086Y645600D03*
X63086Y612300D03*
X53086Y612300D03*
X62086Y579000D03*
X52086Y579000D03*
X61086Y545700D03*
X51086Y545700D03*
X60086Y512400D03*
X50086Y512400D03*
X59086Y479100D03*
X49086Y479100D03*
X58086Y445800D03*
X48086Y445800D03*
X57086Y412500D03*
X47086Y412500D03*
G54D36*
X798250Y529500D03*
G54D39*
X83750Y158750D03*
X83750Y168750D03*
X113750Y158750D03*
X113750Y168750D03*
X98750Y138750D03*
X98750Y148750D03*
X87500Y245000D03*
X87500Y255000D03*
X117500Y245000D03*
X117500Y255000D03*
X102500Y225000D03*
X102500Y235000D03*
X97500Y518750D03*
X97500Y528750D03*
X127500Y518750D03*
X127500Y528750D03*
X112500Y498750D03*
X112500Y508750D03*
G54D40*
X620250Y178750D03*
X620250Y198750D03*
X620250Y218750D03*
X620250Y238750D03*
X620250Y258750D03*
X620250Y278750D03*
X620250Y298750D03*
X620250Y318750D03*
X620250Y338750D03*
X620250Y358750D03*
X595000Y178750D03*
X595000Y198750D03*
X595000Y218750D03*
X595000Y238750D03*
X595000Y258750D03*
X595000Y278750D03*
X595000Y298750D03*
X595000Y318750D03*
X595000Y338750D03*
X595000Y358750D03*
X176250Y385000D03*
X175000Y688750D03*
X175000Y60000D03*
X151250Y385000D03*
X150000Y688750D03*
X150000Y60000D03*
G54D41*
X614000Y740000D03*
X614000Y551250D03*
X614000Y383750D03*
X614000Y156250D03*
X614000Y17500D03*
X598750Y740000D03*
X598750Y551250D03*
X598750Y383750D03*
X598750Y156250D03*
X598750Y17500D03*
X170000Y741250D03*
X170000Y16250D03*
X170000Y413750D03*
X170000Y206250D03*
X170000Y575000D03*
X155000Y741250D03*
X155000Y16250D03*
X155000Y413750D03*
X155000Y206250D03*
X155000Y575000D03*
G54D43*
X828250Y559500D03*
X818250Y559500D03*
X808250Y559500D03*
X798250Y559500D03*
X808250Y529500D03*
X818250Y529500D03*
X828250Y529500D03*
X838250Y529500D03*
X848250Y529500D03*
X858250Y529500D03*
X868250Y529500D03*
X878250Y529500D03*
X888250Y529500D03*
X888250Y559500D03*
X878250Y559500D03*
X868250Y559500D03*
X858250Y559500D03*
X848250Y559500D03*
X838250Y559500D03*
M02*
