%FSLAX35Y35*%
%MOIN*%
%IN2 = Copper bottom L1   ( x.Bot )*%
%ADD10C,0.00591*%
%ADD11C,0.00768*%
%ADD12C,0.01181*%
%ADD13C,0.01575*%
%ADD14C,0.03200*%
%ADD15C,0.08000*%
%ADD16C,0.19685*%
%ADD17R,0.04724X0.07874*%
%AMOCT_18*4,1,8,0.037500,0.018750,0.018750,0.037500,-0.018750,0.037500,-0.037500,0.018750,-0.037500,-0.018750,-0.018750,-0.037500,0.018750,-0.037500,0.037500,-0.018750,0.037500,0.018750,0*%
%ADD18OCT_18*%
G54D14*
X31250Y98750D02*
X32015Y97984D01*
X32015Y89782D01*
X67500Y362500D02*
X67500Y284995D01*
X61310Y278806D01*
X67500Y362500D02*
X66884Y362485D01*
X61250Y278745D02*
X61250Y208750D01*
X61250Y278745D02*
X61310Y278806D01*
X61250Y278745D02*
X61310Y278806D01*
X61250Y208750D02*
X47500Y195000D01*
X47500Y185000D01*
X48750Y183750D01*
X48750Y108750D01*
X41250Y101250D01*
X51250Y91250D02*
X41250Y101250D01*
X51250Y91250D02*
X51100Y61300D01*
X50418Y350548D02*
X50418Y341638D01*
X57343Y334714D01*
X57343Y326549D01*
X47375Y322311D02*
X47375Y313852D01*
X54778Y306449D01*
X54778Y299251D01*
X42500Y266250D02*
X42500Y258750D01*
X50000Y251250D01*
X50000Y242500D01*
X40000Y238750D02*
X40000Y235000D01*
X47500Y227500D01*
X47500Y216250D01*
X30000Y172500D02*
X30000Y161250D01*
X37500Y153750D01*
X37500Y148750D01*
X26250Y143750D02*
X26250Y138750D01*
X35000Y130000D01*
X35000Y121250D01*
X21250Y87500D02*
X21250Y81250D01*
X30000Y72500D01*
X30000Y65000D01*
X18750Y60000D02*
X18750Y51250D01*
X27500Y42500D01*
X27500Y36250D01*
X43750Y295000D02*
X31250Y282500D01*
X31250Y208750D01*
X56250Y360000D02*
X60000Y356250D01*
X51250Y278750D02*
X52500Y277500D01*
X52500Y270000D01*
X36250Y182500D02*
X40000Y178750D01*
X40000Y176250D01*
X6500Y37600D02*
X15000Y37500D01*
X6250Y110000D02*
X6500Y37600D01*
X6250Y110000D02*
X15000Y118750D01*
X22500Y118750D01*
X15000Y193750D02*
X15000Y118750D01*
X35000Y213750D02*
X15000Y193750D01*
X6500Y37600D02*
X6500Y28700D01*
X15900Y19300D01*
X42700Y19300D02*
X15900Y19300D01*
X42700Y19300D02*
X50900Y27500D01*
X50900Y48600D01*
X146300Y362500D02*
X146300Y284995D01*
X140110Y278806D01*
X146300Y362500D02*
X145684Y362485D01*
X140050Y278745D02*
X140050Y208750D01*
X140050Y278745D02*
X140110Y278806D01*
X140050Y278745D02*
X140110Y278806D01*
X140050Y208750D02*
X126300Y195000D01*
X126300Y185000D01*
X127550Y183750D01*
X127550Y108750D01*
X120050Y101250D01*
X130050Y91250D02*
X120050Y101250D01*
X130050Y91250D02*
X129900Y61300D01*
X110050Y98750D02*
X110815Y97984D01*
X110815Y89782D01*
X129218Y350548D02*
X129218Y341638D01*
X136143Y334714D01*
X136143Y326549D01*
X126175Y322311D02*
X126175Y313852D01*
X133578Y306449D01*
X133578Y299251D01*
X121300Y266250D02*
X121300Y258750D01*
X128800Y251250D01*
X128800Y242500D01*
X118800Y238750D02*
X118800Y235000D01*
X126300Y227500D01*
X126300Y216250D01*
X108800Y172500D02*
X108800Y161250D01*
X116300Y153750D01*
X116300Y148750D01*
X105050Y143750D02*
X105050Y138750D01*
X113800Y130000D01*
X113800Y121250D01*
X100050Y87500D02*
X100050Y81250D01*
X108800Y72500D01*
X108800Y65000D01*
X97550Y60000D02*
X97550Y51250D01*
X106300Y42500D01*
X106300Y36250D01*
X122550Y295000D02*
X110050Y282500D01*
X110050Y208750D01*
X135050Y360000D02*
X138800Y356250D01*
X130050Y278750D02*
X131300Y277500D01*
X131300Y270000D01*
X115050Y182500D02*
X118800Y178750D01*
X118800Y176250D01*
X85300Y37600D02*
X93800Y37500D01*
X85050Y110000D02*
X85300Y37600D01*
X85050Y110000D02*
X93800Y118750D01*
X101300Y118750D01*
X93800Y193750D02*
X93800Y118750D01*
X113800Y213750D02*
X93800Y193750D01*
X85300Y37600D02*
X85300Y28700D01*
X94700Y19300D01*
X121500Y19300D02*
X94700Y19300D01*
X121500Y19300D02*
X129700Y27500D01*
X129700Y48600D01*
X382700Y362500D02*
X382700Y284995D01*
X376510Y278806D01*
X382700Y362500D02*
X382084Y362485D01*
X376450Y278745D02*
X376450Y208750D01*
X376450Y278745D02*
X376510Y278806D01*
X376450Y278745D02*
X376510Y278806D01*
X376450Y208750D02*
X362700Y195000D01*
X362700Y185000D01*
X363950Y183750D01*
X363950Y108750D01*
X356450Y101250D01*
X366450Y91250D02*
X356450Y101250D01*
X366450Y91250D02*
X366300Y61300D01*
X346450Y98750D02*
X347215Y97984D01*
X347215Y89782D01*
X365618Y350548D02*
X365618Y341638D01*
X372543Y334714D01*
X372543Y326549D01*
X362575Y322311D02*
X362575Y313852D01*
X369978Y306449D01*
X369978Y299251D01*
X357700Y266250D02*
X357700Y258750D01*
X365200Y251250D01*
X365200Y242500D01*
X355200Y238750D02*
X355200Y235000D01*
X362700Y227500D01*
X362700Y216250D01*
X345200Y172500D02*
X345200Y161250D01*
X352700Y153750D01*
X352700Y148750D01*
X341450Y143750D02*
X341450Y138750D01*
X350200Y130000D01*
X350200Y121250D01*
X336450Y87500D02*
X336450Y81250D01*
X345200Y72500D01*
X345200Y65000D01*
X333950Y60000D02*
X333950Y51250D01*
X342700Y42500D01*
X342700Y36250D01*
X358950Y295000D02*
X346450Y282500D01*
X346450Y208750D01*
X371450Y360000D02*
X375200Y356250D01*
X366450Y278750D02*
X367700Y277500D01*
X367700Y270000D01*
X351450Y182500D02*
X355200Y178750D01*
X355200Y176250D01*
X321700Y37600D02*
X330200Y37500D01*
X321450Y110000D02*
X321700Y37600D01*
X321450Y110000D02*
X330200Y118750D01*
X337700Y118750D01*
X330200Y193750D02*
X330200Y118750D01*
X350200Y213750D02*
X330200Y193750D01*
X321700Y37600D02*
X321700Y28700D01*
X331100Y19300D01*
X357900Y19300D02*
X331100Y19300D01*
X357900Y19300D02*
X366100Y27500D01*
X366100Y48600D01*
X267650Y98750D02*
X268415Y97984D01*
X268415Y89782D01*
X303900Y362500D02*
X303900Y284995D01*
X297710Y278806D01*
X303900Y362500D02*
X303284Y362485D01*
X297650Y278745D02*
X297650Y208750D01*
X297650Y278745D02*
X297710Y278806D01*
X297650Y278745D02*
X297710Y278806D01*
X297650Y208750D02*
X283900Y195000D01*
X283900Y185000D01*
X285150Y183750D01*
X285150Y108750D01*
X277650Y101250D01*
X287650Y91250D02*
X277650Y101250D01*
X287650Y91250D02*
X287500Y61300D01*
X225100Y362500D02*
X225100Y284995D01*
X218910Y278806D01*
X225100Y362500D02*
X224484Y362485D01*
X218850Y278745D02*
X218850Y208750D01*
X218850Y278745D02*
X218910Y278806D01*
X218850Y278745D02*
X218910Y278806D01*
X218850Y208750D02*
X205100Y195000D01*
X205100Y185000D01*
X206350Y183750D01*
X206350Y108750D01*
X198850Y101250D01*
X208850Y91250D02*
X198850Y101250D01*
X208850Y91250D02*
X208700Y61300D01*
X188850Y98750D02*
X189615Y97984D01*
X189615Y89782D01*
X208018Y350548D02*
X208018Y341638D01*
X214943Y334714D01*
X214943Y326549D01*
X204975Y322311D02*
X204975Y313852D01*
X212378Y306449D01*
X212378Y299251D01*
X200100Y266250D02*
X200100Y258750D01*
X207600Y251250D01*
X207600Y242500D01*
X197600Y238750D02*
X197600Y235000D01*
X205100Y227500D01*
X205100Y216250D01*
X187600Y172500D02*
X187600Y161250D01*
X195100Y153750D01*
X195100Y148750D01*
X183850Y143750D02*
X183850Y138750D01*
X192600Y130000D01*
X192600Y121250D01*
X178850Y87500D02*
X178850Y81250D01*
X187600Y72500D01*
X187600Y65000D01*
X176350Y60000D02*
X176350Y51250D01*
X185100Y42500D01*
X185100Y36250D01*
X201350Y295000D02*
X188850Y282500D01*
X188850Y208750D01*
X213850Y360000D02*
X217600Y356250D01*
X208850Y278750D02*
X210100Y277500D01*
X210100Y270000D01*
X193850Y182500D02*
X197600Y178750D01*
X197600Y176250D01*
X164100Y37600D02*
X172600Y37500D01*
X163850Y110000D02*
X164100Y37600D01*
X163850Y110000D02*
X172600Y118750D01*
X180100Y118750D01*
X172600Y193750D02*
X172600Y118750D01*
X192600Y213750D02*
X172600Y193750D01*
X164100Y37600D02*
X164100Y28700D01*
X173500Y19300D01*
X200300Y19300D02*
X173500Y19300D01*
X200300Y19300D02*
X208500Y27500D01*
X208500Y48600D01*
X286818Y350548D02*
X286818Y341638D01*
X293743Y334714D01*
X293743Y326549D01*
X283775Y322311D02*
X283775Y313852D01*
X291178Y306449D01*
X291178Y299251D01*
X278900Y266250D02*
X278900Y258750D01*
X286400Y251250D01*
X286400Y242500D01*
X276400Y238750D02*
X276400Y235000D01*
X283900Y227500D01*
X283900Y216250D01*
X266400Y172500D02*
X266400Y161250D01*
X273900Y153750D01*
X273900Y148750D01*
X262650Y143750D02*
X262650Y138750D01*
X271400Y130000D01*
X271400Y121250D01*
X257650Y87500D02*
X257650Y81250D01*
X266400Y72500D01*
X266400Y65000D01*
X255150Y60000D02*
X255150Y51250D01*
X263900Y42500D01*
X263900Y36250D01*
X280150Y295000D02*
X267650Y282500D01*
X267650Y208750D01*
X292650Y360000D02*
X296400Y356250D01*
X287650Y278750D02*
X288900Y277500D01*
X288900Y270000D01*
X272650Y182500D02*
X276400Y178750D01*
X276400Y176250D01*
X242900Y37600D02*
X251400Y37500D01*
X242650Y110000D02*
X242900Y37600D01*
X242650Y110000D02*
X251400Y118750D01*
X258900Y118750D01*
X251400Y193750D02*
X251400Y118750D01*
X271400Y213750D02*
X251400Y193750D01*
X242900Y37600D02*
X242900Y28700D01*
X252300Y19300D01*
X279100Y19300D02*
X252300Y19300D01*
X279100Y19300D02*
X287300Y27500D01*
X287300Y48600D01*
G54D15*
X51100Y48450D03*
X51250Y61250D03*
X129900Y48450D03*
X130050Y61250D03*
X366300Y48450D03*
X366450Y61250D03*
X208700Y48450D03*
X208850Y61250D03*
X287500Y48450D03*
X287650Y61250D03*
G54D16*
X17700Y357150D03*
X61550Y18400D03*
X96500Y357150D03*
X140350Y18400D03*
X332900Y357150D03*
X376750Y18400D03*
X175300Y357150D03*
X219150Y18400D03*
X254100Y357150D03*
X297950Y18400D03*
G54D17*
X34347Y184189D03*
X46347Y184189D03*
X28773Y100509D03*
X40773Y100509D03*
X49310Y278806D03*
X61310Y278806D03*
X54884Y362485D03*
X66884Y362485D03*
X133684Y362485D03*
X145684Y362485D03*
X128110Y278806D03*
X140110Y278806D03*
X107573Y100509D03*
X119573Y100509D03*
X113147Y184189D03*
X125147Y184189D03*
X370084Y362485D03*
X382084Y362485D03*
X364510Y278806D03*
X376510Y278806D03*
X343973Y100509D03*
X355973Y100509D03*
X349547Y184189D03*
X361547Y184189D03*
X270747Y184189D03*
X282747Y184189D03*
X265173Y100509D03*
X277173Y100509D03*
X285710Y278806D03*
X297710Y278806D03*
X291284Y362485D03*
X303284Y362485D03*
X212484Y362485D03*
X224484Y362485D03*
X206910Y278806D03*
X218910Y278806D03*
X186373Y100509D03*
X198373Y100509D03*
X191947Y184189D03*
X203947Y184189D03*
G54D18*
X29878Y174329D03*
X39878Y174329D03*
X26917Y146233D03*
X36917Y146233D03*
X24479Y118677D03*
X34479Y118677D03*
X22015Y89782D03*
X32015Y89782D03*
X19229Y62697D03*
X29229Y62697D03*
X17051Y35585D03*
X27051Y35585D03*
X37588Y213881D03*
X47588Y213881D03*
X39767Y240994D03*
X49767Y240994D03*
X42553Y268079D03*
X52553Y268079D03*
X45016Y296974D03*
X55016Y296974D03*
X47454Y324530D03*
X57454Y324530D03*
X50415Y352625D03*
X60415Y352625D03*
X129215Y352625D03*
X139215Y352625D03*
X126254Y324530D03*
X136254Y324530D03*
X123816Y296974D03*
X133816Y296974D03*
X121353Y268079D03*
X131353Y268079D03*
X118567Y240994D03*
X128567Y240994D03*
X116388Y213881D03*
X126388Y213881D03*
X95851Y35585D03*
X105851Y35585D03*
X98029Y62697D03*
X108029Y62697D03*
X100815Y89782D03*
X110815Y89782D03*
X103279Y118677D03*
X113279Y118677D03*
X105717Y146233D03*
X115717Y146233D03*
X108678Y174329D03*
X118678Y174329D03*
X365615Y352625D03*
X375615Y352625D03*
X362654Y324530D03*
X372654Y324530D03*
X360216Y296974D03*
X370216Y296974D03*
X357753Y268079D03*
X367753Y268079D03*
X354967Y240994D03*
X364967Y240994D03*
X352788Y213881D03*
X362788Y213881D03*
X332251Y35585D03*
X342251Y35585D03*
X334429Y62697D03*
X344429Y62697D03*
X337215Y89782D03*
X347215Y89782D03*
X339679Y118677D03*
X349679Y118677D03*
X342117Y146233D03*
X352117Y146233D03*
X345078Y174329D03*
X355078Y174329D03*
X266278Y174329D03*
X276278Y174329D03*
X263317Y146233D03*
X273317Y146233D03*
X260879Y118677D03*
X270879Y118677D03*
X258415Y89782D03*
X268415Y89782D03*
X255629Y62697D03*
X265629Y62697D03*
X253451Y35585D03*
X263451Y35585D03*
X273988Y213881D03*
X283988Y213881D03*
X276167Y240994D03*
X286167Y240994D03*
X278953Y268079D03*
X288953Y268079D03*
X281416Y296974D03*
X291416Y296974D03*
X283854Y324530D03*
X293854Y324530D03*
X286815Y352625D03*
X296815Y352625D03*
X208015Y352625D03*
X218015Y352625D03*
X205054Y324530D03*
X215054Y324530D03*
X202616Y296974D03*
X212616Y296974D03*
X200153Y268079D03*
X210153Y268079D03*
X197367Y240994D03*
X207367Y240994D03*
X195188Y213881D03*
X205188Y213881D03*
X174651Y35585D03*
X184651Y35585D03*
X176829Y62697D03*
X186829Y62697D03*
X179615Y89782D03*
X189615Y89782D03*
X182079Y118677D03*
X192079Y118677D03*
X184517Y146233D03*
X194517Y146233D03*
X187478Y174329D03*
X197478Y174329D03*
M02*
