%FSLAX35Y35*%
%MOIN*%
%IN2 = Copper bottom L1   ( x.Bot )*%
%ADD10C,0.00591*%
%ADD11C,0.00650*%
%ADD12C,0.00750*%
%ADD13C,0.00768*%
%ADD14C,0.00787*%
%ADD15C,0.00845*%
%ADD16C,0.01024*%
%ADD17C,0.01040*%
%ADD18C,0.01100*%
%ADD19C,0.01181*%
%ADD20C,0.01575*%
%ADD21C,0.02000*%
%ADD22C,0.02300*%
%ADD23C,0.02362*%
%ADD24C,0.02500*%
%ADD25C,0.03000*%
%ADD26C,0.03150*%
%ADD27C,0.03937*%
%ADD28C,0.04000*%
%ADD29C,0.05000*%
%ADD30C,0.07500*%
%ADD31C,0.08000*%
%ADD32C,0.19685*%
%ADD33R,0.03937X0.04921*%
%ADD34R,0.04500X0.04500*%
%ADD35R,0.05000X0.07000*%
%ADD36R,0.05000X0.08000*%
%ADD37R,0.05500X0.07000*%
%ADD38R,0.07000X0.05500*%
%ADD39R,0.07300X0.10000*%
%ADD40R,0.07874X0.09843*%
%ADD41R,0.09000X0.05300*%
%ADD42R,0.09843X0.05500*%
%ADD43R,0.10000X0.05000*%
%ADD44R,0.10000X0.08000*%
%AMOCT_45*4,1,8,0.033465,0.016732,0.016732,0.033465,-0.016732,0.033465,-0.033465,0.016732,-0.033465,-0.016732,-0.016732,-0.033465,0.016732,-0.033465,0.033465,-0.016732,0.033465,0.016732,0*%
%ADD45OCT_45*%
%AMOCT_46*4,1,8,0.035433,0.017717,0.017717,0.035433,-0.017717,0.035433,-0.035433,0.017717,-0.035433,-0.017717,-0.017717,-0.035433,0.017717,-0.035433,0.035433,-0.017717,0.035433,0.017717,0*%
%ADD46OCT_46*%
%AMOCT_47*4,1,8,0.036500,0.031750,0.018250,0.050000,-0.018250,0.050000,-0.036500,0.031750,-0.036500,-0.031750,-0.018250,-0.050000,0.018250,-0.050000,0.036500,-0.031750,0.036500,0.031750,0*%
%ADD47OCT_47*%
%AMOCT_48*4,1,8,0.037500,0.017717,0.019783,0.035433,-0.019783,0.035433,-0.037500,0.017717,-0.037500,-0.017717,-0.019783,-0.035433,0.019783,-0.035433,0.037500,-0.017717,0.037500,0.017717,0*%
%ADD48OCT_48*%
%AMOCT_49*4,1,8,0.040000,0.020000,0.020000,0.040000,-0.020000,0.040000,-0.040000,0.020000,-0.040000,-0.020000,-0.020000,-0.040000,0.020000,-0.040000,0.040000,-0.020000,0.040000,0.020000,0*%
%ADD49OCT_49*%
%AMOCT_50*4,1,8,0.045000,0.018000,0.027000,0.036000,-0.027000,0.036000,-0.045000,0.018000,-0.045000,-0.018000,-0.027000,-0.036000,0.027000,-0.036000,0.045000,-0.018000,0.045000,0.018000,0*%
%ADD50OCT_50*%
%AMOCT_51*4,1,8,0.050000,0.020000,0.030000,0.040000,-0.030000,0.040000,-0.050000,0.020000,-0.050000,-0.020000,-0.030000,-0.040000,0.030000,-0.040000,0.050000,-0.020000,0.050000,0.020000,0*%
%ADD51OCT_51*%
%AMOCT_52*4,1,8,0.060000,0.018250,0.041750,0.036500,-0.041750,0.036500,-0.060000,0.018250,-0.060000,-0.018250,-0.041750,-0.036500,0.041750,-0.036500,0.060000,-0.018250,0.060000,0.018250,0*%
%ADD52OCT_52*%
G54D10*
X78292Y32904D02*
X79894Y31302D01*
X80000Y31258D01*
X80105Y31302D01*
X80149Y31408D01*
X80105Y31513D01*
X78503Y33115D01*
X78398Y33159D01*
X78292Y33115D01*
X78248Y33010D01*
X78292Y32904D01*
X79386Y31809D02*
X79810Y31809D01*
X78835Y32360D02*
X79259Y32360D01*
X78288Y32911D02*
X78707Y32911D01*
X78547Y25000D02*
X78547Y33010D01*
X78503Y33115D01*
X78398Y33159D01*
X78292Y33115D01*
X78248Y33010D01*
X78248Y25000D01*
X78292Y24894D01*
X78398Y24850D01*
X78503Y24894D01*
X78547Y25000D01*
X78248Y25401D02*
X78547Y25401D01*
X78248Y25952D02*
X78547Y25952D01*
X78248Y26503D02*
X78547Y26503D01*
X78248Y27055D02*
X78547Y27055D01*
X78248Y27606D02*
X78547Y27606D01*
X78248Y28157D02*
X78547Y28157D01*
X78248Y28708D02*
X78547Y28708D01*
X78248Y29259D02*
X78547Y29259D01*
X78248Y29810D02*
X78547Y29810D01*
X78248Y30362D02*
X78547Y30362D01*
X78248Y30913D02*
X78547Y30913D01*
X78248Y31464D02*
X78547Y31464D01*
X78248Y32015D02*
X78547Y32015D01*
X78248Y32566D02*
X78547Y32566D01*
X78297Y33117D02*
X78498Y33117D01*
X176417Y41029D02*
X178019Y39427D01*
X178125Y39383D01*
X178230Y39427D01*
X178274Y39533D01*
X178230Y39638D01*
X176628Y41240D01*
X176523Y41284D01*
X176417Y41240D01*
X176373Y41135D01*
X176417Y41029D01*
X177511Y39934D02*
X177935Y39934D01*
X176960Y40485D02*
X177384Y40485D01*
X176413Y41036D02*
X176832Y41036D01*
X176672Y33125D02*
X176672Y41135D01*
X176628Y41240D01*
X176523Y41284D01*
X176417Y41240D01*
X176373Y41135D01*
X176373Y33125D01*
X176417Y33019D01*
X176523Y32975D01*
X176628Y33019D01*
X176672Y33125D01*
X176373Y33526D02*
X176672Y33526D01*
X176373Y34077D02*
X176672Y34077D01*
X176373Y34628D02*
X176672Y34628D01*
X176373Y35180D02*
X176672Y35180D01*
X176373Y35731D02*
X176672Y35731D01*
X176373Y36282D02*
X176672Y36282D01*
X176373Y36833D02*
X176672Y36833D01*
X176373Y37384D02*
X176672Y37384D01*
X176373Y37935D02*
X176672Y37935D01*
X176373Y38487D02*
X176672Y38487D01*
X176373Y39038D02*
X176672Y39038D01*
X176373Y39589D02*
X176672Y39589D01*
X176373Y40140D02*
X176672Y40140D01*
X176373Y40691D02*
X176672Y40691D01*
X176422Y41242D02*
X176623Y41242D01*
X174474Y40116D02*
X174596Y39503D01*
X174659Y39408D01*
X174772Y39386D01*
X174867Y39449D01*
X174889Y39562D01*
X174767Y40175D01*
X174704Y40270D01*
X174591Y40292D01*
X174496Y40229D01*
X174474Y40116D01*
X174509Y39937D02*
X174815Y39937D01*
X174149Y40582D02*
X174496Y40062D01*
X174591Y39999D01*
X174704Y40021D01*
X174767Y40116D01*
X174745Y40229D01*
X174398Y40748D01*
X174302Y40812D01*
X174190Y40790D01*
X174126Y40694D01*
X174149Y40582D01*
X174170Y40550D02*
X174530Y40550D01*
X173670Y40888D02*
X174190Y40541D01*
X174302Y40518D01*
X174398Y40582D01*
X174420Y40694D01*
X174356Y40790D01*
X173837Y41137D01*
X173724Y41159D01*
X173629Y41096D01*
X173607Y40983D01*
X173670Y40888D01*
X173624Y41070D02*
X173938Y41070D01*
X173111Y40988D02*
X173724Y40866D01*
X173837Y40888D01*
X173900Y40983D01*
X173878Y41096D01*
X173783Y41159D01*
X173170Y41281D01*
X173057Y41259D01*
X172994Y41164D01*
X173016Y41051D01*
X173111Y40988D01*
X172557Y40866D02*
X173170Y40988D01*
X173265Y41051D01*
X173287Y41164D01*
X173224Y41259D01*
X173111Y41281D01*
X172498Y41159D01*
X172403Y41096D01*
X172381Y40983D01*
X172444Y40888D01*
X172557Y40866D01*
X172091Y40541D02*
X172611Y40888D01*
X172674Y40983D01*
X172652Y41096D01*
X172557Y41159D01*
X172444Y41137D01*
X171925Y40790D01*
X171861Y40694D01*
X171883Y40582D01*
X171979Y40518D01*
X172091Y40541D01*
X172343Y41070D02*
X172657Y41070D01*
X171785Y40062D02*
X172132Y40582D01*
X172155Y40694D01*
X172091Y40790D01*
X171979Y40812D01*
X171883Y40748D01*
X171536Y40229D01*
X171514Y40116D01*
X171577Y40021D01*
X171690Y39999D01*
X171785Y40062D01*
X171751Y40550D02*
X172111Y40550D01*
X171685Y39503D02*
X171807Y40116D01*
X171785Y40229D01*
X171690Y40292D01*
X171577Y40270D01*
X171514Y40175D01*
X171392Y39562D01*
X171414Y39449D01*
X171509Y39386D01*
X171622Y39408D01*
X171685Y39503D01*
X171466Y39937D02*
X171772Y39937D01*
X174892Y34727D02*
X174892Y39533D01*
X174848Y39638D01*
X174743Y39682D01*
X174637Y39638D01*
X174593Y39533D01*
X174593Y34727D01*
X174637Y34621D01*
X174743Y34577D01*
X174848Y34621D01*
X174892Y34727D01*
X174593Y35128D02*
X174892Y35128D01*
X174593Y35679D02*
X174892Y35679D01*
X174593Y36230D02*
X174892Y36230D01*
X174593Y36782D02*
X174892Y36782D01*
X174593Y37333D02*
X174892Y37333D01*
X174593Y37884D02*
X174892Y37884D01*
X174593Y38435D02*
X174892Y38435D01*
X174593Y38986D02*
X174892Y38986D01*
X174595Y39537D02*
X174890Y39537D01*
X171807Y34143D02*
X171685Y34756D01*
X171622Y34851D01*
X171509Y34873D01*
X171414Y34810D01*
X171392Y34697D01*
X171514Y34084D01*
X171577Y33989D01*
X171690Y33967D01*
X171785Y34030D01*
X171807Y34143D01*
X171427Y34518D02*
X171733Y34518D01*
X172132Y33677D02*
X171785Y34197D01*
X171690Y34260D01*
X171577Y34238D01*
X171514Y34143D01*
X171536Y34030D01*
X171883Y33511D01*
X171979Y33447D01*
X172091Y33469D01*
X172155Y33565D01*
X172132Y33677D01*
X171557Y33998D02*
X171918Y33998D01*
X172611Y33371D02*
X172091Y33718D01*
X171979Y33741D01*
X171883Y33677D01*
X171861Y33565D01*
X171925Y33469D01*
X172444Y33122D01*
X172557Y33100D01*
X172652Y33163D01*
X172674Y33276D01*
X172611Y33371D01*
X171878Y33651D02*
X172192Y33651D01*
X173170Y33271D02*
X172557Y33393D01*
X172444Y33371D01*
X172381Y33276D01*
X172403Y33163D01*
X172498Y33100D01*
X173111Y32978D01*
X173224Y33000D01*
X173287Y33095D01*
X173265Y33208D01*
X173170Y33271D01*
X173724Y33393D02*
X173111Y33271D01*
X173016Y33208D01*
X172994Y33095D01*
X173057Y33000D01*
X173170Y32978D01*
X173783Y33100D01*
X173878Y33163D01*
X173900Y33276D01*
X173837Y33371D01*
X173724Y33393D01*
X174190Y33718D02*
X173670Y33371D01*
X173607Y33276D01*
X173629Y33163D01*
X173724Y33100D01*
X173837Y33122D01*
X174356Y33469D01*
X174420Y33565D01*
X174398Y33677D01*
X174302Y33741D01*
X174190Y33718D01*
X174089Y33651D02*
X174403Y33651D01*
X174496Y34197D02*
X174149Y33677D01*
X174126Y33565D01*
X174190Y33469D01*
X174302Y33447D01*
X174398Y33511D01*
X174745Y34030D01*
X174767Y34143D01*
X174704Y34238D01*
X174591Y34260D01*
X174496Y34197D01*
X174363Y33998D02*
X174724Y33998D01*
X174596Y34756D02*
X174474Y34143D01*
X174496Y34030D01*
X174591Y33967D01*
X174704Y33989D01*
X174767Y34084D01*
X174889Y34697D01*
X174867Y34810D01*
X174772Y34873D01*
X174659Y34851D01*
X174596Y34756D01*
X174548Y34518D02*
X174854Y34518D01*
X171389Y36329D02*
X171389Y34727D01*
X171433Y34621D01*
X171539Y34577D01*
X171644Y34621D01*
X171688Y34727D01*
X171688Y36329D01*
X171644Y36434D01*
X171539Y36478D01*
X171433Y36434D01*
X171389Y36329D01*
X171389Y35128D02*
X171688Y35128D01*
X171389Y35679D02*
X171688Y35679D01*
X171389Y36230D02*
X171688Y36230D01*
X174474Y36912D02*
X174596Y36299D01*
X174659Y36204D01*
X174772Y36182D01*
X174867Y36245D01*
X174889Y36358D01*
X174767Y36971D01*
X174704Y37066D01*
X174591Y37088D01*
X174496Y37025D01*
X174474Y36912D01*
X174509Y36733D02*
X174815Y36733D01*
X174149Y37378D02*
X174496Y36858D01*
X174591Y36795D01*
X174704Y36817D01*
X174767Y36912D01*
X174745Y37025D01*
X174398Y37544D01*
X174302Y37608D01*
X174190Y37586D01*
X174126Y37490D01*
X174149Y37378D01*
X174170Y37346D02*
X174530Y37346D01*
X173670Y37684D02*
X174190Y37337D01*
X174302Y37314D01*
X174398Y37378D01*
X174420Y37490D01*
X174356Y37586D01*
X173837Y37933D01*
X173724Y37955D01*
X173629Y37892D01*
X173607Y37779D01*
X173670Y37684D01*
X173624Y37866D02*
X173938Y37866D01*
X173111Y37784D02*
X173724Y37662D01*
X173837Y37684D01*
X173900Y37779D01*
X173878Y37892D01*
X173783Y37955D01*
X173170Y38077D01*
X173057Y38055D01*
X172994Y37960D01*
X173016Y37847D01*
X173111Y37784D01*
X172557Y37662D02*
X173170Y37784D01*
X173265Y37847D01*
X173287Y37960D01*
X173224Y38055D01*
X173111Y38077D01*
X172498Y37955D01*
X172403Y37892D01*
X172381Y37779D01*
X172444Y37684D01*
X172557Y37662D01*
X172091Y37337D02*
X172611Y37684D01*
X172674Y37779D01*
X172652Y37892D01*
X172557Y37955D01*
X172444Y37933D01*
X171925Y37586D01*
X171861Y37490D01*
X171883Y37378D01*
X171979Y37314D01*
X172091Y37337D01*
X172343Y37866D02*
X172657Y37866D01*
X171785Y36858D02*
X172132Y37378D01*
X172155Y37490D01*
X172091Y37586D01*
X171979Y37608D01*
X171883Y37544D01*
X171536Y37025D01*
X171514Y36912D01*
X171577Y36817D01*
X171690Y36795D01*
X171785Y36858D01*
X171751Y37346D02*
X172111Y37346D01*
X171685Y36299D02*
X171807Y36912D01*
X171785Y37025D01*
X171690Y37088D01*
X171577Y37066D01*
X171514Y36971D01*
X171392Y36358D01*
X171414Y36245D01*
X171509Y36182D01*
X171622Y36204D01*
X171685Y36299D01*
X171466Y36733D02*
X171772Y36733D01*
G54D21*
X124550Y200000D02*
X123750Y200000D01*
X203740Y201250D02*
X220000Y201250D01*
X203740Y201250D02*
X203740Y201535D01*
X36250Y122780D02*
X36250Y130625D01*
X36875Y130625D01*
X36875Y132500D01*
X137950Y200000D02*
X133750Y202500D01*
X209375Y131875D02*
X209375Y166250D01*
X35625Y92500D02*
X35625Y93125D01*
X26250Y93125D01*
X209375Y166250D02*
X205625Y169094D01*
X190000Y180344D02*
X190000Y181250D01*
X180000Y181250D01*
X36250Y110969D02*
X36250Y102500D01*
X35625Y102500D01*
X211250Y193464D02*
X200000Y193464D01*
X211250Y193464D02*
X211250Y193750D01*
X211250Y183750D02*
X205000Y183750D01*
X205625Y180905D01*
X190000Y192155D02*
X190000Y201535D01*
X196259Y201535D01*
X113750Y162500D02*
X123750Y162500D01*
X113750Y200000D02*
X113750Y217500D01*
X86250Y91875D02*
X133125Y91875D01*
X133125Y152500D01*
X153750Y152500D01*
X153750Y142500D02*
X138750Y142500D01*
X138750Y86250D02*
X138750Y142500D01*
X138750Y86250D02*
X93750Y86250D01*
X103750Y80000D02*
X144375Y80000D01*
X144375Y132500D01*
X153750Y74375D02*
X123750Y74375D01*
X123750Y37500D01*
G54D22*
X230625Y70000D02*
X196875Y70000D01*
X230625Y90000D02*
X275000Y90000D01*
G54D24*
X123750Y217500D02*
X123750Y200000D01*
X123750Y192500D01*
X220000Y170000D02*
X220000Y183750D01*
X275000Y170625D02*
X257500Y170625D01*
X257500Y183750D01*
X221875Y45000D02*
X231250Y45000D01*
X231250Y30000D01*
X283125Y30000D01*
X303125Y50000D01*
X303125Y84375D02*
X293750Y84375D01*
X303125Y50000D02*
X303125Y84375D01*
X308125Y47500D02*
X278750Y18125D01*
X216875Y18125D01*
X202500Y32500D02*
X202500Y65000D01*
X221875Y65000D01*
X293750Y94375D02*
X308125Y94375D01*
X308125Y47500D02*
X308125Y94375D01*
X202500Y32500D02*
X216875Y18125D01*
X230625Y55000D02*
X230625Y70000D01*
X196875Y30625D02*
X214375Y13125D01*
X281250Y13125D01*
X313750Y45625D02*
X313750Y104375D01*
X230625Y55000D02*
X221875Y55000D01*
X313750Y104375D02*
X293750Y104375D01*
X313750Y45625D02*
X281250Y13125D01*
X196875Y30625D02*
X196875Y70000D01*
X78925Y178125D02*
X73125Y178125D01*
X73125Y206250D01*
X75000Y227500D02*
X75000Y235625D01*
X184719Y89375D02*
X181875Y89375D01*
X181875Y100000D01*
X181875Y108750D02*
X184719Y108750D01*
X181875Y100000D02*
X181875Y108750D01*
X183750Y100000D02*
X181875Y100000D01*
X73125Y206250D02*
X75000Y206875D01*
X252500Y115000D02*
X251875Y115000D01*
X153750Y192500D02*
X143750Y192500D01*
X275000Y160625D02*
X275000Y161250D01*
X248750Y161250D01*
X251875Y95000D02*
X268750Y95000D01*
X268750Y140625D01*
X275000Y140625D01*
X251875Y105000D02*
X262500Y105000D01*
X262500Y150625D01*
X275000Y150625D01*
X230625Y85000D02*
X221875Y85000D01*
X275000Y180625D02*
X284375Y180625D01*
X284375Y128125D01*
X230625Y85000D02*
X230625Y90000D01*
X275000Y128125D02*
X275000Y90000D01*
X275000Y128125D02*
X284375Y128125D01*
X203750Y89375D02*
X209375Y95000D01*
X221875Y95000D01*
X196530Y89375D02*
X203750Y89375D01*
X203750Y109375D02*
X208125Y105000D01*
X221875Y105000D01*
X203750Y109375D02*
X203125Y108750D01*
X196530Y108750D01*
X162500Y112500D02*
X162500Y154375D01*
X180000Y170000D02*
X190000Y170000D01*
X200800Y211250D02*
X190000Y211250D01*
X180000Y201250D02*
X180000Y181250D01*
X180000Y170000D01*
X180000Y201250D02*
X190000Y211250D01*
X162500Y112500D02*
X153750Y112500D01*
X162500Y154375D02*
X180000Y154375D01*
X162500Y112500D02*
X153750Y112500D01*
X180000Y154375D02*
X180000Y170000D01*
X219375Y25000D02*
X210625Y33750D01*
X210625Y58750D01*
X162625Y58625D02*
X162500Y112500D01*
X219375Y25000D02*
X221875Y25000D01*
X220000Y150000D02*
X231250Y149375D01*
X220000Y160000D02*
X231250Y159375D01*
X190000Y155000D02*
X200625Y155000D01*
X200800Y143750D01*
X190000Y155000D02*
X190000Y160000D01*
X190000Y155000D02*
X190000Y150000D01*
X190000Y160000D02*
X190000Y155000D01*
X200625Y155000D01*
X190000Y155000D02*
X190000Y150000D01*
X200800Y143750D02*
X200800Y154825D01*
X200625Y155000D01*
X200800Y154825D02*
X200625Y155000D01*
X200800Y154825D02*
X200625Y155000D01*
X200800Y154825D02*
X200625Y155000D01*
X200800Y154825D02*
X200625Y155000D01*
X200800Y154825D02*
X200625Y155000D01*
X200800Y154825D02*
X200625Y155000D01*
X200800Y154825D01*
X200625Y155000D02*
X200800Y154825D01*
X200625Y155000D02*
X200800Y154825D01*
X200625Y155000D02*
X200800Y154825D01*
X123750Y102500D02*
X76250Y102500D01*
X76250Y66250D02*
X76250Y102500D01*
X151250Y66250D02*
X133750Y66250D01*
X171250Y140000D02*
X190000Y140000D01*
X171250Y51250D02*
X171250Y140000D01*
X151250Y51250D02*
X171250Y51250D01*
X151250Y66250D02*
X151250Y51250D01*
X71250Y122500D02*
X123750Y122500D01*
X71250Y122500D02*
X71250Y121250D01*
X143750Y220000D02*
X143750Y217500D01*
X153750Y182500D02*
X161250Y182500D01*
X166250Y187500D01*
X166250Y197500D01*
X163750Y200000D01*
X151250Y200000D01*
X143750Y207500D01*
X143750Y220000D01*
X166875Y172500D02*
X153750Y172500D01*
X173125Y178750D02*
X166875Y172500D01*
X173125Y178750D02*
X173125Y203125D01*
X168750Y207500D01*
X153750Y217500D02*
X153750Y207500D01*
X168750Y207500D01*
X86250Y27500D02*
X93750Y27500D01*
X86250Y27500D02*
X86250Y91875D01*
X93750Y86250D02*
X93750Y37500D01*
X103750Y80000D02*
X103750Y37500D01*
X144375Y132500D02*
X153750Y132500D01*
X153750Y74375D02*
X153750Y102500D01*
X133750Y46250D02*
X133750Y37500D01*
X61250Y46250D02*
X76250Y46250D01*
X61250Y46250D02*
X61250Y123750D01*
X70000Y132500D02*
X123750Y132500D01*
X70000Y132500D02*
X61250Y123750D01*
X68750Y112500D02*
X123750Y112500D01*
X68750Y112500D02*
X68750Y56250D01*
X143750Y56250D02*
X143750Y37500D01*
X76250Y56250D02*
X68750Y56250D01*
X133750Y56250D02*
X143750Y56250D01*
X98750Y168125D02*
X103125Y172500D01*
X123750Y172500D01*
X92325Y168125D02*
X98750Y168125D01*
X98750Y188125D02*
X104375Y182500D01*
X123750Y182500D01*
X92325Y188125D02*
X98750Y188125D01*
G54D25*
X245187Y75000D02*
X251875Y75000D01*
X265482Y75000D01*
X265482Y79375D01*
X293750Y74375D02*
X287017Y74375D01*
X282017Y79375D01*
X251875Y65000D02*
X251875Y64375D01*
X245187Y65000D02*
X251875Y65000D01*
X265482Y65000D01*
X265482Y61875D01*
X293750Y64375D02*
X284517Y64375D01*
X282017Y61875D01*
X214200Y211250D02*
X220000Y211250D01*
X220000Y183750D02*
X220000Y170000D01*
X237312Y55000D02*
X237312Y65000D01*
X237312Y75000D01*
X237312Y98125D02*
X240000Y98125D01*
X240000Y116875D01*
X237312Y75000D02*
X237312Y83125D01*
X245187Y55000D02*
X251875Y55000D01*
X256250Y55000D01*
X265482Y45767D01*
X265482Y43750D01*
X282017Y43750D02*
X283125Y43750D01*
X293750Y54375D01*
X153750Y192500D02*
X143750Y192500D01*
X133750Y202500D01*
X153750Y27500D02*
X163750Y27500D01*
X158750Y27500D02*
X163750Y27500D01*
X220000Y131875D02*
X209375Y131875D01*
X78925Y188125D02*
X78925Y178125D01*
X133750Y202500D02*
X133750Y217500D01*
X78925Y178125D02*
X78925Y168125D01*
X133750Y235625D02*
X214375Y235625D01*
X248750Y131875D02*
X220000Y131875D01*
X220000Y140000D01*
X248750Y201250D02*
X248750Y161250D01*
X248750Y131875D01*
X214375Y235625D02*
X248750Y201250D01*
X51875Y121250D02*
X51875Y41875D01*
X57500Y41875D01*
X57500Y31875D01*
G54D28*
X123750Y217500D02*
X123750Y228125D01*
X221875Y115000D02*
X233125Y115000D01*
X240000Y139375D02*
X240000Y183750D01*
X239375Y115000D02*
X240000Y116875D01*
X233125Y112844D02*
X233125Y115000D01*
X239375Y115000D01*
X240000Y183750D02*
X220000Y183750D01*
X158750Y15000D02*
X58750Y15000D01*
X158750Y27500D02*
X158750Y15000D01*
X47500Y26250D02*
X58750Y15000D01*
X133750Y217500D02*
X133750Y235625D01*
X75000Y235625D01*
X26250Y47500D02*
X26250Y93125D01*
X26250Y47500D02*
X58750Y15000D01*
X36875Y140625D02*
X36875Y142500D01*
X36875Y140625D02*
X38750Y140625D01*
X18750Y148750D02*
X18750Y45625D01*
X58125Y6250D01*
X188125Y6250D02*
X191875Y10000D01*
X183750Y29375D02*
X183750Y100000D01*
X183750Y124375D02*
X183750Y100000D01*
X47500Y26250D02*
X47500Y31875D01*
X75000Y235625D02*
X71250Y235625D01*
X233125Y124655D02*
X252500Y124655D01*
X26250Y93125D02*
X26250Y145625D01*
X30625Y150000D02*
X45625Y150000D01*
X56875Y144375D01*
X18750Y148750D02*
X26875Y156875D01*
X47500Y156875D02*
X56875Y144375D01*
X71250Y235625D02*
X53125Y217500D01*
X53125Y159375D01*
X56875Y144375D01*
X252500Y115000D02*
X252500Y124655D01*
X232780Y124375D02*
X183750Y124375D01*
X293750Y114375D02*
X320000Y114375D01*
X320000Y42500D01*
X283750Y6250D02*
X209375Y6250D01*
X200625Y15000D01*
X158750Y15000D02*
X182500Y15000D01*
X191875Y21250D02*
X191875Y10000D01*
X191875Y21250D02*
X183750Y29375D01*
X320000Y42500D02*
X283750Y6250D01*
X188125Y6250D02*
X58125Y6250D01*
X30625Y150000D02*
X26250Y145625D01*
X26875Y156875D02*
X47500Y156875D01*
G54D29*
X123750Y228125D02*
X85625Y228125D01*
X220000Y218125D02*
X220000Y211250D01*
X144375Y228125D02*
X210000Y228125D01*
X220000Y211250D02*
X220000Y201250D01*
X220000Y183750D01*
X70000Y216875D02*
X85625Y216875D01*
X85625Y228125D01*
X36875Y130625D02*
X57500Y130625D01*
X66875Y140000D01*
X66875Y144375D01*
X66875Y160000D01*
X64375Y160000D01*
X64375Y211250D01*
X220000Y218125D02*
X210000Y228125D01*
X70000Y216875D02*
X64375Y211250D01*
X36875Y140625D02*
X53125Y140625D01*
X56875Y144375D01*
G54D30*
X123750Y228125D03*
X144375Y228125D03*
X240000Y116875D03*
X240000Y139375D03*
X75000Y206875D03*
X75000Y227500D03*
X76250Y66250D03*
X133750Y66250D03*
X51875Y121250D03*
X71250Y121250D03*
X113750Y162500D03*
X113750Y200000D03*
X76250Y46250D03*
X133750Y46250D03*
X76250Y56250D03*
X133750Y56250D03*
X236875Y83125D03*
X236875Y98125D03*
G54D31*
X293750Y54375D03*
X293750Y64375D03*
X293750Y74375D03*
X293750Y84375D03*
X293750Y94375D03*
X293750Y104375D03*
X293750Y114375D03*
X113750Y217500D03*
X123750Y217500D03*
X133750Y217500D03*
X143750Y217500D03*
X153750Y217500D03*
X93750Y27500D03*
X93750Y37500D03*
X103750Y27500D03*
X103750Y37500D03*
X113750Y27500D03*
X113750Y37500D03*
X123750Y27500D03*
X123750Y37500D03*
X133750Y27500D03*
X133750Y37500D03*
X143750Y27500D03*
X143750Y37500D03*
X153750Y27500D03*
X153750Y37500D03*
X163750Y27500D03*
X163750Y37500D03*
X257500Y183750D03*
X240000Y183750D03*
X200625Y15000D03*
X182500Y15000D03*
X162625Y58625D03*
X210625Y58750D03*
G54D32*
X318125Y218125D03*
X323125Y20625D03*
X20625Y20625D03*
X20625Y220625D03*
G54D33*
X237312Y55000D03*
X245187Y55000D03*
X237312Y65000D03*
X245187Y65000D03*
X237312Y75000D03*
X245187Y75000D03*
G54D34*
X196259Y201535D03*
X203740Y201535D03*
X200000Y193464D03*
G54D35*
X200800Y143750D03*
X209200Y143750D03*
X137950Y200000D03*
X124550Y200000D03*
X92325Y168125D03*
X78925Y168125D03*
X92325Y188125D03*
X78925Y188125D03*
G54D36*
X214200Y211250D03*
X200800Y211250D03*
G54D37*
X196530Y89375D03*
X184719Y89375D03*
X196530Y108750D03*
X184719Y108750D03*
G54D38*
X233125Y124655D03*
X233125Y112844D03*
X36250Y122780D03*
X36250Y110969D03*
X205625Y180905D03*
X205625Y169094D03*
X190000Y192155D03*
X190000Y180344D03*
G54D39*
X47500Y31875D03*
G54D40*
X265482Y79375D03*
X282017Y79375D03*
X265482Y61875D03*
X282017Y61875D03*
X265482Y43750D03*
X282017Y43750D03*
G54D41*
X221875Y115000D03*
X221875Y95000D03*
X221875Y85000D03*
X221875Y75000D03*
X221875Y65000D03*
X221875Y55000D03*
X221875Y45000D03*
X221875Y35000D03*
X221875Y25000D03*
X251875Y25000D03*
X251875Y35000D03*
X251875Y45000D03*
X251875Y55000D03*
X251875Y65000D03*
X251875Y75000D03*
X251875Y85000D03*
X251875Y95000D03*
X251875Y105000D03*
X251875Y115000D03*
X221875Y105000D03*
G54D42*
X153750Y162500D03*
X153750Y172500D03*
X153750Y182500D03*
X153750Y192500D03*
X123750Y192500D03*
X123750Y182500D03*
X123750Y172500D03*
X123750Y162500D03*
X123750Y152500D03*
X123750Y142500D03*
X123750Y132500D03*
X123750Y122500D03*
X123750Y112500D03*
X123750Y102500D03*
X153750Y102500D03*
X153750Y112500D03*
X153750Y122500D03*
X153750Y132500D03*
X153750Y142500D03*
X153750Y152500D03*
G54D43*
X190000Y170000D03*
X190000Y160000D03*
X190000Y150000D03*
X190000Y140000D03*
X220000Y140000D03*
X220000Y150000D03*
X220000Y160000D03*
X220000Y170000D03*
G54D44*
X231250Y149375D03*
G54D45*
X98750Y168125D03*
X98750Y188125D03*
G54D46*
X66875Y144375D03*
X56875Y144375D03*
X211250Y193750D03*
X211250Y183750D03*
G54D47*
X57500Y31875D03*
G54D48*
X35625Y102500D03*
X35625Y92500D03*
G54D49*
X203750Y89375D03*
X203750Y109375D03*
G54D50*
X275000Y140625D03*
X275000Y150625D03*
X275000Y160625D03*
X275000Y170625D03*
X275000Y180625D03*
G54D51*
X231250Y159375D03*
G54D52*
X36875Y140625D03*
X36875Y130625D03*
G36*
X96875Y220625D02*
X96875Y220625D01*
X101875Y213125D01*
X106875Y220625D01*
X96875Y220625D01*
D02*G37*
M02*
