%FSLAX35Y35*%
%MOIN*%
%IN2 = Copper bottom L1   ( x.Bot )*%
%ADD10C,0.00591*%
%ADD11C,0.00700*%
%ADD12C,0.00770*%
%ADD13C,0.00787*%
%ADD14C,0.00825*%
%ADD15C,0.00910*%
%ADD16C,0.01024*%
%ADD17C,0.01181*%
%ADD18C,0.01900*%
%ADD19C,0.02000*%
%ADD20C,0.02100*%
%ADD21C,0.02200*%
%ADD22C,0.02300*%
%ADD23C,0.02362*%
%ADD24C,0.02500*%
%ADD25C,0.03150*%
%ADD26C,0.03200*%
%ADD27C,0.03500*%
%ADD28C,0.03937*%
%ADD29C,0.04000*%
%ADD30C,0.04500*%
%ADD31C,0.05000*%
%ADD32C,0.05512*%
%ADD33C,0.06299*%
%ADD34C,0.07000*%
%ADD35C,0.07874*%
%ADD36C,0.08000*%
%ADD37C,0.09449*%
%ADD38C,0.23622*%
%ADD39R,0.03543X0.06299*%
%ADD40R,0.05500X0.06700*%
%ADD41R,0.05500X0.07000*%
%ADD42R,0.08300X0.09843*%
%ADD43R,0.09055X0.12598*%
%ADD44R,0.10000X0.07000*%
%ADD45R,0.11811X0.11811*%
%ADD46R,0.12598X0.09055*%
%AMOCT_47*4,1,8,0.029528,0.014764,0.014764,0.029528,-0.014764,0.029528,-0.029528,0.014764,-0.029528,-0.014764,-0.014764,-0.029528,0.014764,-0.029528,0.029528,-0.014764,0.029528,0.014764,0*%
%ADD47OCT_47*%
%AMOCT_48*4,1,8,0.036000,0.027000,0.018000,0.045000,-0.018000,0.045000,-0.036000,0.027000,-0.036000,-0.027000,-0.018000,-0.045000,0.018000,-0.045000,0.036000,-0.027000,0.036000,0.027000,0*%
%ADD48OCT_48*%
%AMOCT_49*4,1,8,0.040000,0.020000,0.020000,0.040000,-0.020000,0.040000,-0.040000,0.020000,-0.040000,-0.020000,-0.020000,-0.040000,0.020000,-0.040000,0.040000,-0.020000,0.040000,0.020000,0*%
%ADD49OCT_49*%
%AMOCT_50*4,1,8,0.050000,0.025000,0.025000,0.050000,-0.025000,0.050000,-0.050000,0.025000,-0.050000,-0.025000,-0.025000,-0.050000,0.025000,-0.050000,0.050000,-0.025000,0.050000,0.025000,0*%
%ADD50OCT_50*%
%AMOCT_51*4,1,8,0.078740,0.039370,0.039370,0.078740,-0.039370,0.078740,-0.078740,0.039370,-0.078740,-0.039370,-0.039370,-0.078740,0.039370,-0.078740,0.078740,-0.039370,0.078740,0.039370,0*%
%ADD51OCT_51*%
%ADD52O,0.08000X0.05500*%
%ADD53O,0.08000X0.06000*%
G54D18*
X80000Y308125D02*
X61875Y308125D01*
X66875Y338125D02*
X82500Y338125D01*
X66875Y120625D02*
X82500Y120625D01*
X80000Y90625D02*
X61875Y90625D01*
X299375Y120625D02*
X315000Y120625D01*
X312500Y90625D02*
X294375Y90625D01*
X299375Y338125D02*
X315000Y338125D01*
X312500Y308125D02*
X294375Y308125D01*
G54D19*
X82844Y388125D02*
X83750Y388125D01*
X93750Y388125D02*
X94655Y388125D01*
X56250Y378125D02*
X61250Y373125D01*
X75000Y373125D01*
X82844Y373125D01*
X56250Y358125D02*
X61250Y363125D01*
X75000Y363125D01*
X82844Y363125D01*
X46250Y385625D02*
X73750Y413125D01*
X93750Y170625D02*
X94655Y170625D01*
X82844Y170625D02*
X83750Y170625D01*
X46250Y168125D02*
X73750Y195625D01*
X56250Y140625D02*
X61250Y145625D01*
X75000Y145625D01*
X82844Y145625D01*
X56250Y160625D02*
X61250Y155625D01*
X75000Y155625D01*
X82844Y155625D01*
X315344Y170625D02*
X316250Y170625D01*
X288750Y160625D02*
X293750Y155625D01*
X307500Y155625D01*
X315344Y155625D01*
X288750Y140625D02*
X293750Y145625D01*
X307500Y145625D01*
X315344Y145625D01*
X278750Y168125D02*
X306250Y195625D01*
X326250Y170625D02*
X327155Y170625D01*
X326250Y388125D02*
X327155Y388125D01*
X315344Y388125D02*
X316250Y388125D01*
X278750Y385625D02*
X306250Y413125D01*
X288750Y378125D02*
X293750Y373125D01*
X307500Y373125D01*
X315344Y373125D01*
X288750Y358125D02*
X293750Y363125D01*
X307500Y363125D01*
X315344Y363125D01*
G54D20*
X94655Y383125D02*
X105000Y383125D01*
X21875Y324375D02*
X53750Y324375D01*
X65000Y313125D01*
X75000Y313125D01*
X75000Y353125D02*
X66250Y353125D01*
X62500Y349375D01*
X46250Y349375D01*
X46250Y385625D01*
X103750Y413125D02*
X103750Y390625D01*
X113750Y390625D01*
X113750Y373125D01*
X105000Y373125D01*
X113750Y413125D02*
X113750Y395625D01*
X118750Y395625D01*
X118750Y363125D01*
X105000Y363125D01*
X62500Y300625D02*
X66250Y303125D01*
X75000Y303125D01*
X61250Y249375D02*
X61250Y273125D01*
X62500Y273125D01*
X104375Y293125D02*
X71250Y260000D01*
X71250Y249375D01*
X105000Y303125D02*
X107500Y303125D01*
X112500Y298125D01*
X112500Y289375D01*
X81250Y258125D01*
X81250Y249375D01*
X90000Y288125D02*
X90000Y303125D01*
X97500Y310625D02*
X97500Y323125D01*
X105000Y323125D01*
X43267Y284375D02*
X43267Y280482D01*
X82357Y280482D01*
X90000Y288125D02*
X82357Y280482D01*
X97500Y310625D02*
X90000Y303125D01*
X43267Y299375D02*
X52500Y299375D01*
X52500Y285625D01*
X79375Y285625D01*
X92500Y313125D02*
X92500Y333125D01*
X105000Y333125D01*
X85000Y291250D02*
X79375Y285625D01*
X85000Y291250D02*
X85000Y305625D01*
X92500Y313125D02*
X85000Y305625D01*
X43267Y314375D02*
X55625Y314375D01*
X61875Y308125D01*
X80000Y308125D02*
X87500Y315625D01*
X87500Y343125D01*
X105000Y343125D01*
X18750Y330625D02*
X21250Y333125D01*
X75000Y333125D01*
X18750Y330625D02*
X13750Y330625D01*
X18750Y340625D02*
X64375Y340625D01*
X66875Y338125D01*
X82500Y338125D02*
X82500Y323125D01*
X75000Y323125D01*
X18125Y290625D02*
X13750Y290625D01*
X22500Y300625D02*
X13750Y300625D01*
X22982Y310625D02*
X13750Y310625D01*
X94655Y165625D02*
X105000Y165625D01*
X62500Y83125D02*
X66250Y85625D01*
X75000Y85625D01*
X61250Y31875D02*
X61250Y55625D01*
X62500Y55625D01*
X104375Y75625D02*
X71250Y42500D01*
X71250Y31875D01*
X105000Y85625D02*
X107500Y85625D01*
X112500Y80625D01*
X112500Y71875D01*
X81250Y40625D01*
X81250Y31875D01*
X18125Y73125D02*
X13750Y73125D01*
X22500Y83125D02*
X13750Y83125D01*
X22982Y93125D02*
X13750Y93125D01*
X21875Y106875D02*
X53750Y106875D01*
X65000Y95625D01*
X75000Y95625D01*
X18750Y113125D02*
X21250Y115625D01*
X75000Y115625D01*
X18750Y113125D02*
X13750Y113125D01*
X18750Y123125D02*
X64375Y123125D01*
X66875Y120625D01*
X82500Y120625D02*
X82500Y105625D01*
X75000Y105625D01*
X43267Y96875D02*
X55625Y96875D01*
X61875Y90625D01*
X80000Y90625D02*
X87500Y98125D01*
X87500Y125625D01*
X105000Y125625D01*
X43267Y81875D02*
X52500Y81875D01*
X52500Y68125D01*
X79375Y68125D01*
X92500Y95625D02*
X92500Y115625D01*
X105000Y115625D01*
X85000Y73750D02*
X79375Y68125D01*
X85000Y73750D02*
X85000Y88125D01*
X92500Y95625D02*
X85000Y88125D01*
X90000Y70625D02*
X90000Y85625D01*
X97500Y93125D02*
X97500Y105625D01*
X105000Y105625D01*
X43267Y66875D02*
X43267Y62982D01*
X82357Y62982D01*
X90000Y70625D02*
X82357Y62982D01*
X97500Y93125D02*
X90000Y85625D01*
X75000Y135625D02*
X66250Y135625D01*
X62500Y131875D01*
X46250Y131875D01*
X46250Y168125D01*
X103750Y195625D02*
X103750Y173125D01*
X113750Y173125D01*
X113750Y155625D01*
X105000Y155625D01*
X113750Y195625D02*
X113750Y178125D01*
X118750Y178125D01*
X118750Y145625D01*
X105000Y145625D01*
X307500Y135625D02*
X298750Y135625D01*
X295000Y131875D01*
X278750Y131875D01*
X278750Y168125D01*
X251250Y113125D02*
X253750Y115625D01*
X307500Y115625D01*
X251250Y113125D02*
X246250Y113125D01*
X251250Y123125D02*
X296875Y123125D01*
X299375Y120625D01*
X315000Y120625D02*
X315000Y105625D01*
X307500Y105625D01*
X254375Y106875D02*
X286250Y106875D01*
X297500Y95625D01*
X307500Y95625D01*
X295000Y83125D02*
X298750Y85625D01*
X307500Y85625D01*
X293750Y31875D02*
X293750Y55625D01*
X295000Y55625D01*
X336875Y75625D02*
X303750Y42500D01*
X303750Y31875D01*
X337500Y85625D02*
X340000Y85625D01*
X345000Y80625D01*
X345000Y71875D01*
X313750Y40625D01*
X313750Y31875D01*
X322500Y70625D02*
X322500Y85625D01*
X330000Y93125D02*
X330000Y105625D01*
X337500Y105625D01*
X275767Y66875D02*
X275767Y62982D01*
X314857Y62982D01*
X322500Y70625D02*
X314857Y62982D01*
X330000Y93125D02*
X322500Y85625D01*
X275767Y81875D02*
X285000Y81875D01*
X285000Y68125D01*
X311875Y68125D01*
X325000Y95625D02*
X325000Y115625D01*
X337500Y115625D01*
X317500Y73750D02*
X311875Y68125D01*
X317500Y73750D02*
X317500Y88125D01*
X325000Y95625D02*
X317500Y88125D01*
X275767Y96875D02*
X288125Y96875D01*
X294375Y90625D01*
X312500Y90625D02*
X320000Y98125D01*
X320000Y125625D01*
X337500Y125625D01*
X346250Y195625D02*
X346250Y178125D01*
X351250Y178125D01*
X351250Y145625D01*
X337500Y145625D01*
X336250Y195625D02*
X336250Y173125D01*
X346250Y173125D01*
X346250Y155625D01*
X337500Y155625D01*
X327155Y165625D02*
X337500Y165625D01*
X250625Y73125D02*
X246250Y73125D01*
X255482Y93125D02*
X246250Y93125D01*
X255000Y83125D02*
X246250Y83125D01*
X327155Y383125D02*
X337500Y383125D01*
X295000Y300625D02*
X298750Y303125D01*
X307500Y303125D01*
X293750Y249375D02*
X293750Y273125D01*
X295000Y273125D01*
X336875Y293125D02*
X303750Y260000D01*
X303750Y249375D01*
X337500Y303125D02*
X340000Y303125D01*
X345000Y298125D01*
X345000Y289375D01*
X313750Y258125D01*
X313750Y249375D01*
X250625Y290625D02*
X246250Y290625D01*
X255000Y300625D02*
X246250Y300625D01*
X255482Y310625D02*
X246250Y310625D01*
X254375Y324375D02*
X286250Y324375D01*
X297500Y313125D01*
X307500Y313125D01*
X251250Y330625D02*
X253750Y333125D01*
X307500Y333125D01*
X251250Y330625D02*
X246250Y330625D01*
X251250Y340625D02*
X296875Y340625D01*
X299375Y338125D01*
X315000Y338125D02*
X315000Y323125D01*
X307500Y323125D01*
X275767Y314375D02*
X288125Y314375D01*
X294375Y308125D01*
X312500Y308125D02*
X320000Y315625D01*
X320000Y343125D01*
X337500Y343125D01*
X275767Y299375D02*
X285000Y299375D01*
X285000Y285625D01*
X311875Y285625D01*
X325000Y313125D02*
X325000Y333125D01*
X337500Y333125D01*
X317500Y291250D02*
X311875Y285625D01*
X317500Y291250D02*
X317500Y305625D01*
X325000Y313125D02*
X317500Y305625D01*
X322500Y288125D02*
X322500Y303125D01*
X330000Y310625D02*
X330000Y323125D01*
X337500Y323125D01*
X275767Y284375D02*
X275767Y280482D01*
X314857Y280482D01*
X322500Y288125D02*
X314857Y280482D01*
X330000Y310625D02*
X322500Y303125D01*
X307500Y353125D02*
X298750Y353125D01*
X295000Y349375D01*
X278750Y349375D01*
X278750Y385625D01*
X336250Y413125D02*
X336250Y390625D01*
X346250Y390625D01*
X346250Y373125D01*
X337500Y373125D01*
X346250Y413125D02*
X346250Y395625D01*
X351250Y395625D01*
X351250Y363125D01*
X337500Y363125D01*
G54D21*
X21875Y324375D02*
X18125Y320625D01*
X13750Y320625D01*
X105000Y293125D02*
X104375Y293125D01*
X13750Y340625D02*
X18750Y340625D01*
X105000Y75625D02*
X104375Y75625D01*
X21875Y106875D02*
X18125Y103125D01*
X13750Y103125D01*
X13750Y123125D02*
X18750Y123125D01*
X246250Y123125D02*
X251250Y123125D01*
X254375Y106875D02*
X250625Y103125D01*
X246250Y103125D01*
X337500Y75625D02*
X336875Y75625D01*
X337500Y293125D02*
X336875Y293125D01*
X254375Y324375D02*
X250625Y320625D01*
X246250Y320625D01*
X246250Y340625D02*
X251250Y340625D01*
G54D22*
X34375Y366250D02*
X24375Y376250D01*
X34375Y148750D02*
X24375Y158750D01*
X266875Y366250D02*
X256875Y376250D01*
X266875Y148750D02*
X256875Y158750D01*
G54D24*
X124655Y343125D02*
X128750Y343125D01*
X124655Y333125D02*
X128750Y333125D01*
X124655Y323125D02*
X128750Y323125D01*
X94655Y363125D02*
X94655Y373125D01*
X94655Y383125D01*
X112844Y323125D02*
X105000Y323125D01*
X105000Y333125D02*
X112844Y333125D01*
X112844Y343125D02*
X105000Y343125D01*
X105000Y313125D02*
X120000Y313125D01*
X120000Y299375D01*
X120000Y262500D02*
X137500Y262500D01*
X137500Y245000D01*
X24375Y284375D02*
X18125Y290625D01*
X24375Y284375D02*
X26732Y284375D01*
X26732Y299375D02*
X22500Y300625D01*
X26732Y314375D02*
X22982Y310625D01*
X94655Y145625D02*
X94655Y155625D01*
X94655Y165625D01*
X124655Y125625D02*
X128750Y125625D01*
X124655Y115625D02*
X128750Y115625D01*
X124655Y105625D02*
X128750Y105625D01*
X105000Y95625D02*
X120000Y95625D01*
X120000Y81875D01*
X120000Y45000D02*
X137500Y45000D01*
X137500Y27500D01*
X24375Y66875D02*
X18125Y73125D01*
X24375Y66875D02*
X26732Y66875D01*
X26732Y81875D02*
X22500Y83125D01*
X26732Y96875D02*
X22982Y93125D01*
X112844Y125625D02*
X105000Y125625D01*
X105000Y115625D02*
X112844Y115625D01*
X112844Y105625D02*
X105000Y105625D01*
X357155Y125625D02*
X361250Y125625D01*
X357155Y115625D02*
X361250Y115625D01*
X357155Y105625D02*
X361250Y105625D01*
X337500Y95625D02*
X352500Y95625D01*
X352500Y81875D01*
X352500Y45000D02*
X370000Y45000D01*
X370000Y27500D01*
X345344Y105625D02*
X337500Y105625D01*
X337500Y115625D02*
X345344Y115625D01*
X345344Y125625D02*
X337500Y125625D01*
X327155Y145625D02*
X327155Y155625D01*
X327155Y165625D01*
X256875Y66875D02*
X250625Y73125D01*
X256875Y66875D02*
X259232Y66875D01*
X259232Y96875D02*
X255482Y93125D01*
X259232Y81875D02*
X255000Y83125D01*
X327155Y363125D02*
X327155Y373125D01*
X327155Y383125D01*
X357155Y343125D02*
X361250Y343125D01*
X357155Y333125D02*
X361250Y333125D01*
X357155Y323125D02*
X361250Y323125D01*
X337500Y313125D02*
X352500Y313125D01*
X352500Y299375D01*
X352500Y262500D02*
X370000Y262500D01*
X370000Y245000D01*
X256875Y284375D02*
X250625Y290625D01*
X256875Y284375D02*
X259232Y284375D01*
X259232Y299375D02*
X255000Y300625D01*
X259232Y314375D02*
X255482Y310625D01*
X345344Y343125D02*
X337500Y343125D01*
X337500Y333125D02*
X345344Y333125D01*
X345344Y323125D02*
X337500Y323125D01*
G54D26*
X208125Y364375D02*
X220000Y364375D01*
X226250Y358125D02*
X220000Y364375D01*
X226250Y358125D02*
X226250Y329375D01*
X218125Y321250D01*
X182583Y331875D02*
X198125Y331875D01*
X200625Y334375D01*
X200625Y349375D01*
X215625Y349375D02*
X200625Y349375D01*
X198966Y320408D02*
X198966Y306250D01*
X198966Y320408D02*
X198125Y321250D01*
X179375Y411250D02*
X178750Y411875D01*
X158750Y331875D02*
X171166Y331875D01*
X158750Y114375D02*
X171166Y114375D01*
X182583Y114375D02*
X198125Y114375D01*
X200625Y116875D01*
X200625Y131875D01*
X215625Y131875D02*
X200625Y131875D01*
X198966Y102908D02*
X198966Y88750D01*
X198966Y102908D02*
X198125Y103750D01*
X208125Y146875D02*
X220000Y146875D01*
X226250Y140625D02*
X220000Y146875D01*
X226250Y140625D02*
X226250Y111875D01*
X218125Y103750D01*
X179375Y193750D02*
X178750Y194375D01*
X440625Y146875D02*
X452500Y146875D01*
X458750Y140625D02*
X452500Y146875D01*
X458750Y140625D02*
X458750Y111875D01*
X450625Y103750D01*
X415083Y114375D02*
X430625Y114375D01*
X433125Y116875D01*
X433125Y131875D01*
X448125Y131875D02*
X433125Y131875D01*
X431466Y102908D02*
X431466Y88750D01*
X431466Y102908D02*
X430625Y103750D01*
X411875Y193750D02*
X411250Y194375D01*
X391250Y114375D02*
X403666Y114375D01*
X391250Y331875D02*
X403666Y331875D01*
X415083Y331875D02*
X430625Y331875D01*
X433125Y334375D01*
X433125Y349375D01*
X448125Y349375D02*
X433125Y349375D01*
X431466Y320408D02*
X431466Y306250D01*
X431466Y320408D02*
X430625Y321250D01*
X440625Y364375D02*
X452500Y364375D01*
X458750Y358125D02*
X452500Y364375D01*
X458750Y358125D02*
X458750Y329375D01*
X450625Y321250D01*
X411875Y411250D02*
X411250Y411875D01*
G54D27*
X128750Y299375D02*
X128750Y323125D01*
X128750Y399375D02*
X128750Y343125D01*
X128750Y333125D02*
X128750Y343125D01*
X128750Y323125D02*
X128750Y333125D01*
X116250Y230625D02*
X71250Y230625D01*
X71250Y239375D01*
X116250Y230625D02*
X116250Y241250D01*
X102500Y255000D01*
X102500Y270000D01*
X128750Y296250D01*
X128750Y299375D01*
X128750Y81875D02*
X128750Y105625D01*
X128750Y181875D02*
X128750Y125625D01*
X128750Y115625D02*
X128750Y125625D01*
X128750Y105625D02*
X128750Y115625D01*
X116250Y13125D02*
X71250Y13125D01*
X71250Y21875D01*
X116250Y13125D02*
X116250Y23750D01*
X102500Y37500D01*
X102500Y52500D01*
X128750Y78750D01*
X128750Y81875D01*
X361250Y81875D02*
X361250Y105625D01*
X361250Y181875D02*
X361250Y125625D01*
X361250Y115625D02*
X361250Y125625D01*
X361250Y105625D02*
X361250Y115625D01*
X348750Y13125D02*
X303750Y13125D01*
X303750Y21875D01*
X348750Y13125D02*
X348750Y23750D01*
X335000Y37500D01*
X335000Y52500D01*
X361250Y78750D01*
X361250Y81875D01*
X361250Y299375D02*
X361250Y323125D01*
X361250Y399375D02*
X361250Y343125D01*
X361250Y333125D02*
X361250Y343125D01*
X361250Y323125D02*
X361250Y333125D01*
X348750Y230625D02*
X303750Y230625D01*
X303750Y239375D01*
X348750Y230625D02*
X348750Y241250D01*
X335000Y255000D01*
X335000Y270000D01*
X361250Y296250D01*
X361250Y299375D01*
G54D29*
X82844Y388125D02*
X82844Y383125D01*
X75000Y383125D01*
X83750Y388125D02*
X83750Y399375D01*
X83750Y413125D01*
X94655Y388125D02*
X94655Y383125D01*
X105000Y383125D01*
X93750Y413125D02*
X93750Y388125D01*
X51250Y249375D02*
X51250Y239375D01*
X56250Y239375D01*
X61250Y239375D01*
X158750Y411875D02*
X158750Y398750D01*
X151250Y391250D01*
X151250Y380000D01*
X158750Y411875D02*
X158750Y420000D01*
X155625Y423125D01*
X138750Y423125D01*
X81250Y239375D02*
X91250Y239375D01*
X91250Y249375D01*
X179375Y411250D02*
X179375Y394448D01*
X161250Y380000D02*
X165698Y375551D01*
X179375Y375551D01*
X227500Y305625D02*
X214158Y305625D01*
X213533Y306250D01*
X94655Y170625D02*
X94655Y165625D01*
X105000Y165625D01*
X93750Y195625D02*
X93750Y170625D01*
X51250Y31875D02*
X51250Y21875D01*
X56250Y21875D01*
X61250Y21875D01*
X158750Y194375D02*
X158750Y181250D01*
X151250Y173750D01*
X151250Y162500D01*
X158750Y194375D02*
X158750Y202500D01*
X155625Y205625D01*
X138750Y205625D01*
X82844Y170625D02*
X82844Y165625D01*
X75000Y165625D01*
X83750Y170625D02*
X83750Y181875D01*
X83750Y195625D01*
X227500Y88125D02*
X214158Y88125D01*
X213533Y88750D01*
X161250Y162500D02*
X165698Y158051D01*
X179375Y158051D01*
X81250Y21875D02*
X91250Y21875D01*
X91250Y31875D01*
X179375Y193750D02*
X179375Y176948D01*
X315344Y170625D02*
X315344Y165625D01*
X307500Y165625D01*
X316250Y170625D02*
X316250Y181875D01*
X316250Y195625D01*
X327155Y170625D02*
X327155Y165625D01*
X337500Y165625D01*
X326250Y195625D02*
X326250Y170625D01*
X283750Y31875D02*
X283750Y21875D01*
X288750Y21875D01*
X293750Y21875D01*
X391250Y194375D02*
X391250Y181250D01*
X383750Y173750D01*
X383750Y162500D01*
X391250Y194375D02*
X391250Y202500D01*
X388125Y205625D01*
X371250Y205625D01*
X313750Y21875D02*
X323750Y21875D01*
X323750Y31875D01*
X411875Y193750D02*
X411875Y176948D01*
X393750Y162500D02*
X398198Y158051D01*
X411875Y158051D01*
X460000Y88125D02*
X446658Y88125D01*
X446033Y88750D01*
X327155Y388125D02*
X327155Y383125D01*
X337500Y383125D01*
X326250Y413125D02*
X326250Y388125D01*
X283750Y249375D02*
X283750Y239375D01*
X288750Y239375D01*
X293750Y239375D01*
X391250Y411875D02*
X391250Y398750D01*
X383750Y391250D01*
X383750Y380000D01*
X391250Y411875D02*
X391250Y420000D01*
X388125Y423125D01*
X371250Y423125D01*
X315344Y388125D02*
X315344Y383125D01*
X307500Y383125D01*
X316250Y388125D02*
X316250Y399375D01*
X316250Y413125D01*
X460000Y305625D02*
X446658Y305625D01*
X446033Y306250D01*
X393750Y380000D02*
X398198Y375551D01*
X411875Y375551D01*
X313750Y239375D02*
X323750Y239375D01*
X323750Y249375D01*
X411875Y411250D02*
X411875Y394448D01*
G54D30*
X93750Y413125D02*
X93750Y423125D01*
X138750Y423125D01*
X138750Y319375D01*
X93750Y423125D02*
X68750Y423125D01*
X13750Y350625D02*
X13750Y368125D01*
X68750Y423125D01*
X138750Y319375D02*
X138750Y275625D01*
X93750Y195625D02*
X93750Y205625D01*
X138750Y205625D01*
X138750Y101875D01*
X93750Y205625D02*
X68750Y205625D01*
X13750Y133125D02*
X13750Y150625D01*
X68750Y205625D01*
X138750Y101875D02*
X138750Y58125D01*
X326250Y195625D02*
X326250Y205625D01*
X371250Y205625D01*
X371250Y101875D01*
X326250Y205625D02*
X301250Y205625D01*
X246250Y133125D02*
X246250Y150625D01*
X301250Y205625D01*
X371250Y101875D02*
X371250Y58125D01*
X326250Y413125D02*
X326250Y423125D01*
X371250Y423125D01*
X371250Y319375D01*
X326250Y423125D02*
X301250Y423125D01*
X246250Y350625D02*
X246250Y368125D01*
X301250Y423125D01*
X371250Y319375D02*
X371250Y275625D01*
G54D31*
X165000Y314458D02*
X152416Y314458D01*
X148750Y318125D01*
X148750Y331875D01*
X127500Y223125D02*
X56250Y223125D01*
X56250Y239375D01*
X61250Y239375D01*
X127500Y245000D02*
X127500Y223125D01*
X181250Y275625D02*
X138750Y275625D01*
X118750Y275625D02*
X110625Y267500D01*
X110625Y257500D01*
X123125Y245000D01*
X127500Y245000D01*
X198966Y306250D02*
X198966Y285216D01*
X189375Y275625D01*
X181250Y275625D01*
X138750Y275625D02*
X118750Y275625D01*
X105625Y238750D02*
X92500Y238750D01*
X91250Y239375D01*
X147500Y245000D02*
X147500Y238750D01*
X161250Y238750D01*
X165000Y253041D02*
X181166Y253041D01*
X214158Y286033D01*
X214158Y305625D01*
X127500Y5625D02*
X56250Y5625D01*
X56250Y21875D01*
X61250Y21875D01*
X127500Y27500D02*
X127500Y5625D01*
X181250Y58125D02*
X138750Y58125D01*
X118750Y58125D02*
X110625Y50000D01*
X110625Y40000D01*
X123125Y27500D01*
X127500Y27500D01*
X198966Y88750D02*
X198966Y67716D01*
X189375Y58125D01*
X181250Y58125D01*
X138750Y58125D02*
X118750Y58125D01*
X165000Y96958D02*
X152416Y96958D01*
X148750Y100625D01*
X148750Y114375D01*
X165000Y35541D02*
X181166Y35541D01*
X214158Y68533D01*
X214158Y88125D01*
X105625Y21250D02*
X92500Y21250D01*
X91250Y21875D01*
X147500Y27500D02*
X147500Y21250D01*
X161250Y21250D01*
X397500Y96958D02*
X384916Y96958D01*
X381250Y100625D01*
X381250Y114375D01*
X360000Y5625D02*
X288750Y5625D01*
X288750Y21875D01*
X293750Y21875D01*
X360000Y27500D02*
X360000Y5625D01*
X413750Y58125D02*
X371250Y58125D01*
X351250Y58125D02*
X343125Y50000D01*
X343125Y40000D01*
X355625Y27500D01*
X360000Y27500D01*
X431466Y88750D02*
X431466Y67716D01*
X421875Y58125D01*
X413750Y58125D01*
X371250Y58125D02*
X351250Y58125D01*
X338125Y21250D02*
X325000Y21250D01*
X323750Y21875D01*
X380000Y27500D02*
X380000Y21250D01*
X393750Y21250D01*
X397500Y35541D02*
X413666Y35541D01*
X446658Y68533D01*
X446658Y88125D01*
X360000Y223125D02*
X288750Y223125D01*
X288750Y239375D01*
X293750Y239375D01*
X360000Y245000D02*
X360000Y223125D01*
X413750Y275625D02*
X371250Y275625D01*
X351250Y275625D02*
X343125Y267500D01*
X343125Y257500D01*
X355625Y245000D01*
X360000Y245000D01*
X431466Y306250D02*
X431466Y285216D01*
X421875Y275625D01*
X413750Y275625D01*
X371250Y275625D02*
X351250Y275625D01*
X397500Y314458D02*
X384916Y314458D01*
X381250Y318125D01*
X381250Y331875D01*
X397500Y253041D02*
X413666Y253041D01*
X446658Y286033D01*
X446658Y305625D01*
X338125Y238750D02*
X325000Y238750D01*
X323750Y239375D01*
X380000Y245000D02*
X380000Y238750D01*
X393750Y238750D01*
G54D33*
X161250Y380000D03*
X151250Y380000D03*
X161250Y162500D03*
X151250Y162500D03*
X393750Y162500D03*
X383750Y162500D03*
X393750Y380000D03*
X383750Y380000D03*
G54D34*
X62500Y273125D03*
X62500Y300625D03*
X120000Y262500D03*
X120000Y299375D03*
X227500Y305625D03*
X227500Y88125D03*
X120000Y45000D03*
X120000Y81875D03*
X62500Y55625D03*
X62500Y83125D03*
X295000Y55625D03*
X295000Y83125D03*
X352500Y45000D03*
X352500Y81875D03*
X460000Y88125D03*
X460000Y305625D03*
X352500Y262500D03*
X352500Y299375D03*
X295000Y273125D03*
X295000Y300625D03*
G54D35*
X218125Y321250D03*
X198125Y321250D03*
X218125Y103750D03*
X198125Y103750D03*
X450625Y103750D03*
X430625Y103750D03*
X450625Y321250D03*
X430625Y321250D03*
G54D36*
X51250Y239375D03*
X51250Y249375D03*
X61250Y239375D03*
X61250Y249375D03*
X71250Y239375D03*
X71250Y249375D03*
X81250Y239375D03*
X81250Y249375D03*
X91250Y239375D03*
X91250Y249375D03*
X127500Y245000D03*
X137500Y245000D03*
X147500Y245000D03*
X127500Y27500D03*
X137500Y27500D03*
X147500Y27500D03*
X51250Y21875D03*
X51250Y31875D03*
X61250Y21875D03*
X61250Y31875D03*
X71250Y21875D03*
X71250Y31875D03*
X81250Y21875D03*
X81250Y31875D03*
X91250Y21875D03*
X91250Y31875D03*
X283750Y21875D03*
X283750Y31875D03*
X293750Y21875D03*
X293750Y31875D03*
X303750Y21875D03*
X303750Y31875D03*
X313750Y21875D03*
X313750Y31875D03*
X323750Y21875D03*
X323750Y31875D03*
X360000Y27500D03*
X370000Y27500D03*
X380000Y27500D03*
X360000Y245000D03*
X370000Y245000D03*
X380000Y245000D03*
X283750Y239375D03*
X283750Y249375D03*
X293750Y239375D03*
X293750Y249375D03*
X303750Y239375D03*
X303750Y249375D03*
X313750Y239375D03*
X313750Y249375D03*
X323750Y239375D03*
X323750Y249375D03*
X128750Y399375D03*
X83750Y399375D03*
X128750Y181875D03*
X83750Y181875D03*
X361250Y181875D03*
X316250Y181875D03*
X361250Y399375D03*
X316250Y399375D03*
G54D37*
X185625Y349375D03*
X193125Y364375D03*
X200625Y349375D03*
X208125Y364375D03*
X215625Y349375D03*
X185625Y131875D03*
X193125Y146875D03*
X200625Y131875D03*
X208125Y146875D03*
X215625Y131875D03*
X418125Y131875D03*
X425625Y146875D03*
X433125Y131875D03*
X440625Y146875D03*
X448125Y131875D03*
X418125Y349375D03*
X425625Y364375D03*
X433125Y349375D03*
X440625Y364375D03*
X448125Y349375D03*
G54D38*
X16250Y411875D03*
X215000Y413125D03*
X16250Y238750D03*
X215000Y238750D03*
X16250Y194375D03*
X215000Y195625D03*
X16250Y21250D03*
X215000Y21250D03*
X248750Y411875D03*
X447500Y413125D03*
X248750Y238750D03*
X447500Y238750D03*
X248750Y194375D03*
X447500Y195625D03*
X248750Y21250D03*
X447500Y21250D03*
G54D39*
X171166Y331875D03*
X182583Y331875D03*
X171166Y114375D03*
X182583Y114375D03*
X403666Y114375D03*
X415083Y114375D03*
X403666Y331875D03*
X415083Y331875D03*
G54D40*
X112844Y323125D03*
X124655Y323125D03*
X112844Y333125D03*
X124655Y333125D03*
X112844Y343125D03*
X124655Y343125D03*
X112844Y125625D03*
X124655Y125625D03*
X112844Y115625D03*
X124655Y115625D03*
X112844Y105625D03*
X124655Y105625D03*
X345344Y105625D03*
X357155Y105625D03*
X345344Y115625D03*
X357155Y115625D03*
X345344Y125625D03*
X357155Y125625D03*
X345344Y343125D03*
X357155Y343125D03*
X345344Y333125D03*
X357155Y333125D03*
X345344Y323125D03*
X357155Y323125D03*
G54D41*
X82844Y363125D03*
X94655Y363125D03*
X82844Y373125D03*
X94655Y373125D03*
X94655Y388125D03*
X82844Y388125D03*
X82844Y155625D03*
X94655Y155625D03*
X94655Y170625D03*
X82844Y170625D03*
X82844Y145625D03*
X94655Y145625D03*
X315344Y145625D03*
X327155Y145625D03*
X327155Y170625D03*
X315344Y170625D03*
X315344Y155625D03*
X327155Y155625D03*
X327155Y388125D03*
X315344Y388125D03*
X315344Y373125D03*
X327155Y373125D03*
X315344Y363125D03*
X327155Y363125D03*
G54D42*
X43267Y284375D03*
X26732Y284375D03*
X43267Y299375D03*
X26732Y299375D03*
X43267Y314375D03*
X26732Y314375D03*
X43267Y81875D03*
X26732Y81875D03*
X43267Y96875D03*
X26732Y96875D03*
X43267Y66875D03*
X26732Y66875D03*
X275767Y66875D03*
X259232Y66875D03*
X275767Y96875D03*
X259232Y96875D03*
X275767Y81875D03*
X259232Y81875D03*
X275767Y314375D03*
X259232Y314375D03*
X275767Y299375D03*
X259232Y299375D03*
X275767Y284375D03*
X259232Y284375D03*
G54D43*
X178750Y411875D03*
X158750Y411875D03*
X213533Y306250D03*
X198966Y306250D03*
X213533Y88750D03*
X198966Y88750D03*
X178750Y194375D03*
X158750Y194375D03*
X411250Y194375D03*
X391250Y194375D03*
X446033Y88750D03*
X431466Y88750D03*
X446033Y306250D03*
X431466Y306250D03*
X411250Y411875D03*
X391250Y411875D03*
G54D44*
X13750Y290625D03*
X13750Y300625D03*
X13750Y310625D03*
X13750Y320625D03*
X13750Y330625D03*
X13750Y340625D03*
X13750Y350625D03*
X13750Y73125D03*
X13750Y83125D03*
X13750Y93125D03*
X13750Y103125D03*
X13750Y113125D03*
X13750Y123125D03*
X13750Y133125D03*
X246250Y73125D03*
X246250Y83125D03*
X246250Y93125D03*
X246250Y103125D03*
X246250Y113125D03*
X246250Y123125D03*
X246250Y133125D03*
X246250Y290625D03*
X246250Y300625D03*
X246250Y310625D03*
X246250Y320625D03*
X246250Y330625D03*
X246250Y340625D03*
X246250Y350625D03*
G54D45*
X165000Y253041D03*
X165000Y314458D03*
X165000Y35541D03*
X165000Y96958D03*
X397500Y35541D03*
X397500Y96958D03*
X397500Y253041D03*
X397500Y314458D03*
G54D46*
X179375Y375551D03*
X179375Y394448D03*
X179375Y158051D03*
X179375Y176948D03*
X411875Y158051D03*
X411875Y176948D03*
X411875Y375551D03*
X411875Y394448D03*
G54D47*
X148750Y331875D03*
X158750Y331875D03*
X148750Y114375D03*
X158750Y114375D03*
X381250Y114375D03*
X391250Y114375D03*
X381250Y331875D03*
X391250Y331875D03*
G54D48*
X73750Y413125D03*
X83750Y413125D03*
X93750Y413125D03*
X103750Y413125D03*
X113750Y413125D03*
X73750Y195625D03*
X83750Y195625D03*
X93750Y195625D03*
X103750Y195625D03*
X113750Y195625D03*
X306250Y195625D03*
X316250Y195625D03*
X326250Y195625D03*
X336250Y195625D03*
X346250Y195625D03*
X306250Y413125D03*
X316250Y413125D03*
X326250Y413125D03*
X336250Y413125D03*
X346250Y413125D03*
G54D49*
X56250Y378125D03*
X56250Y358125D03*
X56250Y160625D03*
X56250Y140625D03*
X288750Y160625D03*
X288750Y140625D03*
X288750Y378125D03*
X288750Y358125D03*
X105625Y238750D03*
X161250Y238750D03*
X105625Y21250D03*
X161250Y21250D03*
X338125Y21250D03*
X393750Y21250D03*
X338125Y238750D03*
X393750Y238750D03*
G54D50*
X34375Y366250D03*
X34375Y148750D03*
X266875Y366250D03*
X266875Y148750D03*
G54D51*
X215000Y413125D03*
X215000Y195625D03*
X447500Y413125D03*
X447500Y195625D03*
G54D52*
X75000Y343125D03*
X75000Y333125D03*
X75000Y313125D03*
X75000Y303125D03*
X75000Y125625D03*
X75000Y115625D03*
X75000Y95625D03*
X75000Y85625D03*
X307500Y125625D03*
X307500Y115625D03*
X307500Y95625D03*
X307500Y85625D03*
X307500Y343125D03*
X307500Y333125D03*
X307500Y313125D03*
X307500Y303125D03*
G54D53*
X75000Y383125D03*
X75000Y373125D03*
X75000Y363125D03*
X75000Y353125D03*
X75000Y323125D03*
X75000Y293125D03*
X105000Y293125D03*
X105000Y303125D03*
X105000Y313125D03*
X105000Y323125D03*
X105000Y333125D03*
X105000Y343125D03*
X105000Y353125D03*
X105000Y363125D03*
X105000Y373125D03*
X105000Y383125D03*
X75000Y165625D03*
X75000Y155625D03*
X75000Y145625D03*
X75000Y135625D03*
X75000Y105625D03*
X75000Y75625D03*
X105000Y75625D03*
X105000Y85625D03*
X105000Y95625D03*
X105000Y105625D03*
X105000Y115625D03*
X105000Y125625D03*
X105000Y135625D03*
X105000Y145625D03*
X105000Y155625D03*
X105000Y165625D03*
X307500Y165625D03*
X307500Y155625D03*
X307500Y145625D03*
X307500Y135625D03*
X307500Y105625D03*
X307500Y75625D03*
X337500Y75625D03*
X337500Y85625D03*
X337500Y95625D03*
X337500Y105625D03*
X337500Y115625D03*
X337500Y125625D03*
X337500Y135625D03*
X337500Y145625D03*
X337500Y155625D03*
X337500Y165625D03*
X307500Y383125D03*
X307500Y373125D03*
X307500Y363125D03*
X307500Y353125D03*
X307500Y323125D03*
X307500Y293125D03*
X337500Y293125D03*
X337500Y303125D03*
X337500Y313125D03*
X337500Y323125D03*
X337500Y333125D03*
X337500Y343125D03*
X337500Y353125D03*
X337500Y363125D03*
X337500Y373125D03*
X337500Y383125D03*
M02*
