%FSLAX35Y35*%
%MOIN*%
%IN16 = Copper top L2   ( x.Top )*%
%ADD10C,0.00591*%
%ADD11C,0.00750*%
%ADD12C,0.01181*%
%ADD13C,0.01500*%
%ADD14C,0.01575*%
%ADD15C,0.01772*%
%ADD16C,0.02362*%
%ADD17C,0.02400*%
%ADD18C,0.02496*%
%ADD19C,0.02756*%
%ADD20C,0.03200*%
%ADD21C,0.04000*%
%ADD22C,0.06000*%
%ADD23C,0.08000*%
%ADD24C,0.23622*%
%ADD25R,0.04724X0.07874*%
%ADD26R,0.05787X0.02717*%
%ADD27R,0.07874X0.04724*%
%ADD28R,0.08000X0.08000*%
%ADD29R,0.11811X0.27559*%
%ADD30R,0.19685X0.19685*%
G54D21*
X121399Y17125D02*
X131399Y17125D01*
X141399Y17125D01*
X141399Y27125D01*
X101399Y17125D02*
X101399Y12230D01*
X108000Y5629D01*
X231500Y5629D01*
X243000Y17129D01*
X243000Y114629D01*
X111399Y17125D02*
X101399Y17125D01*
X101399Y27125D01*
X142500Y154629D02*
X142500Y148629D01*
X59500Y148629D01*
X59500Y155129D01*
X59500Y148629D02*
X53500Y148629D01*
X34000Y129129D01*
X34000Y74629D01*
X161000Y332629D02*
X161000Y322129D01*
X83000Y322129D01*
X78500Y322129D02*
X78500Y332629D01*
X83000Y322129D02*
X83000Y189629D01*
X83000Y322129D02*
X78500Y322129D01*
X83000Y189629D02*
X89000Y183629D01*
X172500Y183629D01*
X188000Y168129D01*
X188000Y150629D01*
X167500Y130129D01*
X59500Y130129D01*
X57000Y127629D01*
X57000Y90129D01*
X228500Y231629D02*
X222500Y231629D01*
X222500Y315129D01*
X236000Y315129D01*
X248500Y406129D02*
X243500Y406129D01*
X243500Y490629D01*
X256500Y490629D01*
X243500Y490629D02*
X105000Y490629D01*
X82500Y513129D01*
X61102Y513129D01*
X17000Y470129D01*
X17000Y64629D01*
X179500Y512129D02*
X179500Y526629D01*
X97000Y526629D01*
X97000Y514629D01*
X8002Y474152D02*
X8500Y61129D01*
X8002Y474152D02*
X61530Y526629D01*
X97000Y526629D01*
X439700Y154229D02*
X439700Y148229D01*
X356700Y148229D01*
X356700Y154729D01*
X335200Y229729D02*
X331200Y229729D01*
X331200Y314229D01*
X343200Y314229D01*
X458200Y332229D02*
X458200Y321729D01*
X457500Y321729D01*
X375700Y321729D02*
X375700Y332229D01*
X457500Y321629D02*
X514000Y321629D01*
X457500Y321729D02*
X375700Y321729D01*
X457500Y321629D02*
X457500Y321729D01*
X514000Y321629D02*
X516000Y323629D01*
X565000Y323629D01*
X579000Y309629D01*
X579000Y89629D01*
X562500Y73129D01*
X328500Y73129D01*
X525700Y230229D02*
X519700Y230229D01*
X519700Y314729D01*
X533200Y314729D01*
X519700Y230229D02*
X519700Y216329D01*
X510000Y206629D01*
X510000Y173629D01*
X505000Y168629D01*
X353500Y168629D01*
X347000Y162129D01*
X347000Y113629D01*
X327500Y113629D01*
X544700Y408229D02*
X539700Y408229D01*
X539700Y492729D01*
X552700Y492729D01*
X476700Y511729D02*
X476700Y526729D01*
X394200Y526729D01*
X394200Y511729D01*
X363200Y492729D02*
X351200Y492729D01*
X351200Y408229D01*
X356200Y408229D01*
X97000Y517129D02*
X97000Y526129D01*
X234500Y315129D02*
X234500Y482629D01*
X102000Y482629D01*
X80000Y504629D01*
X65000Y504629D01*
X26500Y466129D01*
X25500Y69629D01*
X66500Y492629D02*
X49000Y475129D01*
X49000Y409629D01*
X49000Y408129D02*
X59000Y408129D01*
X49000Y409629D02*
X49000Y336129D01*
X49000Y409629D02*
X49000Y408129D01*
X49000Y336129D02*
X71000Y314129D01*
X71000Y182629D01*
X78000Y175629D01*
X153000Y175629D01*
X161000Y167629D01*
X161000Y152629D01*
X148000Y139629D01*
X57500Y139629D01*
X48500Y130629D01*
X48500Y85129D01*
X47500Y312629D02*
X47500Y309129D01*
X62000Y294629D01*
X62000Y246129D01*
X56500Y246129D01*
X40000Y246129D01*
X40000Y234129D01*
X62000Y246129D02*
X62000Y176629D01*
X42500Y157129D01*
X168000Y92629D02*
X168000Y30129D01*
X283000Y142629D02*
X253000Y142629D01*
X234000Y123629D01*
X234000Y30629D01*
X220500Y17129D01*
X142500Y17129D01*
X131000Y27629D02*
X131000Y114629D01*
X226000Y122629D02*
X83000Y122629D01*
X76500Y116129D01*
X76500Y29629D01*
X67000Y104629D02*
X67000Y28129D01*
X394500Y526129D02*
X359500Y526129D01*
X307500Y141129D02*
X315000Y133129D01*
X324000Y133129D01*
X359500Y526129D02*
X331000Y497629D01*
X331000Y343629D01*
X307500Y320129D01*
X307500Y141129D01*
X540000Y492129D02*
X400000Y492129D01*
X383500Y508629D01*
X353500Y508629D01*
X318500Y169129D02*
X336500Y151129D01*
X336500Y123629D01*
X326500Y123629D01*
X357000Y147629D02*
X357000Y108629D01*
X351500Y103129D01*
X329000Y103129D01*
X353500Y508629D02*
X341500Y496629D01*
X341000Y338129D01*
X318500Y315629D01*
X318500Y315129D02*
X318500Y169129D01*
G54D22*
X243000Y114629D03*
X34000Y74629D03*
X57000Y90129D03*
X17000Y64629D03*
X25500Y69629D03*
X48500Y85129D03*
X8000Y59629D03*
X42500Y157129D03*
X168500Y94629D03*
X131000Y114629D03*
X226500Y122129D03*
X67000Y104629D03*
G54D23*
X95021Y247736D03*
X95021Y227736D03*
X101399Y17125D03*
X101399Y27125D03*
X111399Y17125D03*
X111399Y27125D03*
X121399Y17125D03*
X121399Y27125D03*
X131399Y17125D03*
X131399Y27125D03*
X141399Y17125D03*
X141399Y27125D03*
X76832Y27332D03*
X66832Y27332D03*
G54D25*
X68130Y493280D03*
X78130Y493280D03*
X65169Y465184D03*
X75169Y465184D03*
X62731Y437628D03*
X72731Y437628D03*
X60268Y408733D03*
X70268Y408733D03*
X57482Y381649D03*
X67482Y381649D03*
X55303Y354536D03*
X65303Y354536D03*
X244399Y354425D03*
X254399Y354425D03*
X246577Y381538D03*
X256577Y381538D03*
X249363Y408623D03*
X259363Y408623D03*
X251826Y437518D03*
X261826Y437518D03*
X254265Y465074D03*
X264265Y465074D03*
X257225Y493170D03*
X267225Y493170D03*
X34766Y176239D03*
X44766Y176239D03*
X36944Y203352D03*
X46944Y203352D03*
X39730Y230437D03*
X49730Y230437D03*
X42193Y259332D03*
X52193Y259332D03*
X44632Y286888D03*
X54632Y286888D03*
X47592Y314984D03*
X57592Y314984D03*
X224356Y176732D03*
X234356Y176732D03*
X226534Y203845D03*
X236534Y203845D03*
X229320Y230929D03*
X239320Y230929D03*
X231783Y259824D03*
X241783Y259824D03*
X234222Y287380D03*
X244222Y287380D03*
X237182Y315476D03*
X247182Y315476D03*
X59535Y157786D03*
X69535Y157786D03*
X87137Y157482D03*
X97137Y157482D03*
X114589Y157344D03*
X124589Y157344D03*
X142288Y157315D03*
X152288Y157315D03*
X169631Y157308D03*
X179631Y157308D03*
X197272Y157303D03*
X207272Y157303D03*
X216002Y334708D03*
X226002Y334708D03*
X188361Y334713D03*
X198361Y334713D03*
X161019Y334720D03*
X171019Y334720D03*
X133320Y334750D03*
X143320Y334750D03*
X105868Y334888D03*
X115868Y334888D03*
X78266Y335192D03*
X88266Y335192D03*
X234746Y514231D03*
X244746Y514231D03*
X207104Y514236D03*
X217104Y514236D03*
X179762Y514243D03*
X189762Y514243D03*
X152063Y514272D03*
X162063Y514272D03*
X124611Y514411D03*
X134611Y514411D03*
X97009Y514715D03*
X107009Y514715D03*
X394209Y514315D03*
X404209Y514315D03*
X421811Y514011D03*
X431811Y514011D03*
X449263Y513872D03*
X459263Y513872D03*
X476962Y513843D03*
X486962Y513843D03*
X504304Y513836D03*
X514304Y513836D03*
X531946Y513831D03*
X541946Y513831D03*
X375466Y334792D03*
X385466Y334792D03*
X403068Y334488D03*
X413068Y334488D03*
X430520Y334350D03*
X440520Y334350D03*
X458219Y334320D03*
X468219Y334320D03*
X485561Y334313D03*
X495561Y334313D03*
X513202Y334308D03*
X523202Y334308D03*
X494472Y156903D03*
X504472Y156903D03*
X466831Y156908D03*
X476831Y156908D03*
X439488Y156915D03*
X449488Y156915D03*
X411789Y156944D03*
X421789Y156944D03*
X384337Y157082D03*
X394337Y157082D03*
X356735Y157386D03*
X366735Y157386D03*
X534382Y315076D03*
X544382Y315076D03*
X531422Y286980D03*
X541422Y286980D03*
X528983Y259424D03*
X538983Y259424D03*
X526520Y230529D03*
X536520Y230529D03*
X523734Y203445D03*
X533734Y203445D03*
X521556Y176332D03*
X531556Y176332D03*
X344792Y314584D03*
X354792Y314584D03*
X341832Y286488D03*
X351832Y286488D03*
X339393Y258932D03*
X349393Y258932D03*
X336930Y230037D03*
X346930Y230037D03*
X334144Y202952D03*
X344144Y202952D03*
X331966Y175839D03*
X341966Y175839D03*
X554425Y492770D03*
X564425Y492770D03*
X551465Y464674D03*
X561465Y464674D03*
X549026Y437118D03*
X559026Y437118D03*
X546563Y408223D03*
X556563Y408223D03*
X543777Y381138D03*
X553777Y381138D03*
X541599Y354025D03*
X551599Y354025D03*
X352503Y354136D03*
X362503Y354136D03*
X354682Y381249D03*
X364682Y381249D03*
X357468Y408333D03*
X367468Y408333D03*
X359931Y437228D03*
X369931Y437228D03*
X362369Y464784D03*
X372369Y464784D03*
X365330Y492880D03*
X375330Y492880D03*
G54D28*
X184879Y27423D03*
X168122Y27423D03*
M02*
