%FSLAX35Y35*%
%MOIN*%
%IN29 = Copper top L2   ( x.Top )*%
%ADD10C,0.00591*%
%ADD11C,0.00768*%
%ADD12C,0.00780*%
%ADD13C,0.00787*%
%ADD14C,0.01181*%
%ADD15C,0.01575*%
%ADD16C,0.02080*%
%ADD17C,0.03150*%
%ADD18C,0.03500*%
%ADD19C,0.04000*%
%ADD20C,0.05000*%
%ADD21C,0.06000*%
%ADD22C,0.07000*%
%ADD23C,0.09000*%
%ADD24C,0.10000*%
%ADD25R,0.03000X0.08000*%
%ADD26R,0.06000X0.09000*%
%ADD27R,0.08000X0.05000*%
%ADD28R,0.09000X0.06000*%
%ADD29R,0.19685X0.19685*%
%AMOCT_30*4,1,8,0.040000,0.040000,0.020000,0.060000,-0.020000,0.060000,-0.040000,0.040000,-0.040000,-0.040000,-0.020000,-0.060000,0.020000,-0.060000,0.040000,-0.040000,0.040000,0.040000,0*%
%ADD30OCT_30*%
%AMOCT_31*4,1,8,0.042500,0.021250,0.021250,0.042500,-0.021250,0.042500,-0.042500,0.021250,-0.042500,-0.021250,-0.021250,-0.042500,0.021250,-0.042500,0.042500,-0.021250,0.042500,0.021250,0*%
%ADD31OCT_31*%
%AMOCT_32*4,1,8,0.045000,0.022500,0.022500,0.045000,-0.022500,0.045000,-0.045000,0.022500,-0.045000,-0.022500,-0.022500,-0.045000,0.022500,-0.045000,0.045000,-0.022500,0.045000,0.022500,0*%
%ADD32OCT_32*%
%AMOCT_33*4,1,8,0.050000,0.025000,0.025000,0.050000,-0.025000,0.050000,-0.050000,0.025000,-0.050000,-0.025000,-0.025000,-0.050000,0.025000,-0.050000,0.050000,-0.025000,0.050000,0.025000,0*%
%ADD33OCT_33*%
%AMOCT_34*4,1,8,0.085000,0.042500,0.042500,0.085000,-0.042500,0.085000,-0.085000,0.042500,-0.085000,-0.042500,-0.042500,-0.085000,0.042500,-0.085000,0.085000,-0.042500,0.085000,0.042500,0*%
%ADD34OCT_34*%
G54D23*
X859960Y44975D03*
X859960Y104975D03*
X869960Y512475D03*
X869960Y452475D03*
X869960Y527475D03*
X869960Y587475D03*
X852460Y587475D03*
X497460Y644975D03*
X437460Y644975D03*
X584960Y644975D03*
X644960Y644975D03*
X679960Y527475D03*
X679960Y587475D03*
X679960Y602475D03*
X679960Y662475D03*
X632460Y122475D03*
X632460Y62475D03*
X77460Y124975D03*
X77460Y64975D03*
X707460Y312475D03*
X707460Y252475D03*
X824960Y122475D03*
X824960Y62475D03*
X829960Y719975D03*
X769960Y719975D03*
X924960Y44975D03*
X924960Y104975D03*
X912460Y512475D03*
X912460Y452475D03*
X912460Y587475D03*
X912460Y527475D03*
X922460Y587475D03*
X922460Y647475D03*
X589960Y709975D03*
X649960Y709975D03*
X439960Y709975D03*
X499960Y709975D03*
X437460Y599975D03*
X497460Y599975D03*
X584960Y599975D03*
X644960Y599975D03*
X777460Y587475D03*
X837460Y587475D03*
X897460Y44975D03*
X897460Y104975D03*
X902460Y512475D03*
X902460Y452475D03*
X902460Y587475D03*
X902460Y527475D03*
X437460Y612475D03*
X497460Y612475D03*
X584960Y612475D03*
X644960Y612475D03*
X777460Y602475D03*
X837460Y602475D03*
X887460Y104975D03*
X887460Y44975D03*
X879960Y512475D03*
X879960Y452475D03*
X879960Y587475D03*
X879960Y527475D03*
X977460Y519975D03*
X977460Y459975D03*
X967460Y512475D03*
X967460Y452475D03*
X649960Y537475D03*
X589960Y537475D03*
X654960Y547475D03*
X594960Y547475D03*
X649960Y512475D03*
X589960Y512475D03*
X442460Y729975D03*
X502460Y729975D03*
X417460Y844975D03*
X417460Y784975D03*
X429960Y784975D03*
X429960Y729975D03*
X589960Y729975D03*
X649960Y729975D03*
X569960Y412475D03*
X629960Y412475D03*
X639960Y404975D03*
X699960Y404975D03*
X427460Y412475D03*
X487460Y412475D03*
X387460Y509975D03*
X387460Y449975D03*
X442460Y742475D03*
X502460Y742475D03*
X589960Y742475D03*
X649960Y742475D03*
X442460Y762475D03*
X502460Y762475D03*
X159960Y509975D03*
X159960Y449975D03*
X589960Y762475D03*
X649960Y762475D03*
X442460Y774975D03*
X502460Y774975D03*
X127460Y509975D03*
X127460Y449975D03*
X589960Y774975D03*
X649960Y774975D03*
X97460Y534975D03*
X37460Y534975D03*
X442460Y794975D03*
X502460Y794975D03*
X589960Y794975D03*
X649960Y794975D03*
X102460Y547475D03*
X42460Y547475D03*
X502460Y807475D03*
X442460Y807475D03*
X589960Y807475D03*
X649960Y807475D03*
X97460Y512475D03*
X37460Y512475D03*
X502460Y827475D03*
X442460Y827475D03*
X589960Y827475D03*
X649960Y827475D03*
X569960Y442475D03*
X629960Y442475D03*
X427460Y442475D03*
X487460Y442475D03*
X419960Y509975D03*
X419960Y449975D03*
X572460Y379975D03*
X632460Y379975D03*
X699960Y379975D03*
X639960Y379975D03*
X782460Y312475D03*
X782460Y252475D03*
X427460Y379975D03*
X487460Y379975D03*
X354960Y509975D03*
X354960Y449975D03*
X749960Y102475D03*
X749960Y162475D03*
X629960Y342475D03*
X569960Y342475D03*
X757460Y252475D03*
X757460Y312475D03*
X629960Y354975D03*
X692460Y354975D03*
X424960Y342475D03*
X484960Y342475D03*
X322460Y509975D03*
X322460Y449975D03*
X569960Y312475D03*
X629960Y312475D03*
X732460Y312475D03*
X732460Y252475D03*
X632460Y219975D03*
X692460Y219975D03*
X629960Y329975D03*
X692460Y329975D03*
X422460Y312475D03*
X482460Y312475D03*
X289960Y509975D03*
X289960Y449975D03*
X629960Y279975D03*
X569960Y279975D03*
X422460Y279975D03*
X482460Y279975D03*
X259960Y509975D03*
X259960Y449975D03*
X569960Y247475D03*
X629960Y247475D03*
X422460Y247475D03*
X482460Y247475D03*
X227460Y509975D03*
X227460Y449975D03*
X474960Y119975D03*
X414960Y119975D03*
X194960Y509975D03*
X194960Y449975D03*
X952460Y44975D03*
X952460Y104975D03*
X934980Y512475D03*
X934960Y452475D03*
X934968Y587475D03*
X934960Y527475D03*
X829960Y707475D03*
X769960Y707475D03*
X437460Y632475D03*
X497460Y632475D03*
X584960Y632475D03*
X644960Y632475D03*
X962460Y44975D03*
X962460Y104975D03*
X944960Y452475D03*
X944960Y512475D03*
X944960Y587475D03*
X944960Y527475D03*
X829960Y752475D03*
X769960Y752475D03*
X679960Y752475D03*
X679960Y692475D03*
X417460Y742475D03*
X417460Y682475D03*
X649960Y697475D03*
X589960Y697475D03*
X439960Y697475D03*
X499960Y697475D03*
G54D25*
X839960Y649975D03*
X834960Y649975D03*
X829960Y649975D03*
X824960Y649975D03*
X819960Y649975D03*
X814960Y649975D03*
X809960Y649975D03*
X804960Y649975D03*
X799960Y649975D03*
X794960Y649975D03*
X789960Y649975D03*
X784960Y649975D03*
X839960Y689975D03*
X834960Y689975D03*
X829960Y689975D03*
X824960Y689975D03*
X819960Y689975D03*
X814960Y689975D03*
X809960Y689975D03*
X804960Y689975D03*
X799960Y689975D03*
X794960Y689975D03*
X789960Y689975D03*
X784960Y689975D03*
X277460Y657475D03*
X272460Y657475D03*
X267460Y657475D03*
X262460Y657475D03*
X257460Y657475D03*
X252460Y657475D03*
X247460Y657475D03*
X242460Y657475D03*
X237460Y657475D03*
X232460Y657475D03*
X227460Y657475D03*
X222460Y657475D03*
X277460Y697475D03*
X272460Y697475D03*
X267460Y697475D03*
X262460Y697475D03*
X257460Y697475D03*
X252460Y697475D03*
X247460Y697475D03*
X242460Y697475D03*
X237460Y697475D03*
X232460Y697475D03*
X227460Y697475D03*
X222460Y697475D03*
G54D30*
X952460Y26850D03*
X962460Y26850D03*
G54D31*
X804960Y438100D03*
X794960Y438100D03*
X779960Y438100D03*
X769960Y438100D03*
X754960Y438100D03*
X744960Y438100D03*
X729960Y438100D03*
X719960Y438100D03*
X704960Y438100D03*
X694960Y438100D03*
X679960Y438100D03*
X669960Y438100D03*
X822460Y418100D03*
X812460Y418100D03*
X821210Y393100D03*
X811210Y393100D03*
X819960Y368100D03*
X809960Y368100D03*
X818710Y343100D03*
X808710Y343100D03*
X817460Y318100D03*
X807460Y318100D03*
X816210Y293100D03*
X806210Y293100D03*
X814960Y258100D03*
X804960Y258100D03*
X813710Y233100D03*
X803710Y233100D03*
X812460Y208100D03*
X802460Y208100D03*
X811210Y183100D03*
X801210Y183100D03*
X809960Y158100D03*
X799960Y158100D03*
X808710Y133100D03*
X798710Y133100D03*
X792460Y113100D03*
X782460Y113100D03*
X767460Y113100D03*
X757460Y113100D03*
X742460Y113100D03*
X732460Y113100D03*
X717460Y113100D03*
X707460Y113100D03*
X692460Y113100D03*
X682460Y113100D03*
X667460Y113100D03*
X657460Y113100D03*
X657460Y258100D03*
X647460Y258100D03*
X656210Y233100D03*
X646210Y233100D03*
X654960Y208100D03*
X644960Y208100D03*
X653710Y183100D03*
X643710Y183100D03*
X652460Y158100D03*
X642460Y158100D03*
X651210Y133100D03*
X641210Y133100D03*
X664960Y418100D03*
X654960Y418100D03*
X663710Y393100D03*
X653710Y393100D03*
X662460Y368100D03*
X652460Y368100D03*
X661210Y343100D03*
X651210Y343100D03*
X659960Y318100D03*
X649960Y318100D03*
X658710Y293100D03*
X648710Y293100D03*
X799335Y274975D03*
X789335Y274975D03*
X774335Y274975D03*
X764335Y274975D03*
X749335Y274975D03*
X739335Y274975D03*
X724335Y274975D03*
X714335Y274975D03*
X699335Y274975D03*
X689335Y274975D03*
X674335Y274975D03*
X664335Y274975D03*
X549960Y152475D03*
X539960Y152475D03*
X549960Y129975D03*
X539960Y129975D03*
X529960Y137475D03*
X519960Y137475D03*
X569960Y137475D03*
X559960Y137475D03*
X562460Y112475D03*
X552460Y112475D03*
X537460Y112475D03*
X527460Y112475D03*
G54D32*
X877460Y21850D03*
X877460Y31850D03*
X887460Y21850D03*
X887460Y31850D03*
X897460Y21850D03*
X897460Y31850D03*
X907460Y21850D03*
X907460Y31850D03*
X917460Y21850D03*
X917460Y31850D03*
X1007460Y872475D03*
X997460Y872475D03*
X974960Y872475D03*
X964960Y872475D03*
X942460Y872475D03*
X932460Y872475D03*
X909960Y872475D03*
X899960Y872475D03*
X877460Y872475D03*
X867460Y872475D03*
X844960Y872475D03*
X834960Y872475D03*
X812460Y872475D03*
X802460Y872475D03*
X779960Y872475D03*
X769960Y872475D03*
X747460Y872475D03*
X737460Y872475D03*
X714960Y872475D03*
X704960Y872475D03*
X682460Y872475D03*
X672460Y872475D03*
X649960Y872475D03*
X639960Y872475D03*
X1016210Y492475D03*
X1006210Y492475D03*
X1017460Y524975D03*
X1007460Y524975D03*
X1018710Y557475D03*
X1008710Y557475D03*
X1019960Y589975D03*
X1009960Y589975D03*
X1021210Y622475D03*
X1011210Y622475D03*
X1022460Y654975D03*
X1012460Y654975D03*
X1023710Y687475D03*
X1013710Y687475D03*
X1024960Y719975D03*
X1014960Y719975D03*
X1026210Y752475D03*
X1016210Y752475D03*
X1027460Y784975D03*
X1017460Y784975D03*
X1028710Y817475D03*
X1018710Y817475D03*
X1029960Y849975D03*
X1019960Y849975D03*
X1001210Y102475D03*
X991210Y102475D03*
X1002460Y134975D03*
X992460Y134975D03*
X1003710Y167475D03*
X993710Y167475D03*
X1004960Y199975D03*
X994960Y199975D03*
X1006210Y232475D03*
X996210Y232475D03*
X1007460Y264975D03*
X997460Y264975D03*
X1008710Y297475D03*
X998710Y297475D03*
X1009960Y329975D03*
X999960Y329975D03*
X1011210Y362475D03*
X1001210Y362475D03*
X1012460Y394975D03*
X1002460Y394975D03*
X1013710Y427475D03*
X1003710Y427475D03*
X1014960Y459975D03*
X1004960Y459975D03*
X978710Y79975D03*
X968710Y79975D03*
X946210Y79975D03*
X936210Y79975D03*
X913710Y79975D03*
X903710Y79975D03*
X881210Y79975D03*
X871210Y79975D03*
X848710Y79975D03*
X838710Y79975D03*
X816210Y79975D03*
X806210Y79975D03*
X783710Y79975D03*
X773710Y79975D03*
X751210Y79975D03*
X741210Y79975D03*
X718710Y79975D03*
X708710Y79975D03*
X686210Y79975D03*
X676210Y79975D03*
X653710Y79975D03*
X643710Y79975D03*
X621210Y79975D03*
X611210Y79975D03*
X598710Y102475D03*
X588710Y102475D03*
X599960Y134975D03*
X589960Y134975D03*
X601210Y167475D03*
X591210Y167475D03*
X602460Y199975D03*
X592460Y199975D03*
X603710Y232475D03*
X593710Y232475D03*
X604960Y264975D03*
X594960Y264975D03*
X606210Y297475D03*
X596210Y297475D03*
X607460Y329975D03*
X597460Y329975D03*
X608710Y362475D03*
X598710Y362475D03*
X609960Y394975D03*
X599960Y394975D03*
X611210Y427475D03*
X601210Y427475D03*
X612460Y459975D03*
X602460Y459975D03*
X613710Y492475D03*
X603710Y492475D03*
X614960Y524975D03*
X604960Y524975D03*
X616210Y557475D03*
X606210Y557475D03*
X617460Y589975D03*
X607460Y589975D03*
X618710Y622475D03*
X608710Y622475D03*
X619960Y654975D03*
X609960Y654975D03*
X621210Y687475D03*
X611210Y687475D03*
X622460Y719975D03*
X612460Y719975D03*
X623710Y752475D03*
X613710Y752475D03*
X624960Y784975D03*
X614960Y784975D03*
X626210Y817475D03*
X616210Y817475D03*
X627460Y849975D03*
X617460Y849975D03*
X993710Y474975D03*
X983710Y474975D03*
X961210Y474975D03*
X951210Y474975D03*
X928710Y474975D03*
X918710Y474975D03*
X896210Y474975D03*
X886210Y474975D03*
X863085Y474975D03*
X853085Y474975D03*
X831210Y474975D03*
X821210Y474975D03*
X798710Y474975D03*
X788710Y474975D03*
X766210Y474975D03*
X756210Y474975D03*
X733710Y474975D03*
X723710Y474975D03*
X701210Y474975D03*
X691210Y474975D03*
X668710Y474975D03*
X658710Y474975D03*
X636210Y474975D03*
X626210Y474975D03*
X454960Y872475D03*
X444960Y872475D03*
X422460Y872475D03*
X412460Y872475D03*
X389960Y872475D03*
X379960Y872475D03*
X357460Y872475D03*
X347460Y872475D03*
X324960Y872475D03*
X314960Y872475D03*
X292460Y872475D03*
X282460Y872475D03*
X259960Y872475D03*
X249960Y872475D03*
X227460Y872475D03*
X217460Y872475D03*
X194960Y872475D03*
X184960Y872475D03*
X162460Y872475D03*
X152460Y872475D03*
X129960Y872475D03*
X119960Y872475D03*
X97460Y872475D03*
X87460Y872475D03*
X463710Y492475D03*
X453710Y492475D03*
X464960Y524975D03*
X454960Y524975D03*
X466210Y557475D03*
X456210Y557475D03*
X467460Y589975D03*
X457460Y589975D03*
X468710Y622475D03*
X458710Y622475D03*
X469960Y654975D03*
X459960Y654975D03*
X471210Y687475D03*
X461210Y687475D03*
X472460Y719975D03*
X462460Y719975D03*
X473710Y752475D03*
X463710Y752475D03*
X474960Y784975D03*
X464960Y784975D03*
X476210Y817475D03*
X466210Y817475D03*
X477460Y849975D03*
X467460Y849975D03*
X448710Y102475D03*
X438710Y102475D03*
X449960Y134975D03*
X439960Y134975D03*
X451210Y167475D03*
X441210Y167475D03*
X452460Y199975D03*
X442460Y199975D03*
X453710Y232475D03*
X443710Y232475D03*
X454960Y264975D03*
X444960Y264975D03*
X456210Y297475D03*
X446210Y297475D03*
X457460Y329975D03*
X447460Y329975D03*
X458710Y362475D03*
X448710Y362475D03*
X459960Y394975D03*
X449960Y394975D03*
X461210Y427475D03*
X451210Y427475D03*
X462460Y459975D03*
X452460Y459975D03*
X426210Y79975D03*
X416210Y79975D03*
X393710Y79975D03*
X383710Y79975D03*
X361210Y79975D03*
X351210Y79975D03*
X328710Y79975D03*
X318710Y79975D03*
X296210Y79975D03*
X286210Y79975D03*
X263710Y79975D03*
X253710Y79975D03*
X231210Y79975D03*
X221210Y79975D03*
X198710Y79975D03*
X188710Y79975D03*
X166210Y79975D03*
X156210Y79975D03*
X133710Y79975D03*
X123710Y79975D03*
X101210Y79975D03*
X91210Y79975D03*
X68710Y79975D03*
X58710Y79975D03*
X46210Y102475D03*
X36210Y102475D03*
X47460Y134975D03*
X37460Y134975D03*
X48710Y167475D03*
X38710Y167475D03*
X49960Y199975D03*
X39960Y199975D03*
X51210Y232475D03*
X41210Y232475D03*
X52460Y264975D03*
X42460Y264975D03*
X53710Y297475D03*
X43710Y297475D03*
X54960Y329975D03*
X44960Y329975D03*
X56210Y362475D03*
X46210Y362475D03*
X57460Y394975D03*
X47460Y394975D03*
X58710Y427475D03*
X48710Y427475D03*
X59960Y459975D03*
X49960Y459975D03*
X61210Y492475D03*
X51210Y492475D03*
X62460Y524975D03*
X52460Y524975D03*
X63710Y557475D03*
X53710Y557475D03*
X64960Y589975D03*
X54960Y589975D03*
X66210Y622475D03*
X56210Y622475D03*
X67460Y654975D03*
X57460Y654975D03*
X68710Y687475D03*
X58710Y687475D03*
X69960Y719975D03*
X59960Y719975D03*
X71210Y752475D03*
X61210Y752475D03*
X72460Y784975D03*
X62460Y784975D03*
X73710Y817475D03*
X63710Y817475D03*
X74960Y849975D03*
X64960Y849975D03*
X441210Y474975D03*
X431210Y474975D03*
X408710Y474975D03*
X398710Y474975D03*
X376210Y474975D03*
X366210Y474975D03*
X343710Y474975D03*
X333710Y474975D03*
X310585Y474975D03*
X300585Y474975D03*
X278710Y474975D03*
X268710Y474975D03*
X246210Y474975D03*
X236210Y474975D03*
X213710Y474975D03*
X203710Y474975D03*
X181210Y474975D03*
X171210Y474975D03*
X148710Y474975D03*
X138710Y474975D03*
X116210Y474975D03*
X106210Y474975D03*
X83710Y474975D03*
X73710Y474975D03*
X824960Y22475D03*
X824960Y42475D03*
G54D34*
X1042460Y22475D03*
X1042460Y892475D03*
X22460Y892475D03*
X24960Y22475D03*
X537460Y892475D03*
X537460Y22475D03*
M02*
