%FSLAX35Y35*%
%MOIN*%
%IN2 = Copper bottom L1   ( x.Bot )*%
%ADD10C,0.00591*%
%ADD11C,0.00689*%
%ADD12C,0.00768*%
%ADD13C,0.01100*%
%ADD14C,0.01181*%
%ADD15C,0.01200*%
%ADD16C,0.01772*%
%ADD17C,0.01900*%
%ADD18C,0.02300*%
%ADD19C,0.02362*%
%ADD20C,0.03000*%
%ADD21C,0.03150*%
%ADD22C,0.03500*%
%ADD23C,0.04000*%
%ADD24C,0.04500*%
%ADD25C,0.05000*%
%ADD26C,0.06000*%
%ADD27C,0.08000*%
%ADD28C,0.19685*%
%ADD29R,0.03937X0.06299*%
%ADD30R,0.07000X0.05500*%
%ADD31R,0.07500X0.03000*%
%AMOCT_32*4,1,8,0.040000,0.020000,0.020000,0.040000,-0.020000,0.040000,-0.040000,0.020000,-0.040000,-0.020000,-0.020000,-0.040000,0.020000,-0.040000,0.040000,-0.020000,0.040000,0.020000,0*%
%ADD32OCT_32*%
G54D17*
X97500Y206875D02*
X98750Y206875D01*
X89655Y82844D02*
X90000Y82500D01*
X89655Y82844D02*
X90000Y82500D01*
X89655Y82844D02*
X90000Y82500D01*
X89655Y82844D01*
X90000Y82500D02*
X89655Y82844D01*
X71250Y191875D02*
X61250Y201875D01*
X74375Y223750D02*
X80000Y223750D01*
X106250Y223750D02*
X106250Y196875D01*
X71250Y191875D02*
X90000Y191875D01*
X80000Y214030D02*
X80000Y223750D01*
X106250Y223750D01*
X90000Y82500D02*
X68750Y82500D01*
X90000Y82500D02*
X89655Y82844D01*
X90000Y82500D02*
X89655Y82844D01*
X90000Y82500D02*
X89655Y82844D01*
X65000Y104375D02*
X77500Y116875D01*
X80000Y116875D01*
X80000Y105905D02*
X80000Y116875D01*
X91250Y116875D01*
X65000Y86250D02*
X68750Y82500D01*
X61250Y210625D02*
X74375Y223750D01*
X65000Y104375D02*
X65000Y86250D01*
X61250Y210625D02*
X61250Y201875D01*
X130000Y208125D02*
X130000Y206875D01*
X167500Y41250D02*
X168125Y40625D01*
X185000Y40625D01*
X117500Y36250D02*
X117500Y82500D01*
X122500Y87500D01*
X130000Y87500D01*
X122500Y196875D02*
X117500Y191875D01*
X117500Y123750D01*
X137500Y103750D02*
X137500Y90000D01*
X122500Y196875D02*
X130000Y196875D01*
X117500Y123750D02*
X137500Y103750D01*
X120625Y33125D02*
X117500Y36250D01*
X137500Y90000D02*
X135000Y87500D01*
X130000Y87500D01*
X177500Y53750D02*
X184375Y60625D01*
X159375Y53750D02*
X138750Y33125D01*
X120625Y33125D01*
X184375Y60625D02*
X185000Y60625D01*
X177500Y53750D02*
X159375Y53750D01*
X122500Y38750D02*
X122500Y80000D01*
X125000Y82500D02*
X130000Y82500D01*
X125000Y191875D02*
X122500Y189375D01*
X122500Y126250D02*
X142500Y106250D01*
X142500Y88750D01*
X125000Y191875D02*
X130000Y191875D01*
X125000Y82500D02*
X122500Y80000D01*
X122500Y126250D02*
X122500Y189375D01*
X122500Y38750D02*
X123750Y37500D01*
X142500Y88750D02*
X136250Y82500D01*
X130000Y82500D01*
X183750Y70625D02*
X171875Y58750D01*
X135000Y37500D02*
X156250Y58750D01*
X135000Y37500D02*
X123750Y37500D01*
X156250Y58750D02*
X171875Y58750D01*
X183750Y70625D02*
X185000Y70625D01*
X90000Y151875D02*
X70000Y151875D01*
X58750Y140625D01*
X45000Y140625D01*
X90000Y156875D02*
X68750Y156875D01*
X62500Y150625D01*
X45000Y150625D01*
X90000Y161875D02*
X66250Y161875D01*
X65000Y160625D01*
X45000Y160625D01*
X90000Y166875D02*
X65000Y166875D01*
X61250Y170625D01*
X45000Y170625D01*
X90000Y171875D02*
X66250Y171875D01*
X57500Y180625D01*
X45000Y180625D01*
X90000Y176875D02*
X67500Y176875D01*
X53750Y190625D01*
X45000Y190625D01*
X90000Y181875D02*
X68750Y181875D01*
X50000Y200625D01*
X45000Y200625D01*
X90000Y186875D02*
X70000Y186875D01*
X46250Y210625D01*
X45000Y210625D01*
X130000Y92500D02*
X118750Y92500D01*
X112500Y86250D01*
X112500Y33750D01*
X185000Y48750D02*
X162500Y48750D01*
X117500Y28750D02*
X112500Y33750D01*
X162500Y48750D02*
X142500Y28750D01*
X117500Y28750D01*
X185000Y48750D02*
X185000Y50625D01*
X70000Y206875D02*
X70000Y200625D01*
X73750Y196875D01*
X90000Y196875D01*
X130000Y186875D02*
X155625Y186875D01*
X179375Y210625D01*
X184375Y210625D01*
X130000Y181875D02*
X157500Y181875D01*
X176250Y200625D01*
X184375Y200625D01*
X130000Y176875D02*
X159375Y176875D01*
X173125Y190625D01*
X184375Y190625D01*
X130000Y171875D02*
X161250Y171875D01*
X170000Y180625D01*
X184375Y180625D01*
X130000Y166875D02*
X163125Y166875D01*
X166875Y170625D01*
X184375Y170625D01*
X130000Y161875D02*
X165000Y161875D01*
X166250Y160625D01*
X184375Y160625D01*
X130000Y156875D02*
X162500Y156875D01*
X168750Y150625D01*
X184375Y150625D01*
X130000Y151875D02*
X160000Y151875D01*
X171250Y140625D01*
X184375Y140625D01*
X45000Y36250D02*
X50625Y36250D01*
X56875Y42500D01*
X90000Y42500D01*
X45000Y46250D02*
X53125Y46250D01*
X54375Y47500D01*
X90000Y47500D01*
X45000Y56250D02*
X57500Y56250D01*
X61250Y52500D01*
X90000Y52500D01*
X45000Y66250D02*
X53750Y66250D01*
X62500Y57500D01*
X90000Y57500D01*
X45000Y76250D02*
X50000Y76250D01*
X63750Y62500D01*
X90000Y62500D01*
X45000Y86250D02*
X50000Y86250D01*
X50000Y82500D02*
X65000Y67500D01*
X90000Y67500D01*
X50000Y82500D02*
X50000Y86250D01*
X45000Y96250D02*
X55000Y96250D01*
X55000Y83750D02*
X66250Y72500D01*
X90000Y72500D01*
X55000Y83750D02*
X55000Y96250D01*
X45000Y106250D02*
X60000Y106250D01*
X60000Y85000D02*
X67500Y77500D01*
X90000Y77500D01*
X60000Y85000D02*
X60000Y106250D01*
X90000Y87500D02*
X71250Y87500D01*
X71250Y90000D01*
X112500Y124375D02*
X112500Y194375D01*
X120000Y201875D02*
X130000Y201875D01*
X120000Y201875D02*
X112500Y194375D01*
X80000Y202219D02*
X90000Y201875D01*
X80000Y202219D02*
X78750Y202219D01*
X80000Y202219D02*
X78750Y202219D01*
X80000Y94094D02*
X78750Y92844D01*
X90000Y92500D02*
X80000Y92500D01*
X80000Y94094D01*
X26875Y36250D02*
X6875Y56250D01*
X6875Y140625D01*
X35000Y140625D01*
X130000Y77500D02*
X137500Y77500D01*
X147500Y87500D02*
X147500Y121875D01*
X185625Y121875D01*
X223125Y121875D02*
X223125Y210625D01*
X194375Y210625D01*
X6875Y212500D02*
X38750Y244375D01*
X223125Y244375D01*
X223125Y210625D01*
X147500Y87500D02*
X137500Y77500D01*
X6875Y212500D02*
X6875Y140625D01*
X26875Y36250D02*
X35000Y36250D01*
X29375Y46250D02*
X13750Y61875D01*
X13750Y113125D01*
X13750Y150625D02*
X35000Y150625D01*
X194375Y200625D02*
X216250Y200625D01*
X216250Y113750D01*
X152500Y86250D02*
X138750Y72500D01*
X130000Y72500D01*
X13750Y213125D02*
X38750Y238125D01*
X216250Y238125D01*
X152500Y86250D02*
X152500Y113750D01*
X216250Y200625D02*
X218125Y199375D01*
X178750Y113750D02*
X152500Y113750D01*
X13750Y213125D02*
X13750Y150625D01*
X29375Y46250D02*
X35000Y46250D01*
X35000Y160625D02*
X20625Y160625D01*
X30625Y56250D02*
X35000Y56250D01*
X130000Y67500D02*
X140000Y67500D01*
X157500Y85000D01*
X157500Y105625D02*
X171875Y105625D01*
X209375Y105625D02*
X209375Y190625D01*
X194375Y190625D01*
X204375Y233125D02*
X40000Y233125D01*
X20625Y213750D02*
X20625Y160625D01*
X157500Y85000D02*
X157500Y105625D01*
X209375Y228125D02*
X204375Y233125D01*
X20625Y123125D02*
X20625Y66250D01*
X20625Y213750D02*
X40000Y233125D01*
X30625Y56250D02*
X20625Y66250D01*
X35000Y170625D02*
X27500Y170625D01*
X30000Y66250D02*
X35000Y66250D01*
X130000Y62500D02*
X141250Y62500D01*
X162500Y83750D02*
X162500Y97500D01*
X165000Y97500D01*
X202500Y97500D02*
X202500Y180625D01*
X194375Y180625D01*
X27500Y214375D02*
X41250Y228125D01*
X198125Y228125D01*
X202500Y223750D02*
X202500Y218125D01*
X162500Y83750D02*
X141250Y62500D01*
X27500Y133125D02*
X27500Y68750D01*
X27500Y214375D02*
X27500Y170625D01*
X30000Y66250D02*
X27500Y68750D01*
X202500Y223750D02*
X198125Y228125D01*
G54D18*
X100969Y216875D02*
X98750Y214655D01*
X98750Y206875D01*
X112780Y216875D02*
X117500Y216875D01*
X117500Y208125D01*
X105280Y109375D02*
X105625Y105625D01*
X105280Y109375D02*
X105280Y106250D01*
X105625Y105625D02*
X106875Y97500D01*
X130000Y97500D01*
G54D20*
X98750Y97500D02*
X98750Y37500D01*
X98750Y97500D02*
X90000Y97500D01*
X90000Y206875D02*
X98750Y206875D01*
X98750Y109375D01*
X195000Y60625D02*
X205000Y60625D01*
X198750Y31875D02*
X168750Y31875D01*
X151875Y15000D02*
X98750Y15000D01*
X98750Y37500D01*
X205000Y38125D02*
X205000Y60625D01*
X151875Y15000D02*
X168750Y31875D01*
X198750Y31875D02*
X205000Y38125D01*
X93469Y109375D02*
X98750Y109375D01*
X98750Y97500D01*
G54D22*
X117500Y208125D02*
X130000Y208125D01*
G54D23*
X195000Y50625D02*
X195000Y40625D01*
X185000Y40625D01*
X185000Y80625D02*
X195000Y80625D01*
X195000Y70625D01*
X35000Y180625D02*
X35000Y190625D01*
X35000Y200625D01*
X35000Y210625D01*
X35000Y106250D02*
X35000Y96250D01*
X35000Y86250D01*
X35000Y76250D01*
X194375Y170625D02*
X194375Y160625D01*
X194375Y150625D01*
X194375Y140625D01*
G54D24*
X130000Y98750D02*
X117500Y98750D01*
X106250Y98750D02*
X106250Y116875D01*
X106250Y196875D02*
X117500Y208125D01*
X117500Y98750D02*
X106250Y98750D01*
X106250Y116875D02*
X106250Y196875D01*
X106250Y22500D02*
X106250Y98750D01*
X35000Y213125D02*
X41250Y219375D01*
X55000Y219375D01*
X55000Y123750D02*
X35000Y123750D01*
X35000Y106250D01*
X194375Y130625D02*
X194375Y140625D01*
X35000Y213125D02*
X35000Y210625D01*
X167500Y66250D02*
X167500Y71875D01*
X176250Y80625D01*
X185000Y80625D01*
G54D25*
X106250Y22500D02*
X148125Y22500D01*
X166250Y40625D02*
X168125Y40625D01*
X148125Y22500D02*
X166250Y40625D01*
X168125Y40625D02*
X185000Y40625D01*
X55000Y130625D02*
X90625Y130625D01*
X194375Y130625D02*
X194375Y80625D01*
X195000Y80625D01*
X55000Y123750D02*
X55000Y130625D01*
X130000Y130625D02*
X194375Y130625D01*
G54D26*
X106250Y116875D03*
X91250Y116875D03*
X112500Y124375D03*
X71250Y90000D03*
X55000Y219375D03*
X55000Y130625D03*
X90625Y130625D03*
X130000Y130625D03*
X223125Y121875D03*
X185625Y121875D03*
X216250Y200625D03*
X216250Y238125D03*
X216250Y113750D03*
X178750Y113750D03*
X13750Y150625D03*
X13750Y113125D03*
X209375Y190625D03*
X209375Y228125D03*
X209375Y105625D03*
X171875Y105625D03*
X20625Y160625D03*
X20625Y123125D03*
X202500Y180625D03*
X202500Y218125D03*
X202500Y97500D03*
X165000Y97500D03*
X27500Y170625D03*
X27500Y133125D03*
G54D27*
X167500Y66250D03*
X167500Y41250D03*
X195000Y40625D03*
X185000Y40625D03*
X195000Y50625D03*
X185000Y50625D03*
X195000Y60625D03*
X185000Y60625D03*
X195000Y70625D03*
X185000Y70625D03*
X195000Y80625D03*
X185000Y80625D03*
X45000Y36250D03*
X35000Y36250D03*
X45000Y46250D03*
X35000Y46250D03*
X45000Y56250D03*
X35000Y56250D03*
X45000Y66250D03*
X35000Y66250D03*
X45000Y76250D03*
X35000Y76250D03*
X45000Y86250D03*
X35000Y86250D03*
X45000Y96250D03*
X35000Y96250D03*
X45000Y106250D03*
X35000Y106250D03*
X184375Y210625D03*
X194375Y210625D03*
X184375Y200625D03*
X194375Y200625D03*
X184375Y190625D03*
X194375Y190625D03*
X184375Y180625D03*
X194375Y180625D03*
X184375Y170625D03*
X194375Y170625D03*
X184375Y160625D03*
X194375Y160625D03*
X184375Y150625D03*
X194375Y150625D03*
X184375Y140625D03*
X194375Y140625D03*
X45000Y140625D03*
X35000Y140625D03*
X45000Y150625D03*
X35000Y150625D03*
X45000Y160625D03*
X35000Y160625D03*
X45000Y170625D03*
X35000Y170625D03*
X45000Y180625D03*
X35000Y180625D03*
X45000Y190625D03*
X35000Y190625D03*
X45000Y200625D03*
X35000Y200625D03*
X45000Y210625D03*
X35000Y210625D03*
G54D28*
X66875Y15000D03*
X216875Y15000D03*
X161250Y213750D03*
X13750Y237500D03*
G54D29*
X93469Y109375D03*
X105280Y109375D03*
X100969Y216875D03*
X112780Y216875D03*
G54D30*
X80000Y105905D03*
X80000Y94094D03*
X80000Y214030D03*
X80000Y202219D03*
G54D31*
X130000Y97500D03*
X130000Y92500D03*
X130000Y87500D03*
X130000Y82500D03*
X130000Y77500D03*
X130000Y67500D03*
X130000Y62500D03*
X130000Y57500D03*
X130000Y47500D03*
X130000Y42500D03*
X90000Y42500D03*
X90000Y47500D03*
X90000Y52500D03*
X90000Y57500D03*
X90000Y62500D03*
X90000Y67500D03*
X90000Y72500D03*
X90000Y77500D03*
X90000Y82500D03*
X90000Y87500D03*
X130000Y72500D03*
X90000Y92500D03*
X130000Y52500D03*
X90000Y97500D03*
X130000Y206875D03*
X130000Y201875D03*
X130000Y196875D03*
X130000Y191875D03*
X130000Y186875D03*
X130000Y176875D03*
X130000Y171875D03*
X130000Y166875D03*
X130000Y156875D03*
X130000Y151875D03*
X90000Y151875D03*
X90000Y156875D03*
X90000Y161875D03*
X90000Y166875D03*
X90000Y171875D03*
X90000Y176875D03*
X90000Y181875D03*
X90000Y186875D03*
X90000Y191875D03*
X90000Y196875D03*
X130000Y181875D03*
X90000Y201875D03*
X130000Y161875D03*
X90000Y206875D03*
G54D32*
X70000Y206875D03*
M02*
