%FSLAX35Y35*%
%MOIN*%
%IN16 = Copper top L2   ( x.Top )*%
%ADD10C,0.00591*%
%ADD11C,0.00787*%
%ADD12C,0.01024*%
%ADD13C,0.01181*%
%ADD14C,0.02362*%
%ADD15C,0.02400*%
%ADD16C,0.03000*%
%ADD17C,0.03150*%
%ADD18C,0.03200*%
%ADD19C,0.04000*%
%ADD20C,0.05000*%
%ADD21C,0.08000*%
%ADD22C,0.09000*%
%ADD23R,0.03000X0.02000*%
%ADD24R,0.03000X0.05000*%
%ADD25R,0.03543X0.06299*%
%ADD26R,0.03937X0.06299*%
%ADD27R,0.07087X0.02756*%
G54D15*
X230460Y44350D02*
X230460Y182850D01*
X222460Y190850D01*
X192960Y190850D01*
X146960Y190850D02*
X119960Y190850D01*
X130460Y34850D02*
X130460Y41850D01*
X136460Y47850D01*
X191960Y47850D01*
X197460Y53350D01*
X197460Y130850D01*
X120460Y34850D02*
X120460Y45350D01*
X129460Y54350D01*
X185460Y54350D01*
X192460Y61350D01*
X192460Y113350D01*
X167960Y113350D02*
X167960Y159350D01*
X221960Y15850D02*
X221960Y157850D01*
X215460Y164350D01*
X193460Y164350D01*
X3960Y96350D02*
X57460Y96350D01*
X130960Y108350D02*
X130960Y159350D01*
X185460Y365850D02*
X185460Y275350D01*
X162460Y252350D01*
X162460Y190350D01*
X179460Y173350D01*
X179460Y149350D01*
X215460Y245850D02*
X215460Y239850D01*
X210460Y234850D01*
X171960Y234850D01*
X167460Y230350D01*
X167460Y193350D01*
X184460Y176350D01*
X184460Y144350D01*
X215460Y115850D02*
X215460Y121350D01*
X197460Y139350D01*
X179460Y139350D01*
X185460Y85850D02*
X185460Y133350D01*
X184460Y134350D01*
X65460Y115850D02*
X65460Y101350D01*
X68960Y97850D01*
X175960Y97850D01*
X179460Y101350D01*
X179460Y129350D01*
X65460Y245850D02*
X72960Y238350D01*
X72960Y106350D01*
X76460Y102850D01*
X170960Y102850D01*
X173460Y105350D01*
X173460Y124350D01*
X185460Y225850D02*
X185460Y183350D01*
X189460Y179350D01*
X189460Y149350D01*
X243460Y168350D02*
X243460Y274350D01*
X227460Y290350D01*
X192460Y290350D01*
X105460Y231350D02*
X105460Y114350D01*
X100460Y119350D02*
X100460Y179850D01*
X77960Y202350D01*
X77960Y299350D01*
X100460Y321850D01*
X163960Y321850D01*
X196460Y321850D02*
X227960Y321850D01*
X237960Y311850D01*
X237960Y291350D01*
X95960Y124850D02*
X95960Y172350D01*
X91460Y176850D01*
X135960Y92350D02*
X135960Y77350D01*
X27460Y160850D02*
X67960Y160850D01*
X91460Y160850D02*
X91460Y134350D01*
X18960Y185350D02*
X64960Y185350D01*
X80960Y185350D02*
X80960Y139350D01*
X11960Y190850D02*
X68460Y190850D01*
X82960Y190850D02*
X86460Y187350D01*
X86460Y144350D01*
X77960Y190850D02*
X82960Y190850D01*
G54D18*
X134960Y217350D02*
X134960Y205350D01*
X134960Y217350D02*
X134960Y300350D01*
X138960Y304350D01*
X166460Y304350D01*
X174460Y312350D01*
X174460Y335850D01*
X199960Y34350D02*
X204460Y38850D01*
X204460Y50850D01*
G54D19*
X204460Y50850D02*
X204460Y104850D01*
X152960Y108350D02*
X144960Y108350D01*
X139460Y113850D01*
X139460Y162350D01*
G54D20*
X242960Y85850D03*
X134960Y217350D03*
X134960Y205350D03*
X174460Y335850D03*
X204460Y50850D03*
X204460Y104850D03*
X152960Y108350D03*
X139460Y162350D03*
X230460Y44350D03*
X192960Y190850D03*
X146960Y190850D03*
X119960Y190850D03*
X197460Y130850D03*
X192460Y113350D03*
X167960Y113350D03*
X167960Y159350D03*
X221960Y15850D03*
X193460Y164350D03*
X3960Y96350D03*
X57460Y96350D03*
X130960Y108350D03*
X130960Y159350D03*
X179460Y149350D03*
X184460Y144350D03*
X179460Y139350D03*
X184460Y134350D03*
X179460Y129350D03*
X173460Y124350D03*
X189460Y149350D03*
X164460Y91350D03*
X243460Y168350D03*
X192460Y290350D03*
X105460Y231350D03*
X105460Y114350D03*
X243460Y156850D03*
X100460Y119350D03*
X163960Y321850D03*
X196460Y321850D03*
X237960Y291350D03*
X243460Y145350D03*
X95960Y124850D03*
X91460Y176850D03*
X243460Y133850D03*
X135960Y92350D03*
X135960Y77350D03*
X242960Y122850D03*
X27460Y160850D03*
X67960Y160850D03*
X91460Y160850D03*
X91460Y134350D03*
X242960Y110850D03*
X18960Y185350D03*
X64960Y185350D03*
X80960Y185350D03*
X80960Y139350D03*
X242960Y98850D03*
X11960Y190850D03*
X86460Y144350D03*
X77960Y190850D03*
X68460Y190850D03*
X66460Y129850D03*
G54D21*
X150460Y24850D03*
X140460Y24850D03*
X130460Y24850D03*
X120460Y24850D03*
X110460Y24850D03*
X150460Y34850D03*
X140460Y34850D03*
X130460Y34850D03*
X120460Y34850D03*
X110460Y34850D03*
X91460Y27350D03*
X81460Y27350D03*
X85460Y365850D03*
X95460Y365850D03*
X115460Y365850D03*
X125460Y365850D03*
X145460Y365850D03*
X155460Y365850D03*
X175460Y365850D03*
X185460Y365850D03*
X205460Y335850D03*
X215460Y335850D03*
X205460Y305850D03*
X215460Y305850D03*
X205460Y275850D03*
X215460Y275850D03*
X205460Y245850D03*
X215460Y245850D03*
X205460Y205850D03*
X215460Y205850D03*
X205460Y175850D03*
X215460Y175850D03*
X205460Y145850D03*
X215460Y145850D03*
X205460Y115850D03*
X215460Y115850D03*
X85460Y85850D03*
X95460Y85850D03*
X115460Y85850D03*
X125460Y85850D03*
X145460Y85850D03*
X155460Y85850D03*
X175460Y85850D03*
X185460Y85850D03*
X55460Y205850D03*
X65460Y205850D03*
X55460Y175850D03*
X65460Y175850D03*
X55460Y145850D03*
X65460Y145850D03*
X55460Y115850D03*
X65460Y115850D03*
X55460Y335850D03*
X65460Y335850D03*
X55460Y305850D03*
X65460Y305850D03*
X55460Y275850D03*
X65460Y275850D03*
X55460Y245850D03*
X65460Y245850D03*
X85460Y225850D03*
X95460Y225850D03*
X115460Y225850D03*
X125460Y225850D03*
X145460Y225850D03*
X155460Y225850D03*
X175460Y225850D03*
X185460Y225850D03*
G54D22*
X199960Y14350D03*
X199960Y34350D03*
M02*
