%FSLAX35Y35*%
%MOIN*%
%IN16 = Copper top L2   ( x.Top )*%
%ADD10C,0.00591*%
%ADD11C,0.00750*%
%ADD12C,0.00787*%
%ADD13C,0.01024*%
%ADD14C,0.01181*%
%ADD15C,0.01500*%
%ADD16C,0.02362*%
%ADD17C,0.02400*%
%ADD18C,0.02756*%
%ADD19C,0.03000*%
%ADD20C,0.03150*%
%ADD21C,0.03200*%
%ADD22C,0.04000*%
%ADD23C,0.05000*%
%ADD24C,0.08000*%
%ADD25C,0.09000*%
%ADD26C,0.15748*%
%ADD27R,0.03000X0.02000*%
%ADD28R,0.03000X0.05000*%
%ADD29R,0.03543X0.06299*%
%ADD30R,0.03937X0.06299*%
%ADD31R,0.07087X0.02756*%
G54D17*
X303460Y44350D02*
X303460Y182850D01*
X295460Y190850D01*
X265960Y190850D01*
X219960Y190850D02*
X192960Y190850D01*
X203460Y34850D02*
X203460Y41850D01*
X209460Y47850D01*
X264960Y47850D01*
X270460Y53350D01*
X270460Y130850D01*
X193460Y34850D02*
X193460Y45350D01*
X202460Y54350D01*
X258460Y54350D01*
X265460Y61350D01*
X265460Y113350D01*
X240960Y113350D02*
X240960Y159350D01*
X294960Y15850D02*
X294960Y157850D01*
X288460Y164350D01*
X266460Y164350D01*
X76960Y96350D02*
X130460Y96350D01*
X203960Y108350D02*
X203960Y159350D01*
X258460Y365850D02*
X258460Y275350D01*
X235460Y252350D01*
X235460Y190350D01*
X252460Y173350D01*
X252460Y149350D01*
X288460Y245850D02*
X288460Y239850D01*
X283460Y234850D01*
X244960Y234850D01*
X240460Y230350D01*
X240460Y193350D01*
X257460Y176350D01*
X257460Y144350D01*
X288460Y115850D02*
X288460Y121350D01*
X270460Y139350D01*
X252460Y139350D01*
X258460Y85850D02*
X258460Y133350D01*
X257460Y134350D01*
X138460Y115850D02*
X138460Y101350D01*
X141960Y97850D01*
X248960Y97850D01*
X252460Y101350D01*
X252460Y129350D01*
X138460Y245850D02*
X145960Y238350D01*
X145960Y106350D01*
X149460Y102850D01*
X243960Y102850D01*
X246460Y105350D01*
X246460Y124350D01*
X258460Y225850D02*
X258460Y183350D01*
X262460Y179350D01*
X262460Y149350D01*
X237460Y91350D02*
X237460Y79350D01*
X230460Y72350D01*
X26460Y72350D01*
X13460Y85350D01*
X13460Y220850D01*
X20460Y227850D01*
X39460Y227850D01*
X62460Y227850D02*
X68460Y233850D01*
X68460Y260350D01*
X39460Y227850D02*
X39460Y245350D01*
X39460Y227850D02*
X62460Y227850D01*
X496960Y365850D02*
X496960Y371350D01*
X490960Y377350D01*
X341960Y377350D01*
X333460Y368850D01*
X333460Y168350D01*
X316460Y168350D02*
X316460Y274350D01*
X300460Y290350D01*
X265460Y290350D01*
X178460Y231350D02*
X178460Y114350D01*
X526960Y245850D02*
X526960Y236350D01*
X521960Y231350D01*
X508460Y231350D01*
X496960Y242850D01*
X399960Y242850D01*
X381960Y260850D01*
X365460Y260850D01*
X349960Y245350D01*
X349960Y162850D01*
X343960Y156850D01*
X333460Y156850D01*
X173460Y119350D02*
X173460Y179850D01*
X150960Y202350D01*
X150960Y299350D01*
X173460Y321850D01*
X236960Y321850D01*
X269460Y321850D02*
X300960Y321850D01*
X310960Y311850D01*
X310960Y291350D01*
X386960Y160350D02*
X364960Y160350D01*
X349960Y145350D01*
X333460Y145350D01*
X168960Y124850D02*
X168960Y172350D01*
X164460Y176850D01*
X383460Y133850D02*
X333460Y133850D01*
X208960Y92350D02*
X208960Y77350D01*
X100460Y160850D02*
X140960Y160850D01*
X164460Y160850D02*
X164460Y134350D01*
X376960Y245850D02*
X376960Y227850D01*
X396460Y208350D01*
X396460Y133850D01*
X390960Y128350D01*
X357960Y128350D01*
X354460Y124850D01*
X354460Y113850D01*
X351460Y110850D01*
X333460Y110850D01*
X91960Y185350D02*
X137960Y185350D01*
X153960Y185350D02*
X153960Y139350D01*
X496960Y225850D02*
X529460Y225850D01*
X540460Y214850D01*
X540460Y111850D01*
X527460Y98850D01*
X333460Y98850D01*
X84960Y190850D02*
X141460Y190850D01*
X155960Y190850D02*
X159460Y187350D01*
X159460Y144350D01*
X150960Y190850D02*
X155960Y190850D01*
X139460Y129850D02*
X77460Y129850D01*
X77460Y118850D01*
X77460Y129850D02*
X68460Y129850D01*
X77460Y118850D02*
X73960Y115350D01*
X39960Y115350D01*
G54D21*
X315960Y85850D02*
X333460Y85850D01*
X207960Y217350D02*
X207960Y205350D01*
X207960Y217350D02*
X207960Y300350D01*
X211960Y304350D01*
X239460Y304350D01*
X247460Y312350D01*
X247460Y335850D01*
X240960Y6350D02*
X240960Y25350D01*
X272960Y34350D02*
X277460Y38850D01*
X277460Y50850D01*
X333460Y168350D02*
X316460Y168350D01*
X333460Y156850D02*
X316460Y156850D01*
X333460Y145350D02*
X316460Y145350D01*
X333460Y133850D02*
X316460Y133850D01*
X333460Y122850D02*
X315960Y122850D01*
X333460Y110850D02*
X315960Y110850D01*
X333460Y98850D02*
X315960Y98850D01*
G54D22*
X504460Y105350D02*
X504460Y173350D01*
X487960Y189850D01*
X446960Y189850D01*
X446960Y205350D02*
X446960Y236350D01*
X277460Y50850D02*
X277460Y104850D01*
X225960Y108350D02*
X217960Y108350D01*
X212460Y113850D01*
X212460Y162350D01*
G54D23*
X315960Y85850D03*
X333460Y85850D03*
X504460Y105350D03*
X446960Y189850D03*
X446960Y205350D03*
X446960Y236350D03*
X207960Y217350D03*
X207960Y205350D03*
X247460Y335850D03*
X240960Y6350D03*
X240960Y25350D03*
X277460Y50850D03*
X277460Y104850D03*
X225960Y108350D03*
X212460Y162350D03*
X303460Y44350D03*
X265960Y190850D03*
X219960Y190850D03*
X192960Y190850D03*
X270460Y130850D03*
X265460Y113350D03*
X240960Y113350D03*
X240960Y159350D03*
X294960Y15850D03*
X266460Y164350D03*
X76960Y96350D03*
X130460Y96350D03*
X203960Y108350D03*
X203960Y159350D03*
X252460Y149350D03*
X257460Y144350D03*
X252460Y139350D03*
X257460Y134350D03*
X252460Y129350D03*
X246460Y124350D03*
X262460Y149350D03*
X237460Y91350D03*
X333460Y168350D03*
X316460Y168350D03*
X265460Y290350D03*
X178460Y231350D03*
X178460Y114350D03*
X333460Y156850D03*
X316460Y156850D03*
X173460Y119350D03*
X236960Y321850D03*
X269460Y321850D03*
X310960Y291350D03*
X386960Y160350D03*
X333460Y145350D03*
X316460Y145350D03*
X168960Y124850D03*
X164460Y176850D03*
X383460Y133850D03*
X333460Y133850D03*
X316460Y133850D03*
X208960Y92350D03*
X208960Y77350D03*
X333460Y122850D03*
X315960Y122850D03*
X100460Y160850D03*
X140960Y160850D03*
X164460Y160850D03*
X164460Y134350D03*
X333460Y110850D03*
X315960Y110850D03*
X91960Y185350D03*
X137960Y185350D03*
X153960Y185350D03*
X153960Y139350D03*
X333460Y98850D03*
X315960Y98850D03*
X84960Y190850D03*
X159460Y144350D03*
X150960Y190850D03*
X141460Y190850D03*
X139460Y129850D03*
G54D24*
X223460Y24850D03*
X213460Y24850D03*
X203460Y24850D03*
X193460Y24850D03*
X183460Y24850D03*
X223460Y34850D03*
X213460Y34850D03*
X203460Y34850D03*
X193460Y34850D03*
X183460Y34850D03*
X164460Y27350D03*
X154460Y27350D03*
X158460Y365850D03*
X168460Y365850D03*
X188460Y365850D03*
X198460Y365850D03*
X218460Y365850D03*
X228460Y365850D03*
X248460Y365850D03*
X258460Y365850D03*
X278460Y335850D03*
X288460Y335850D03*
X278460Y305850D03*
X288460Y305850D03*
X278460Y275850D03*
X288460Y275850D03*
X278460Y245850D03*
X288460Y245850D03*
X278460Y205850D03*
X288460Y205850D03*
X278460Y175850D03*
X288460Y175850D03*
X278460Y145850D03*
X288460Y145850D03*
X278460Y115850D03*
X288460Y115850D03*
X158460Y85850D03*
X168460Y85850D03*
X188460Y85850D03*
X198460Y85850D03*
X218460Y85850D03*
X228460Y85850D03*
X248460Y85850D03*
X258460Y85850D03*
X128460Y205850D03*
X138460Y205850D03*
X128460Y175850D03*
X138460Y175850D03*
X128460Y145850D03*
X138460Y145850D03*
X128460Y115850D03*
X138460Y115850D03*
X128460Y335850D03*
X138460Y335850D03*
X128460Y305850D03*
X138460Y305850D03*
X128460Y275850D03*
X138460Y275850D03*
X128460Y245850D03*
X138460Y245850D03*
X158460Y225850D03*
X168460Y225850D03*
X188460Y225850D03*
X198460Y225850D03*
X218460Y225850D03*
X228460Y225850D03*
X248460Y225850D03*
X258460Y225850D03*
X28960Y335850D03*
X38960Y335850D03*
X29460Y304850D03*
X39460Y304850D03*
X29460Y275350D03*
X39460Y275350D03*
X29460Y245350D03*
X39460Y245350D03*
X397960Y365850D03*
X407960Y365850D03*
X427460Y365850D03*
X437460Y365850D03*
X456960Y365850D03*
X466960Y365850D03*
X486960Y365850D03*
X496960Y365850D03*
X516960Y335850D03*
X526960Y335850D03*
X516960Y305850D03*
X526960Y305850D03*
X516960Y275850D03*
X526960Y275850D03*
X516960Y245850D03*
X526960Y245850D03*
X516960Y205850D03*
X526960Y205850D03*
X516960Y175850D03*
X526960Y175850D03*
X516960Y145850D03*
X526960Y145850D03*
X516960Y115850D03*
X526960Y115850D03*
X396960Y85850D03*
X406960Y85850D03*
X426960Y85850D03*
X436960Y85850D03*
X456960Y85850D03*
X466960Y85850D03*
X486960Y85850D03*
X496960Y85850D03*
X366960Y205850D03*
X376960Y205850D03*
X366960Y175850D03*
X376960Y175850D03*
X366960Y145850D03*
X376960Y145850D03*
X366960Y115850D03*
X376960Y115850D03*
X366960Y335850D03*
X376960Y335850D03*
X366960Y305850D03*
X376960Y305850D03*
X366960Y275850D03*
X376960Y275850D03*
X366960Y245850D03*
X376960Y245850D03*
X396960Y225850D03*
X406960Y225850D03*
X426960Y225850D03*
X436960Y225850D03*
X456960Y225850D03*
X466960Y225850D03*
X486960Y225850D03*
X496960Y225850D03*
X29460Y205350D03*
X39460Y205350D03*
X29460Y175350D03*
X39460Y175350D03*
X29460Y145350D03*
X39460Y145350D03*
X29960Y115350D03*
X39960Y115350D03*
X58460Y159850D03*
X68460Y159850D03*
X58460Y129850D03*
X68460Y129850D03*
X58460Y290350D03*
X68460Y290350D03*
X58460Y260350D03*
X68460Y260350D03*
G54D25*
X272960Y14350D03*
X272960Y34350D03*
M02*
