%FSLAX35Y35*%
%MOIN*%
%IN2 = Copper bottom L1   ( x.Bot )*%
%ADD10C,0.00591*%
%ADD11C,0.00787*%
%ADD12C,0.01024*%
%ADD13C,0.01181*%
%ADD14C,0.01600*%
%ADD15C,0.02362*%
%ADD16C,0.02400*%
%ADD17C,0.03000*%
%ADD18C,0.03150*%
%ADD19C,0.03200*%
%ADD20C,0.04000*%
%ADD21C,0.05000*%
%ADD22C,0.08000*%
%ADD23C,0.09000*%
%ADD24R,0.03000X0.02000*%
%ADD25R,0.03000X0.05000*%
%ADD26R,0.03543X0.06299*%
%ADD27R,0.03937X0.06299*%
%ADD28R,0.07087X0.02756*%
G54D16*
X368055Y85850D02*
X368555Y86350D01*
X212366Y182350D02*
X212366Y170850D01*
X212366Y169944D02*
X212460Y169850D01*
X226450Y169850D01*
X226858Y169442D01*
X212169Y197350D02*
X212169Y182547D01*
X212366Y182350D01*
X212169Y182547D02*
X212366Y182350D01*
X212169Y182547D02*
X212366Y182350D01*
X212169Y182547D02*
X212366Y182350D01*
X212169Y182547D02*
X212366Y182350D01*
X212169Y182547D01*
X212366Y182350D02*
X212169Y182547D01*
X212366Y182350D02*
X212169Y182547D01*
X212366Y170850D02*
X212366Y162350D01*
X212366Y170850D02*
X212366Y169944D01*
X212366Y157255D02*
X209553Y154442D01*
X189062Y154442D01*
X212366Y162350D02*
X212366Y157255D01*
X212460Y162350D02*
X212366Y162350D01*
X200751Y197350D02*
X195460Y197350D01*
X192960Y194850D01*
X192960Y190850D01*
X192960Y177850D02*
X196460Y174350D01*
X196460Y171350D01*
X194553Y169442D01*
X189062Y169442D01*
X213460Y34850D02*
X213460Y41350D01*
X216460Y44350D01*
X303460Y44350D01*
X265960Y190850D02*
X219960Y190850D01*
X192960Y190850D02*
X192960Y177850D01*
X270460Y130850D02*
X270460Y150850D01*
X266960Y154350D01*
X226950Y154350D01*
X226858Y154442D01*
X226950Y154350D02*
X226858Y154442D01*
X226950Y154350D02*
X226858Y154442D01*
X226950Y154350D01*
X226858Y154442D02*
X226950Y154350D01*
X265460Y113350D02*
X240960Y113350D01*
X240868Y159442D02*
X226858Y159442D01*
X240868Y159442D02*
X240960Y159350D01*
X164460Y27350D02*
X164460Y21350D01*
X168960Y16850D01*
X266460Y164350D02*
X226858Y164442D01*
X168960Y16850D02*
X247960Y16850D01*
X258960Y5850D01*
X290960Y5850D01*
X294960Y9850D01*
X294960Y15850D01*
X154460Y27350D02*
X154460Y45850D01*
X148960Y51350D01*
X84460Y51350D01*
X76960Y58850D01*
X76960Y96350D01*
X130460Y96350D02*
X146960Y96350D01*
X158960Y108350D01*
X188970Y159350D02*
X189062Y159442D01*
X188970Y159350D02*
X189062Y159442D01*
X188970Y159350D02*
X189062Y159442D01*
X188970Y159350D01*
X189062Y159442D02*
X188970Y159350D01*
X158960Y108350D02*
X203960Y108350D01*
X203868Y159442D02*
X189062Y159442D01*
X203868Y159442D02*
X203960Y159350D01*
X189062Y159442D02*
X188970Y159350D01*
X189062Y159442D02*
X188970Y159350D01*
X189062Y159442D02*
X188970Y159350D01*
X252460Y149350D02*
X226950Y149350D01*
X226858Y149442D01*
X226950Y149350D02*
X226858Y149442D01*
X226950Y149350D02*
X226858Y149442D01*
X226950Y149350D01*
X226858Y149442D02*
X226950Y149350D01*
X257460Y144350D02*
X226950Y144350D01*
X226858Y144442D01*
X226950Y144350D02*
X226858Y144442D01*
X226950Y144350D02*
X226858Y144442D01*
X226950Y144350D01*
X226858Y144442D02*
X226950Y144350D01*
X252460Y139350D02*
X226950Y139350D01*
X226858Y139442D01*
X226950Y139350D02*
X226858Y139442D01*
X226950Y139350D02*
X226858Y139442D01*
X226950Y139350D01*
X226858Y139442D02*
X226950Y139350D01*
X257368Y134442D02*
X226858Y134442D01*
X257368Y134442D02*
X257460Y134350D01*
X252368Y129442D02*
X226858Y129442D01*
X252368Y129442D02*
X252460Y129350D01*
X246460Y124350D02*
X226950Y124350D01*
X226858Y124442D01*
X226950Y124350D02*
X226858Y124442D01*
X226950Y124350D02*
X226858Y124442D01*
X226950Y124350D01*
X226858Y124442D02*
X226950Y124350D01*
X262460Y149350D02*
X262460Y124850D01*
X256960Y119350D01*
X226950Y119350D01*
X226858Y119442D01*
X226950Y119350D02*
X226858Y119442D01*
X226950Y119350D02*
X226858Y119442D01*
X226950Y119350D01*
X226858Y119442D02*
X226950Y119350D01*
X237960Y91850D02*
X237460Y91350D01*
X237460Y96850D01*
X234460Y99850D01*
X215960Y99850D01*
X214460Y101350D01*
X214460Y110850D01*
X217960Y114350D01*
X226765Y114350D01*
X226858Y114442D01*
X226765Y114350D02*
X226858Y114442D01*
X226765Y114350D02*
X226858Y114442D01*
X226765Y114350D01*
X226858Y114442D02*
X226765Y114350D01*
X265460Y290350D02*
X183960Y290350D01*
X178460Y284850D01*
X178460Y231350D01*
X178553Y114442D02*
X189062Y114442D01*
X178553Y114442D02*
X178460Y114350D01*
X189062Y119442D02*
X173553Y119442D01*
X173460Y119350D02*
X173553Y119442D01*
X236960Y321850D02*
X269460Y321850D01*
X310960Y291350D02*
X310960Y158350D01*
X312460Y156850D01*
X316460Y156850D01*
X526960Y115850D02*
X526960Y108850D01*
X521960Y103850D01*
X515960Y103850D01*
X497960Y121850D01*
X405960Y121850D01*
X386960Y140850D01*
X386960Y160350D01*
X189062Y124442D02*
X169368Y124442D01*
X168960Y124850D01*
X164460Y176850D02*
X180460Y176850D01*
X183960Y180350D01*
X183960Y204350D01*
X190960Y211350D01*
X241460Y211350D01*
X245460Y215350D01*
X300460Y215350D01*
X304960Y210850D01*
X304960Y148850D01*
X308460Y145350D01*
X316460Y145350D01*
X496960Y85850D02*
X496960Y109350D01*
X491460Y114850D01*
X386460Y114850D01*
X383460Y117850D01*
X383460Y133850D01*
X189062Y129442D02*
X206368Y129442D01*
X208960Y126850D01*
X208960Y92350D01*
X208960Y77350D02*
X282960Y77350D01*
X289960Y84350D01*
X289960Y105850D01*
X310960Y126850D01*
X316460Y132350D01*
X316460Y133850D01*
X376960Y115850D02*
X376960Y106350D01*
X372960Y102350D01*
X346460Y102350D01*
X341460Y107350D01*
X341460Y120350D01*
X338960Y122850D01*
X333460Y122850D01*
X315960Y122850D02*
X296460Y103350D01*
X296460Y76350D01*
X290960Y70850D01*
X109460Y70850D01*
X99960Y80350D01*
X100460Y80850D01*
X100460Y160850D01*
X140960Y160850D02*
X164460Y160850D01*
X164553Y134442D02*
X189062Y134442D01*
X164553Y134442D02*
X164460Y134350D01*
X315960Y110850D02*
X302460Y97350D01*
X97960Y64350D02*
X91960Y70350D01*
X91960Y185350D01*
X137960Y185350D02*
X153960Y185350D01*
X154053Y139442D02*
X189062Y139442D01*
X154053Y139442D02*
X153960Y139350D01*
X302460Y97350D02*
X302460Y70350D01*
X296460Y64350D01*
X97960Y64350D01*
X315960Y98850D02*
X311460Y98850D01*
X308960Y96350D01*
X308960Y66350D01*
X299960Y57350D01*
X90960Y57350D01*
X84960Y63350D01*
X84960Y190850D01*
X159553Y144442D02*
X189062Y144442D01*
X159553Y144442D02*
X159460Y144350D01*
X141460Y190850D02*
X150960Y190850D01*
X189062Y149442D02*
X152053Y149442D01*
X148960Y146350D01*
X148960Y132350D01*
X146460Y129850D01*
X139460Y129850D01*
X158460Y225850D02*
X158460Y206755D01*
X157555Y205850D01*
X396960Y225850D02*
X396055Y224944D01*
X200555Y182350D02*
X200555Y166444D01*
X198460Y164350D01*
X189155Y164350D01*
X189062Y164442D01*
X189155Y164350D02*
X189062Y164442D01*
X189155Y164350D02*
X189062Y164442D01*
X189155Y164350D01*
X189062Y164442D02*
X189155Y164350D01*
G54D19*
X169366Y205850D02*
X169366Y212755D01*
X173960Y217350D01*
X207960Y217350D01*
X207960Y205350D02*
X254555Y205350D01*
X255055Y205850D01*
X247460Y335850D02*
X254555Y335850D01*
X247460Y335850D02*
X247460Y348850D01*
X241460Y354850D01*
X130055Y354850D01*
X85960Y354850D02*
X81460Y350350D01*
X81460Y346850D01*
X81460Y243350D02*
X97460Y227350D01*
X97460Y216350D01*
X97460Y205944D02*
X97555Y205850D01*
X97460Y205944D02*
X97555Y205850D01*
X97460Y205944D02*
X97555Y205850D01*
X97460Y205944D01*
X97555Y205850D02*
X97460Y205944D01*
X3055Y205350D02*
X3055Y335850D01*
X3055Y342944D01*
X6960Y346850D01*
X81460Y346850D02*
X6960Y346850D01*
X81460Y346850D02*
X81460Y335850D01*
X81460Y307850D02*
X69366Y307850D01*
X81460Y307850D02*
X81460Y243350D01*
X81460Y335850D02*
X97555Y335850D01*
X81460Y335850D02*
X81460Y307850D01*
X130055Y354850D02*
X130055Y365850D01*
X130055Y354850D02*
X85960Y354850D01*
X97460Y216350D02*
X80960Y216350D01*
X97460Y216350D02*
X97460Y205944D01*
X80960Y216350D02*
X70366Y205755D01*
X70366Y176850D01*
X97555Y205850D02*
X97555Y199755D01*
X97555Y205850D02*
X97460Y205944D01*
X97555Y205850D02*
X97460Y205944D01*
X97555Y205850D02*
X97460Y205944D01*
X97555Y205850D02*
X97460Y205944D01*
X97555Y199755D02*
X110460Y186850D01*
X110460Y90850D01*
X115460Y85850D01*
X130055Y85850D01*
X3055Y205350D02*
X3055Y30755D01*
X27460Y6350D01*
X240960Y6350D01*
X240960Y25350D02*
X240460Y25350D01*
X272960Y14350D02*
X272960Y25350D01*
X158460Y365850D02*
X141866Y365850D01*
X168460Y365850D02*
X188460Y365850D01*
X198460Y365850D02*
X218460Y365850D01*
X228460Y365850D02*
X248460Y365850D01*
X278460Y335850D02*
X266366Y335850D01*
X288460Y335850D02*
X288460Y326850D01*
X278460Y316850D01*
X278460Y305850D01*
X288460Y305850D02*
X288460Y295850D01*
X278460Y285850D01*
X278460Y275850D01*
X288460Y275850D02*
X288460Y266350D01*
X278460Y256350D01*
X278460Y245850D01*
X266866Y205850D02*
X278460Y205850D01*
X288460Y205850D02*
X288460Y196350D01*
X278460Y186350D01*
X278460Y175850D01*
X288460Y175850D02*
X288460Y165850D01*
X278460Y155850D01*
X278460Y145850D01*
X288460Y145850D02*
X288460Y135850D01*
X278460Y125850D01*
X278460Y115850D01*
X158460Y85850D02*
X141866Y85850D01*
X188460Y85850D02*
X168460Y85850D01*
X218460Y85850D02*
X198460Y85850D01*
X248460Y85850D02*
X228460Y85850D01*
X128460Y205850D02*
X109366Y205850D01*
X128460Y175850D02*
X128460Y185350D01*
X138460Y195350D01*
X138460Y205850D01*
X128460Y145850D02*
X128460Y155850D01*
X138460Y165850D01*
X138460Y175850D01*
X128460Y115850D02*
X128460Y126350D01*
X138460Y136350D01*
X138460Y145850D01*
X128460Y335850D02*
X109366Y335850D01*
X128460Y305850D02*
X128460Y315350D01*
X138460Y325350D01*
X138460Y335850D01*
X128460Y275850D02*
X128460Y285350D01*
X138460Y295350D01*
X138460Y305850D01*
X128460Y245850D02*
X128460Y255850D01*
X138460Y265850D01*
X138460Y275850D01*
X168460Y225850D02*
X188460Y225850D01*
X198460Y225850D02*
X218460Y225850D01*
X228460Y225850D02*
X248460Y225850D01*
X14866Y335850D02*
X28960Y335850D01*
X38960Y335850D02*
X38960Y325350D01*
X29460Y315850D01*
X29460Y304850D01*
X39460Y304850D02*
X39460Y295350D01*
X29460Y285350D01*
X29460Y275350D01*
X39460Y275350D02*
X39460Y266350D01*
X29460Y256350D01*
X29460Y245350D01*
X397960Y365850D02*
X379366Y365850D01*
X407960Y365850D02*
X427460Y365850D01*
X437460Y365850D02*
X456960Y365850D01*
X466960Y365850D02*
X486960Y365850D01*
X501866Y335850D02*
X516960Y335850D01*
X526960Y335850D02*
X526960Y326850D01*
X516960Y316850D01*
X516960Y305850D01*
X526960Y305850D02*
X526960Y296850D01*
X516960Y286850D01*
X516960Y275850D01*
X526960Y275850D02*
X526960Y265350D01*
X516960Y255350D01*
X516960Y245850D01*
X502366Y205850D02*
X516960Y205850D01*
X526960Y205850D02*
X526960Y195850D01*
X516960Y185850D01*
X516960Y175850D01*
X526960Y175850D02*
X526960Y166850D01*
X516960Y156850D01*
X516960Y145850D01*
X526960Y145850D02*
X526960Y137350D01*
X516960Y127350D01*
X516960Y115850D01*
X396960Y85850D02*
X396460Y86350D01*
X380366Y86350D01*
X426960Y85850D02*
X406960Y85850D01*
X456960Y85850D02*
X436960Y85850D01*
X486960Y85850D02*
X466960Y85850D01*
X366960Y205850D02*
X355366Y205850D01*
X366960Y175850D02*
X366960Y185850D01*
X376960Y195850D01*
X376960Y205850D01*
X366960Y145850D02*
X366960Y155350D01*
X376960Y165350D01*
X376960Y175850D01*
X366960Y115850D02*
X366960Y123350D01*
X376960Y133350D01*
X376960Y145850D01*
X366960Y335850D02*
X355366Y335850D01*
X366960Y305850D02*
X366960Y315350D01*
X376960Y325350D01*
X376960Y335850D01*
X366960Y275850D02*
X366960Y284850D01*
X376960Y294850D01*
X376960Y305850D01*
X366960Y245850D02*
X366960Y255350D01*
X376960Y265350D01*
X376960Y275850D01*
X396055Y224944D02*
X396055Y205850D01*
X406960Y225850D02*
X426960Y225850D01*
X436960Y225850D02*
X456960Y225850D01*
X466960Y225850D02*
X486960Y225850D01*
X29460Y205350D02*
X14866Y205350D01*
X39460Y205350D02*
X39460Y195350D01*
X29460Y185350D01*
X29460Y175350D01*
X39460Y175350D02*
X39460Y167350D01*
X29460Y157350D01*
X29460Y145350D01*
X39460Y145350D02*
X39460Y136350D01*
X29960Y126850D01*
X29960Y115350D01*
X58460Y176755D02*
X58460Y159850D01*
X58460Y176755D02*
X58555Y176850D01*
X68460Y159850D02*
X68460Y150850D01*
X58460Y140850D01*
X58460Y129850D01*
X58460Y290350D02*
X57460Y291350D01*
X57460Y307755D01*
X57555Y307850D01*
X57460Y307755D02*
X57555Y307850D01*
X57460Y307755D02*
X57555Y307850D01*
X57460Y307755D01*
X57555Y307850D02*
X57460Y307755D01*
X68460Y290350D02*
X68460Y281350D01*
X58460Y271350D01*
X58460Y260350D01*
G54D20*
X203460Y24850D02*
X213460Y24850D01*
X223460Y24850D01*
X223460Y34850D01*
X333460Y85850D02*
X349960Y85850D01*
X349960Y77350D01*
X349960Y85850D02*
X368055Y85850D01*
X349960Y77350D02*
X358460Y68850D01*
X496960Y68850D01*
X504460Y76350D01*
X504460Y105350D01*
X407866Y205850D02*
X446960Y205850D01*
X446960Y205350D01*
X446960Y205850D02*
X490555Y205850D01*
X446960Y205350D02*
X446960Y189850D01*
X446960Y236350D02*
X446960Y335850D01*
X446960Y343850D02*
X440960Y349850D01*
X367460Y349850D01*
X347960Y349850D02*
X343555Y345444D01*
X343555Y335850D01*
X367460Y349850D02*
X367460Y365755D01*
X367460Y349850D02*
X347960Y349850D01*
X367460Y365755D02*
X367555Y365850D01*
X367460Y365755D02*
X367555Y365850D01*
X367460Y365755D02*
X367555Y365850D01*
X367460Y365755D01*
X367555Y365850D02*
X367460Y365755D01*
X490055Y335850D02*
X446960Y335850D01*
X446960Y343850D01*
X315960Y85850D02*
X315960Y44350D01*
X296960Y25350D01*
X272960Y25350D01*
X223960Y25350D02*
X223460Y24850D01*
X240460Y25350D02*
X223960Y25350D01*
X272960Y25350D02*
X240460Y25350D01*
X343555Y205850D02*
X343555Y217444D01*
X352460Y226350D01*
X373960Y226350D01*
X388960Y211350D01*
X388960Y193850D01*
X392960Y189850D01*
X446960Y189850D01*
X183460Y34350D02*
X183460Y24850D01*
X193460Y24850D01*
X183460Y34350D02*
X183460Y44850D01*
X189460Y50850D01*
X277460Y50850D01*
X277460Y104850D02*
X239460Y104850D01*
X235960Y108350D01*
X225960Y108350D01*
G54D21*
X315960Y85850D03*
X333460Y85850D03*
X504460Y105350D03*
X446960Y189850D03*
X446960Y205350D03*
X446960Y236350D03*
X207960Y217350D03*
X207960Y205350D03*
X247460Y335850D03*
X240960Y6350D03*
X240960Y25350D03*
X277460Y50850D03*
X277460Y104850D03*
X225960Y108350D03*
X212460Y162350D03*
X303460Y44350D03*
X265960Y190850D03*
X219960Y190850D03*
X192960Y190850D03*
X270460Y130850D03*
X265460Y113350D03*
X240960Y113350D03*
X240960Y159350D03*
X294960Y15850D03*
X266460Y164350D03*
X76960Y96350D03*
X130460Y96350D03*
X203960Y108350D03*
X203960Y159350D03*
X252460Y149350D03*
X257460Y144350D03*
X252460Y139350D03*
X257460Y134350D03*
X252460Y129350D03*
X246460Y124350D03*
X262460Y149350D03*
X237460Y91350D03*
X333460Y168350D03*
X316460Y168350D03*
X265460Y290350D03*
X178460Y231350D03*
X178460Y114350D03*
X333460Y156850D03*
X316460Y156850D03*
X173460Y119350D03*
X236960Y321850D03*
X269460Y321850D03*
X310960Y291350D03*
X386960Y160350D03*
X333460Y145350D03*
X316460Y145350D03*
X168960Y124850D03*
X164460Y176850D03*
X383460Y133850D03*
X333460Y133850D03*
X316460Y133850D03*
X208960Y92350D03*
X208960Y77350D03*
X333460Y122850D03*
X315960Y122850D03*
X100460Y160850D03*
X140960Y160850D03*
X164460Y160850D03*
X164460Y134350D03*
X333460Y110850D03*
X315960Y110850D03*
X91960Y185350D03*
X137960Y185350D03*
X153960Y185350D03*
X153960Y139350D03*
X333460Y98850D03*
X315960Y98850D03*
X84960Y190850D03*
X159460Y144350D03*
X150960Y190850D03*
X141460Y190850D03*
X139460Y129850D03*
G54D22*
X223460Y24850D03*
X213460Y24850D03*
X203460Y24850D03*
X193460Y24850D03*
X183460Y24850D03*
X223460Y34850D03*
X213460Y34850D03*
X203460Y34850D03*
X193460Y34850D03*
X183460Y34850D03*
X164460Y27350D03*
X154460Y27350D03*
X158460Y365850D03*
X168460Y365850D03*
X188460Y365850D03*
X198460Y365850D03*
X218460Y365850D03*
X228460Y365850D03*
X248460Y365850D03*
X258460Y365850D03*
X278460Y335850D03*
X288460Y335850D03*
X278460Y305850D03*
X288460Y305850D03*
X278460Y275850D03*
X288460Y275850D03*
X278460Y245850D03*
X288460Y245850D03*
X278460Y205850D03*
X288460Y205850D03*
X278460Y175850D03*
X288460Y175850D03*
X278460Y145850D03*
X288460Y145850D03*
X278460Y115850D03*
X288460Y115850D03*
X158460Y85850D03*
X168460Y85850D03*
X188460Y85850D03*
X198460Y85850D03*
X218460Y85850D03*
X228460Y85850D03*
X248460Y85850D03*
X258460Y85850D03*
X128460Y205850D03*
X138460Y205850D03*
X128460Y175850D03*
X138460Y175850D03*
X128460Y145850D03*
X138460Y145850D03*
X128460Y115850D03*
X138460Y115850D03*
X128460Y335850D03*
X138460Y335850D03*
X128460Y305850D03*
X138460Y305850D03*
X128460Y275850D03*
X138460Y275850D03*
X128460Y245850D03*
X138460Y245850D03*
X158460Y225850D03*
X168460Y225850D03*
X188460Y225850D03*
X198460Y225850D03*
X218460Y225850D03*
X228460Y225850D03*
X248460Y225850D03*
X258460Y225850D03*
X28960Y335850D03*
X38960Y335850D03*
X29460Y304850D03*
X39460Y304850D03*
X29460Y275350D03*
X39460Y275350D03*
X29460Y245350D03*
X39460Y245350D03*
X397960Y365850D03*
X407960Y365850D03*
X427460Y365850D03*
X437460Y365850D03*
X456960Y365850D03*
X466960Y365850D03*
X486960Y365850D03*
X496960Y365850D03*
X516960Y335850D03*
X526960Y335850D03*
X516960Y305850D03*
X526960Y305850D03*
X516960Y275850D03*
X526960Y275850D03*
X516960Y245850D03*
X526960Y245850D03*
X516960Y205850D03*
X526960Y205850D03*
X516960Y175850D03*
X526960Y175850D03*
X516960Y145850D03*
X526960Y145850D03*
X516960Y115850D03*
X526960Y115850D03*
X396960Y85850D03*
X406960Y85850D03*
X426960Y85850D03*
X436960Y85850D03*
X456960Y85850D03*
X466960Y85850D03*
X486960Y85850D03*
X496960Y85850D03*
X366960Y205850D03*
X376960Y205850D03*
X366960Y175850D03*
X376960Y175850D03*
X366960Y145850D03*
X376960Y145850D03*
X366960Y115850D03*
X376960Y115850D03*
X366960Y335850D03*
X376960Y335850D03*
X366960Y305850D03*
X376960Y305850D03*
X366960Y275850D03*
X376960Y275850D03*
X366960Y245850D03*
X376960Y245850D03*
X396960Y225850D03*
X406960Y225850D03*
X426960Y225850D03*
X436960Y225850D03*
X456960Y225850D03*
X466960Y225850D03*
X486960Y225850D03*
X496960Y225850D03*
X29460Y205350D03*
X39460Y205350D03*
X29460Y175350D03*
X39460Y175350D03*
X29460Y145350D03*
X39460Y145350D03*
X29960Y115350D03*
X39960Y115350D03*
X58460Y159850D03*
X68460Y159850D03*
X58460Y129850D03*
X68460Y129850D03*
X58460Y290350D03*
X68460Y290350D03*
X58460Y260350D03*
X68460Y260350D03*
G54D23*
X272960Y14350D03*
X272960Y34350D03*
G54D26*
X200751Y197350D03*
X212169Y197350D03*
G54D27*
X141866Y365850D03*
X130055Y365850D03*
X266366Y335850D03*
X254555Y335850D03*
X266866Y205850D03*
X255055Y205850D03*
X141866Y85850D03*
X130055Y85850D03*
X109366Y205850D03*
X97555Y205850D03*
X109366Y335850D03*
X97555Y335850D03*
X157555Y205850D03*
X169366Y205850D03*
X14866Y335850D03*
X3055Y335850D03*
X379366Y365850D03*
X367555Y365850D03*
X501866Y335850D03*
X490055Y335850D03*
X502366Y205850D03*
X490555Y205850D03*
X380366Y86350D03*
X368555Y86350D03*
X355366Y205850D03*
X343555Y205850D03*
X355366Y335850D03*
X343555Y335850D03*
X396055Y205850D03*
X407866Y205850D03*
X14866Y205350D03*
X3055Y205350D03*
X212366Y182350D03*
X200555Y182350D03*
X58555Y176850D03*
X70366Y176850D03*
X57555Y307850D03*
X69366Y307850D03*
G54D28*
X226858Y169442D03*
X226858Y164442D03*
X226858Y159442D03*
X226858Y154442D03*
X226858Y149442D03*
X226858Y144442D03*
X226858Y139442D03*
X226858Y134442D03*
X226858Y129442D03*
X226858Y124442D03*
X226858Y119442D03*
X226858Y114442D03*
X189062Y114442D03*
X189062Y119442D03*
X189062Y124442D03*
X189062Y129442D03*
X189062Y134442D03*
X189062Y139442D03*
X189062Y144442D03*
X189062Y149442D03*
X189062Y154442D03*
X189062Y159442D03*
X189062Y164442D03*
X189062Y169442D03*
M02*
