%FSLAX35Y35*%
%MOIN*%
%IN16 = Copper top L2   ( x.Top )*%
%ADD10C,0.00591*%
%ADD11C,0.00750*%
%ADD12C,0.00768*%
%ADD13C,0.00886*%
%ADD14C,0.01100*%
%ADD15C,0.01181*%
%ADD16C,0.01200*%
%ADD17C,0.01500*%
%ADD18C,0.01575*%
%ADD19C,0.02000*%
%ADD20C,0.02362*%
%ADD21C,0.02756*%
%ADD22C,0.02800*%
%ADD23C,0.03150*%
%ADD24C,0.03200*%
%ADD25C,0.04000*%
%ADD26C,0.05000*%
%ADD27C,0.06000*%
%ADD28C,0.08000*%
%ADD29C,0.10000*%
%ADD30C,0.15748*%
%ADD31C,0.23622*%
%ADD32R,0.04500X0.07000*%
%ADD33R,0.05000X0.04000*%
%ADD34R,0.07000X0.05500*%
%ADD35R,0.19685X0.04375*%
%ADD36R,0.19685X0.19685*%
%AMOCT_37*4,1,8,0.036000,0.027000,0.018000,0.045000,-0.018000,0.045000,-0.036000,0.027000,-0.036000,-0.027000,-0.018000,-0.045000,0.018000,-0.045000,0.036000,-0.027000,0.036000,0.027000,0*%
%ADD37OCT_37*%
G54D24*
X243125Y292500D02*
X299375Y292500D01*
X334375Y292500D02*
X392500Y292500D01*
X498125Y292500D02*
X556250Y292500D01*
X498125Y303750D02*
X556250Y303750D01*
X95625Y88750D02*
X95625Y30776D01*
X352500Y88750D02*
X352500Y30151D01*
X546875Y125625D02*
X546875Y69375D01*
X537500Y118750D02*
X537500Y61250D01*
X537500Y60151D01*
X537500Y61250D02*
X537500Y60151D01*
X512500Y106875D02*
X512500Y53778D01*
X380000Y106250D02*
X380000Y46401D01*
X340625Y96250D02*
X340625Y38276D01*
X231875Y386250D02*
X231875Y338115D01*
X485000Y387500D02*
X485000Y338740D01*
G54D27*
X556250Y292500D03*
X498125Y292500D03*
X334375Y292500D03*
X392500Y292500D03*
X243125Y292500D03*
X299375Y292500D03*
X498125Y303750D03*
X556250Y303750D03*
X95625Y88750D03*
X95625Y30776D03*
X352500Y88750D03*
X352500Y30151D03*
X95625Y88750D03*
X95625Y30776D03*
X546875Y69375D03*
X546875Y125625D03*
X537500Y61250D03*
X537500Y118750D03*
X512500Y53778D03*
X512500Y106875D03*
X380000Y46401D03*
X380000Y106250D03*
X340625Y38276D03*
X340625Y96250D03*
X231875Y338115D03*
X231875Y386250D03*
X485000Y338740D03*
X485000Y387500D03*
G54D37*
X16250Y345000D03*
X26250Y345000D03*
X16250Y310625D03*
X26250Y310625D03*
X16250Y276875D03*
X26250Y276875D03*
X16250Y243125D03*
X26250Y243125D03*
X15625Y106250D03*
X25625Y106250D03*
X15625Y140000D03*
X25625Y140000D03*
X15625Y173750D03*
X25625Y173750D03*
X15625Y208125D03*
X25625Y208125D03*
X395000Y360625D03*
X405000Y360625D03*
X428750Y360625D03*
X438750Y360625D03*
X463125Y360000D03*
X473125Y360000D03*
X497500Y360625D03*
X507500Y360625D03*
X360000Y345000D03*
X370000Y345000D03*
X360000Y310625D03*
X370000Y310625D03*
X360000Y276875D03*
X370000Y276875D03*
X360000Y243125D03*
X370000Y243125D03*
X492500Y226250D03*
X502500Y226250D03*
X458125Y225625D03*
X468125Y225625D03*
X423750Y226250D03*
X433750Y226250D03*
X390000Y226250D03*
X400000Y226250D03*
X497500Y91250D03*
X507500Y91250D03*
X463125Y90625D03*
X473125Y90625D03*
X428750Y91250D03*
X438750Y91250D03*
X395000Y91250D03*
X405000Y91250D03*
X522500Y246250D03*
X532500Y246250D03*
X522500Y280000D03*
X532500Y280000D03*
X522500Y313750D03*
X532500Y313750D03*
X522500Y348125D03*
X532500Y348125D03*
X359375Y106250D03*
X369375Y106250D03*
X359375Y140000D03*
X369375Y140000D03*
X359375Y173750D03*
X369375Y173750D03*
X359375Y208125D03*
X369375Y208125D03*
X522500Y108125D03*
X532500Y108125D03*
X522500Y141875D03*
X532500Y141875D03*
X522500Y175625D03*
X532500Y175625D03*
X522500Y210000D03*
X532500Y210000D03*
X268750Y210000D03*
X278750Y210000D03*
X268750Y175625D03*
X278750Y175625D03*
X268750Y141875D03*
X278750Y141875D03*
X268750Y108125D03*
X278750Y108125D03*
X105625Y208125D03*
X115625Y208125D03*
X105625Y173750D03*
X115625Y173750D03*
X105625Y140000D03*
X115625Y140000D03*
X105625Y106250D03*
X115625Y106250D03*
X268750Y348125D03*
X278750Y348125D03*
X268750Y313750D03*
X278750Y313750D03*
X268750Y280000D03*
X278750Y280000D03*
X268750Y246250D03*
X278750Y246250D03*
X141250Y91250D03*
X151250Y91250D03*
X175000Y91250D03*
X185000Y91250D03*
X209375Y90625D03*
X219375Y90625D03*
X243750Y91250D03*
X253750Y91250D03*
X136250Y226250D03*
X146250Y226250D03*
X170000Y226250D03*
X180000Y226250D03*
X204375Y225625D03*
X214375Y225625D03*
X238750Y226250D03*
X248750Y226250D03*
X106250Y243125D03*
X116250Y243125D03*
X106250Y276875D03*
X116250Y276875D03*
X106250Y310625D03*
X116250Y310625D03*
X106250Y345000D03*
X116250Y345000D03*
X243750Y360625D03*
X253750Y360625D03*
X209375Y360000D03*
X219375Y360000D03*
X175000Y360625D03*
X185000Y360625D03*
X141250Y360625D03*
X151250Y360625D03*
M02*
