%FSLAX35Y35*%
%MOIN*%
%IN2 = Copper bottom L1   ( x.Bot )*%
%ADD10C,0.00591*%
%ADD11C,0.00750*%
%ADD12C,0.00768*%
%ADD13C,0.00886*%
%ADD14C,0.01100*%
%ADD15C,0.01181*%
%ADD16C,0.01200*%
%ADD17C,0.01500*%
%ADD18C,0.01575*%
%ADD19C,0.02000*%
%ADD20C,0.02362*%
%ADD21C,0.02756*%
%ADD22C,0.02800*%
%ADD23C,0.03150*%
%ADD24C,0.03200*%
%ADD25C,0.04000*%
%ADD26C,0.05000*%
%ADD27C,0.06000*%
%ADD28C,0.08000*%
%ADD29C,0.10000*%
%ADD30C,0.15748*%
%ADD31C,0.23622*%
%ADD32R,0.04500X0.07000*%
%ADD33R,0.05000X0.04000*%
%ADD34R,0.07000X0.05500*%
%ADD35R,0.19685X0.04375*%
%ADD36R,0.19685X0.19685*%
%AMOCT_37*4,1,8,0.036000,0.027000,0.018000,0.045000,-0.018000,0.045000,-0.036000,0.027000,-0.036000,-0.027000,-0.018000,-0.045000,0.018000,-0.045000,0.036000,-0.027000,0.036000,0.027000,0*%
%ADD37OCT_37*%
G54D22*
X583125Y71875D02*
X583125Y61875D01*
X588750Y77500D02*
X583125Y71875D01*
X583125Y61875D02*
X588125Y56875D01*
G54D24*
X243464Y324030D02*
X243464Y330634D01*
X243125Y324030D02*
X243464Y324030D01*
X578125Y126250D02*
X564375Y126250D01*
X564375Y292500D01*
X556250Y292500D01*
X480625Y292500D02*
X392500Y292500D01*
X243125Y292500D02*
X243125Y303750D01*
X498125Y292500D02*
X480625Y292500D01*
X334375Y292500D02*
X299375Y292500D01*
X231875Y303750D02*
X243125Y303750D01*
X231875Y312219D02*
X231875Y303750D01*
X588750Y126250D02*
X578125Y126250D01*
X588750Y88750D02*
X588750Y126250D01*
X588750Y88750D02*
X588750Y77500D01*
X588125Y56875D02*
X589030Y56875D01*
X243125Y312219D02*
X243125Y303750D01*
X496250Y331259D02*
X495964Y331259D01*
X495964Y324655D02*
X495964Y331259D01*
X495625Y324655D02*
X495964Y324655D01*
X495964Y331259D02*
X496250Y331259D01*
X496250Y303750D02*
X498125Y303750D01*
X573125Y303750D02*
X573125Y136250D01*
X578125Y136250D01*
X556250Y303750D02*
X573125Y303750D01*
X485000Y303750D02*
X496250Y303750D01*
X485000Y312844D02*
X485000Y303750D01*
X578125Y136250D02*
X596250Y136250D01*
X596250Y66875D01*
X596250Y46875D01*
X589030Y66875D02*
X596250Y66875D01*
X596250Y46875D02*
X589030Y46875D01*
X496250Y312844D02*
X496250Y303750D01*
X495625Y312844D02*
X496250Y312844D01*
X496250Y303750D02*
X498125Y303750D01*
X263125Y221875D02*
X263750Y221250D01*
X268750Y216250D02*
X268750Y210000D01*
X263750Y221875D02*
X263750Y221250D01*
X246875Y205000D02*
X263750Y221875D01*
X246875Y193750D02*
X246875Y205000D01*
X105625Y216875D02*
X105625Y208125D01*
X108125Y219375D02*
X105625Y216875D01*
X126250Y219375D02*
X108125Y219375D01*
X151875Y193750D02*
X126250Y219375D01*
X246875Y193750D02*
X151875Y193750D01*
X263750Y221250D02*
X268750Y216250D01*
X263750Y221250D02*
X268750Y216250D01*
X263125Y236250D02*
X263125Y221875D01*
X255625Y243750D02*
X263125Y236250D01*
X255625Y323750D02*
X255625Y243750D01*
X106250Y345000D02*
X106250Y351875D01*
X110000Y355625D01*
X123750Y355625D01*
X136250Y346875D01*
X255625Y346875D01*
X97500Y343125D02*
X106250Y351875D01*
X106250Y345000D01*
X522500Y216250D02*
X522500Y210000D01*
X517500Y221875D02*
X517500Y221250D01*
X500625Y205000D02*
X517500Y221875D01*
X500625Y193750D02*
X500625Y205000D01*
X359375Y216875D02*
X359375Y208125D01*
X361875Y219375D02*
X359375Y216875D01*
X380000Y219375D02*
X361875Y219375D01*
X405625Y193750D02*
X380000Y219375D01*
X500625Y193750D02*
X405625Y193750D01*
X517500Y221250D02*
X522500Y216250D01*
X517500Y221250D02*
X522500Y216250D01*
X517500Y235625D02*
X517500Y221250D01*
X509375Y243750D02*
X517500Y235625D01*
X509375Y346875D02*
X509375Y341250D01*
X360000Y345000D02*
X360000Y351875D01*
X363750Y355625D01*
X377500Y355625D01*
X386875Y346875D01*
X509375Y346875D01*
X360000Y351875D02*
X360000Y345000D01*
X263125Y221875D02*
X263750Y221250D01*
X268750Y216250D02*
X268750Y210000D01*
X263750Y221875D02*
X263750Y221250D01*
X246875Y205000D02*
X263750Y221875D01*
X246875Y193750D02*
X246875Y205000D01*
X15625Y208750D02*
X15625Y208125D01*
X4375Y345000D02*
X16250Y345000D01*
X4375Y251250D02*
X4375Y345000D01*
X15625Y208750D02*
X15625Y208125D01*
X4375Y345000D02*
X16250Y345000D01*
X4375Y251250D02*
X4375Y345000D01*
X15625Y208750D02*
X4375Y208750D01*
X4375Y251250D01*
X4375Y345000D02*
X4375Y358125D01*
X37500Y358125D01*
X37500Y343125D01*
X97500Y343125D01*
X255625Y346875D02*
X255625Y348125D01*
X268750Y348125D01*
X289375Y360625D02*
X253750Y360625D01*
X289375Y256250D02*
X300625Y245000D01*
X289375Y256250D02*
X289375Y360625D01*
X544375Y251875D02*
X555625Y240625D01*
X544375Y251875D02*
X544375Y360625D01*
X538125Y76875D02*
X300625Y76875D01*
X555625Y240625D02*
X555625Y116875D01*
X300625Y245000D02*
X300625Y76875D01*
X128750Y360625D02*
X123750Y355625D01*
X141250Y360625D02*
X128750Y360625D01*
X133125Y226250D02*
X126250Y219375D01*
X136250Y226250D02*
X133125Y226250D01*
X248750Y231875D02*
X248750Y226250D01*
X241875Y238750D02*
X248750Y231875D01*
X133125Y238750D02*
X241875Y238750D01*
X120625Y226250D02*
X133125Y238750D01*
X95625Y226250D02*
X120625Y226250D01*
X99375Y29375D02*
X332500Y29526D01*
X95625Y226250D02*
X95625Y88750D01*
X533743Y30006D02*
X546875Y16875D01*
X349375Y29375D02*
X333750Y29375D01*
X352500Y30151D02*
X533743Y30006D01*
X349375Y91875D02*
X352500Y88750D01*
X99375Y29375D02*
X332500Y29526D01*
X95625Y226250D02*
X95625Y88750D01*
X141250Y183125D02*
X151875Y193750D01*
X141250Y91250D02*
X141250Y183125D01*
X253750Y91250D02*
X259375Y91250D01*
X259375Y55000D02*
X259375Y91250D01*
X509375Y346875D02*
X509375Y348125D01*
X522500Y348125D01*
X507500Y360625D02*
X544375Y360625D01*
X395000Y360625D02*
X382500Y360625D01*
X377500Y355625D01*
X349375Y226250D02*
X375625Y226250D01*
X390000Y240625D01*
X495625Y240625D01*
X502500Y233750D01*
X502500Y226250D01*
X390000Y226250D02*
X383125Y219375D01*
X380000Y219375D01*
X395000Y183125D02*
X405625Y193750D01*
X395000Y91250D02*
X395000Y183125D01*
X349375Y29375D02*
X352500Y30151D01*
X333750Y29375D02*
X332500Y29526D01*
X561875Y79375D02*
X551875Y79375D01*
X561875Y16875D02*
X546875Y16875D01*
X538125Y76875D02*
X540625Y79375D01*
X545625Y79375D01*
X561875Y79375D02*
X561875Y76875D01*
X555625Y116875D02*
X545625Y106875D01*
X545625Y79375D01*
X551875Y79375D01*
X99375Y29375D02*
X95625Y30776D01*
X99375Y29375D02*
X95625Y30776D01*
X349375Y91875D02*
X349375Y226250D01*
X263125Y221875D02*
X263750Y221250D01*
X268750Y216250D02*
X268750Y210000D01*
X263750Y221875D02*
X263750Y221250D01*
X246875Y205000D02*
X263750Y221875D01*
X278750Y246250D02*
X290000Y233750D01*
X290000Y69375D01*
X532500Y246250D02*
X546875Y231875D01*
X546875Y125625D01*
X546875Y69375D02*
X556875Y69375D01*
X559375Y66875D01*
X278750Y246250D02*
X290000Y233750D01*
X290000Y69375D01*
X546250Y69375D01*
X561875Y66875D02*
X559375Y66875D01*
X532500Y113750D02*
X537500Y118750D01*
X536875Y61875D02*
X278750Y61875D01*
X537500Y59375D02*
X554375Y59375D01*
X556875Y56875D01*
X532500Y113750D02*
X537500Y118750D01*
X532500Y113750D02*
X532500Y108125D01*
X532500Y113750D02*
X532500Y108125D01*
X278750Y108125D02*
X278750Y61875D01*
X536875Y61875D02*
X537500Y61250D01*
X537500Y59375D02*
X537500Y61250D01*
X561875Y56875D02*
X556875Y56875D01*
X386250Y54375D02*
X512500Y54375D01*
X386250Y54375D02*
X259375Y54375D01*
X512500Y52187D02*
X546811Y51938D01*
X551875Y46875D01*
X507500Y106875D02*
X512500Y106875D01*
X507500Y91250D02*
X507500Y106875D01*
X512500Y53778D02*
X512500Y52187D01*
X512500Y54375D02*
X512500Y53778D01*
X561875Y46875D02*
X551875Y46875D01*
X123125Y45776D02*
X332500Y45776D01*
X369375Y106250D02*
X380000Y106250D01*
X376875Y45000D02*
X541250Y45000D01*
X376875Y46875D02*
X333750Y46875D01*
X541250Y45000D02*
X549375Y36875D01*
X123125Y45776D02*
X332500Y45776D01*
X369375Y106250D02*
X380000Y106250D01*
X115625Y106250D02*
X123125Y106250D01*
X123125Y45776D01*
X376875Y46875D02*
X380000Y46401D01*
X333750Y46875D02*
X332500Y45776D01*
X376875Y45000D02*
X380000Y46401D01*
X561875Y36875D02*
X549375Y36875D01*
X116250Y243125D02*
X116250Y233125D01*
X86875Y233125D01*
X86875Y76875D02*
X106250Y76875D01*
X106250Y38125D02*
X308276Y38276D01*
X370000Y243125D02*
X370000Y233125D01*
X340625Y233125D01*
X340625Y96250D01*
X363135Y37489D02*
X537500Y37499D01*
X340625Y38276D02*
X308750Y38276D01*
X537500Y37499D02*
X548125Y26875D01*
X116250Y243125D02*
X116250Y233125D01*
X86875Y233125D01*
X86875Y76875D02*
X106250Y76875D01*
X106250Y38125D02*
X308276Y38276D01*
X86875Y76875D02*
X86875Y233125D01*
X86875Y76875D02*
X86875Y233125D01*
X106250Y38125D02*
X106250Y76875D01*
X106250Y38125D02*
X106250Y76875D01*
X340625Y40000D02*
X340625Y38276D01*
X360625Y40000D02*
X340625Y40000D01*
X363135Y37489D02*
X360625Y40000D01*
X561875Y26875D02*
X548125Y26875D01*
X545000Y6875D02*
X531875Y20000D01*
X25625Y20000D01*
X25625Y83750D02*
X25625Y20000D01*
X25625Y106250D02*
X25625Y83750D01*
X26250Y243125D02*
X26250Y233125D01*
X26250Y243125D02*
X26250Y233125D01*
X26250Y243125D02*
X26250Y233125D01*
X26250Y243125D02*
X26250Y233125D01*
X37500Y221875D01*
X37500Y126875D01*
X25625Y115000D01*
X25625Y106250D01*
X561875Y6875D02*
X545000Y6875D01*
X231875Y324030D02*
X231875Y338115D01*
X485000Y338740D02*
X485000Y324655D01*
X231875Y386250D02*
X231875Y390000D01*
X26250Y345000D02*
X26250Y332500D01*
X16250Y322500D01*
X16250Y310625D01*
X15344Y277780D02*
X16250Y276875D01*
X16250Y288125D02*
X16250Y276875D01*
X26250Y298125D02*
X16250Y288125D01*
X26250Y310625D02*
X26250Y298125D01*
X26250Y276875D02*
X26250Y268125D01*
X16250Y258125D01*
X16250Y243125D01*
X25625Y140000D02*
X25625Y129375D01*
X15625Y119375D01*
X15625Y106250D01*
X15625Y151875D02*
X15625Y140000D01*
X25625Y161875D02*
X15625Y151875D01*
X25625Y173750D02*
X25625Y161875D01*
X25625Y173750D02*
X26530Y172844D01*
X25625Y208125D02*
X25625Y197500D01*
X15625Y187500D01*
X15625Y173750D01*
X405000Y360625D02*
X428750Y360625D01*
X461250Y360000D02*
X463125Y360000D01*
X461250Y360000D02*
X463125Y360000D01*
X463125Y360625D01*
X438750Y360625D01*
X473125Y360000D02*
X496875Y360000D01*
X497500Y360625D01*
X370000Y345000D02*
X370000Y332500D01*
X360000Y322500D01*
X360000Y310625D01*
X359094Y277780D02*
X360000Y276875D01*
X370000Y276875D02*
X370000Y268125D01*
X360000Y258125D01*
X360000Y243125D01*
X468125Y225625D02*
X491875Y225625D01*
X492500Y226250D01*
X400000Y226250D02*
X423750Y226250D01*
X473125Y90625D02*
X496875Y90625D01*
X497500Y91250D01*
X405000Y91250D02*
X428750Y91250D01*
X532500Y280000D02*
X532500Y273750D01*
X522500Y263750D01*
X522500Y246250D01*
X532500Y348125D02*
X532500Y339375D01*
X522500Y329375D01*
X522500Y313750D01*
X532500Y313750D02*
X533405Y312844D01*
X369375Y140000D02*
X369375Y129375D01*
X359375Y119375D01*
X359375Y106250D01*
X369375Y208125D02*
X369375Y197500D01*
X359375Y187500D01*
X359375Y173750D01*
X369375Y173750D02*
X370280Y172844D01*
X532500Y141875D02*
X532500Y132500D01*
X522500Y122500D01*
X522500Y108125D01*
X532500Y210000D02*
X532500Y198125D01*
X522500Y188125D01*
X522500Y175625D01*
X278750Y210000D02*
X278750Y198125D01*
X268750Y188125D01*
X268750Y175625D01*
X268750Y153750D02*
X268750Y141875D01*
X278750Y163750D02*
X268750Y153750D01*
X278750Y175625D02*
X278750Y163750D01*
X278750Y175625D02*
X280280Y174094D01*
X522500Y154375D02*
X522500Y142500D01*
X532500Y164375D02*
X522500Y154375D01*
X532500Y176250D02*
X532500Y164375D01*
X268750Y153750D02*
X268750Y141875D01*
X278750Y141875D02*
X278750Y132500D01*
X268750Y122500D01*
X268750Y108125D01*
X115625Y208125D02*
X115625Y197500D01*
X105625Y187500D01*
X105625Y173750D01*
X105625Y151875D02*
X105625Y140000D01*
X115625Y161875D02*
X105625Y151875D01*
X115625Y173750D02*
X115625Y161875D01*
X115625Y140000D02*
X115625Y129375D01*
X105625Y119375D01*
X105625Y106250D01*
X278750Y348125D02*
X278750Y339375D01*
X268750Y329375D01*
X268750Y313750D01*
X268750Y292500D02*
X268750Y280000D01*
X278750Y302500D02*
X268750Y292500D01*
X278750Y313750D02*
X278750Y302500D01*
X278750Y280000D02*
X278750Y273750D01*
X268750Y263750D01*
X268750Y246250D01*
X151250Y91250D02*
X175000Y91250D01*
X208750Y91250D02*
X185000Y91250D01*
X209375Y90625D02*
X208750Y91250D01*
X462500Y91875D02*
X438750Y91875D01*
X208750Y91250D02*
X185000Y91250D01*
X219375Y90625D02*
X243125Y90625D01*
X243750Y91250D01*
X146250Y226250D02*
X170000Y226250D01*
X180000Y226250D02*
X180625Y225625D01*
X204375Y225625D01*
X434375Y226250D02*
X458125Y226250D01*
X180000Y226250D02*
X180625Y225625D01*
X214375Y225625D02*
X238125Y225625D01*
X238750Y226250D01*
X116250Y276875D02*
X116250Y268125D01*
X106250Y258125D01*
X106250Y243125D01*
X106250Y288750D02*
X106250Y276875D01*
X116250Y298750D02*
X106250Y288750D01*
X116250Y310625D02*
X116250Y298750D01*
X116250Y345000D02*
X116250Y332500D01*
X106250Y322500D01*
X106250Y310625D01*
X219375Y360000D02*
X243125Y360000D01*
X243750Y360625D01*
X185000Y360625D02*
X208750Y360625D01*
X209375Y360000D01*
X151250Y360625D02*
X175000Y360625D01*
X360000Y289375D02*
X360000Y277500D01*
X370000Y299375D02*
X360000Y289375D01*
X370000Y311250D02*
X370000Y299375D01*
X522500Y293125D02*
X522500Y280625D01*
X532500Y303125D02*
X522500Y293125D01*
X532500Y314375D02*
X532500Y303125D01*
X359375Y152500D02*
X359375Y140625D01*
X369375Y162500D02*
X359375Y152500D01*
X369375Y174375D02*
X369375Y162500D01*
G54D25*
X255625Y346875D02*
X255625Y334375D01*
X509375Y341250D02*
X509375Y335000D01*
X255625Y334375D02*
X255625Y323750D01*
X509375Y335000D02*
X509375Y243750D01*
G54D26*
X251535Y334375D02*
X255625Y334375D01*
X504035Y335000D02*
X509375Y335000D01*
X571875Y6875D02*
X571875Y16875D01*
X571875Y26875D01*
X571875Y36875D02*
X571875Y26875D01*
X243464Y338115D02*
X231875Y338115D01*
X495964Y338740D02*
X485000Y338740D01*
X495964Y338740D02*
X485000Y338740D01*
G54D27*
X556250Y292500D03*
X498125Y292500D03*
X334375Y292500D03*
X392500Y292500D03*
X243125Y292500D03*
X299375Y292500D03*
X498125Y303750D03*
X556250Y303750D03*
X95625Y88750D03*
X95625Y30776D03*
X352500Y88750D03*
X352500Y30151D03*
X95625Y88750D03*
X95625Y30776D03*
X546875Y69375D03*
X546875Y125625D03*
X537500Y61250D03*
X537500Y118750D03*
X512500Y53778D03*
X512500Y106875D03*
X380000Y46401D03*
X380000Y106250D03*
X340625Y38276D03*
X340625Y96250D03*
X231875Y338115D03*
X231875Y386250D03*
X485000Y338740D03*
X485000Y387500D03*
G54D28*
X561875Y76875D03*
X571875Y76875D03*
X561875Y66875D03*
X571875Y66875D03*
X561875Y56875D03*
X571875Y56875D03*
X561875Y46875D03*
X571875Y46875D03*
X561875Y36875D03*
X571875Y36875D03*
X561875Y26875D03*
X571875Y26875D03*
X561875Y16875D03*
X571875Y16875D03*
X561875Y6875D03*
X571875Y6875D03*
G54D29*
X486250Y390000D02*
X607500Y390000D01*
X607500Y26875D01*
X231875Y390000D02*
X486250Y390000D01*
X607500Y26875D02*
X574375Y26875D01*
G54D31*
X65000Y367500D03*
X65000Y100625D03*
X570000Y100625D03*
X571250Y367500D03*
G54D32*
X589030Y46875D03*
X577219Y46875D03*
X589030Y56875D03*
X577219Y56875D03*
X589030Y66875D03*
X577219Y66875D03*
X589030Y76875D03*
X577219Y76875D03*
G54D33*
X243464Y330634D03*
X243464Y338115D03*
X251535Y334375D03*
X495964Y331259D03*
X495964Y338740D03*
X504035Y335000D03*
G54D34*
X243125Y324030D03*
X243125Y312219D03*
X495625Y324655D03*
X495625Y312844D03*
X231875Y324030D03*
X231875Y312219D03*
X485000Y324655D03*
X485000Y312844D03*
G54D37*
X16250Y345000D03*
X26250Y345000D03*
X16250Y310625D03*
X26250Y310625D03*
X16250Y276875D03*
X26250Y276875D03*
X16250Y243125D03*
X26250Y243125D03*
X15625Y106250D03*
X25625Y106250D03*
X15625Y140000D03*
X25625Y140000D03*
X15625Y173750D03*
X25625Y173750D03*
X15625Y208125D03*
X25625Y208125D03*
X395000Y360625D03*
X405000Y360625D03*
X428750Y360625D03*
X438750Y360625D03*
X463125Y360000D03*
X473125Y360000D03*
X497500Y360625D03*
X507500Y360625D03*
X360000Y345000D03*
X370000Y345000D03*
X360000Y310625D03*
X370000Y310625D03*
X360000Y276875D03*
X370000Y276875D03*
X360000Y243125D03*
X370000Y243125D03*
X492500Y226250D03*
X502500Y226250D03*
X458125Y225625D03*
X468125Y225625D03*
X423750Y226250D03*
X433750Y226250D03*
X390000Y226250D03*
X400000Y226250D03*
X497500Y91250D03*
X507500Y91250D03*
X463125Y90625D03*
X473125Y90625D03*
X428750Y91250D03*
X438750Y91250D03*
X395000Y91250D03*
X405000Y91250D03*
X522500Y246250D03*
X532500Y246250D03*
X522500Y280000D03*
X532500Y280000D03*
X522500Y313750D03*
X532500Y313750D03*
X522500Y348125D03*
X532500Y348125D03*
X359375Y106250D03*
X369375Y106250D03*
X359375Y140000D03*
X369375Y140000D03*
X359375Y173750D03*
X369375Y173750D03*
X359375Y208125D03*
X369375Y208125D03*
X522500Y108125D03*
X532500Y108125D03*
X522500Y141875D03*
X532500Y141875D03*
X522500Y175625D03*
X532500Y175625D03*
X522500Y210000D03*
X532500Y210000D03*
X268750Y210000D03*
X278750Y210000D03*
X268750Y175625D03*
X278750Y175625D03*
X268750Y141875D03*
X278750Y141875D03*
X268750Y108125D03*
X278750Y108125D03*
X105625Y208125D03*
X115625Y208125D03*
X105625Y173750D03*
X115625Y173750D03*
X105625Y140000D03*
X115625Y140000D03*
X105625Y106250D03*
X115625Y106250D03*
X268750Y348125D03*
X278750Y348125D03*
X268750Y313750D03*
X278750Y313750D03*
X268750Y280000D03*
X278750Y280000D03*
X268750Y246250D03*
X278750Y246250D03*
X141250Y91250D03*
X151250Y91250D03*
X175000Y91250D03*
X185000Y91250D03*
X209375Y90625D03*
X219375Y90625D03*
X243750Y91250D03*
X253750Y91250D03*
X136250Y226250D03*
X146250Y226250D03*
X170000Y226250D03*
X180000Y226250D03*
X204375Y225625D03*
X214375Y225625D03*
X238750Y226250D03*
X248750Y226250D03*
X106250Y243125D03*
X116250Y243125D03*
X106250Y276875D03*
X116250Y276875D03*
X106250Y310625D03*
X116250Y310625D03*
X106250Y345000D03*
X116250Y345000D03*
X243750Y360625D03*
X253750Y360625D03*
X209375Y360000D03*
X219375Y360000D03*
X175000Y360625D03*
X185000Y360625D03*
X141250Y360625D03*
X151250Y360625D03*
M02*
